<svg width="100%" height="100%" viewBox="0 0 3278 1388"
    style="fill-rule:evenodd;clip-rule:evenodd;stroke-linejoin:round;stroke-miterlimit:2;">
    <g transform="matrix(1,0,0,1,-47715,-2721)">
        <g id="logo" transform="matrix(1,0,0,1,-20.6597,-2966.78)" style="fill:current;">
            <g transform="matrix(0.720161,0.504262,-0.504262,0.720161,12947.8,-21933.9)">
                <g transform="matrix(241.546,-304.45,304.45,241.546,50703.1,3302.38)">
                    <path
                        d="M0.404,-0.656C0.406,-0.656 0.408,-0.655 0.411,-0.654C0.412,-0.653 0.414,-0.651 0.416,-0.65C0.417,-0.649 0.418,-0.647 0.418,-0.644L0.418,-0.641C0.418,-0.637 0.417,-0.633 0.416,-0.629C0.415,-0.626 0.413,-0.622 0.412,-0.617C0.411,-0.612 0.409,-0.607 0.406,-0.602C0.399,-0.591 0.392,-0.584 0.386,-0.581C0.38,-0.578 0.376,-0.577 0.374,-0.577L0.373,-0.577C0.369,-0.578 0.367,-0.58 0.367,-0.585L0.367,-0.588C0.367,-0.589 0.367,-0.589 0.368,-0.589C0.369,-0.592 0.369,-0.595 0.369,-0.597L0.369,-0.602C0.369,-0.604 0.369,-0.606 0.369,-0.607C0.368,-0.608 0.368,-0.61 0.368,-0.611L0.367,-0.613C0.366,-0.616 0.363,-0.618 0.358,-0.619C0.353,-0.62 0.347,-0.62 0.34,-0.62C0.328,-0.62 0.314,-0.619 0.298,-0.617C0.282,-0.614 0.267,-0.612 0.252,-0.609C0.235,-0.606 0.217,-0.602 0.2,-0.598C0.191,-0.595 0.182,-0.593 0.175,-0.592C0.174,-0.578 0.172,-0.562 0.17,-0.545C0.168,-0.528 0.165,-0.508 0.161,-0.486C0.16,-0.479 0.16,-0.471 0.159,-0.462C0.158,-0.455 0.157,-0.446 0.156,-0.436C0.155,-0.425 0.153,-0.414 0.152,-0.401C0.15,-0.38 0.148,-0.356 0.145,-0.331C0.142,-0.305 0.14,-0.278 0.138,-0.251C0.135,-0.223 0.133,-0.195 0.132,-0.168C0.131,-0.14 0.13,-0.114 0.13,-0.089C0.13,-0.073 0.131,-0.058 0.132,-0.044C0.133,-0.029 0.134,-0.016 0.135,-0.004C0.135,0.001 0.135,0.006 0.136,0.009C0.137,0.018 0.139,0.022 0.142,0.022C0.142,0.023 0.142,0.023 0.143,0.024C0.143,0.025 0.143,0.025 0.144,0.026C0.144,0.027 0.144,0.027 0.144,0.028C0.144,0.031 0.143,0.033 0.141,0.035C0.138,0.038 0.136,0.041 0.133,0.044C0.13,0.046 0.128,0.048 0.125,0.049C0.122,0.051 0.12,0.052 0.117,0.053C0.116,0.054 0.114,0.054 0.111,0.054C0.105,0.054 0.101,0.051 0.1,0.046C0.099,0.04 0.098,0.036 0.098,0.035L0.098,0.034C0.094,0 0.092,-0.038 0.092,-0.08C0.092,-0.111 0.093,-0.143 0.095,-0.177C0.096,-0.21 0.098,-0.242 0.101,-0.273C0.104,-0.304 0.107,-0.333 0.11,-0.361C0.113,-0.388 0.115,-0.412 0.118,-0.432C0.119,-0.442 0.12,-0.451 0.121,-0.46C0.122,-0.468 0.123,-0.475 0.124,-0.48C0.125,-0.487 0.126,-0.492 0.127,-0.497L0.135,-0.58C0.108,-0.571 0.085,-0.563 0.066,-0.556C0.047,-0.549 0.032,-0.542 0.021,-0.537C0.008,-0.53 -0.003,-0.524 -0.011,-0.518L-0.013,-0.516C-0.014,-0.515 -0.016,-0.514 -0.018,-0.514C-0.019,-0.514 -0.02,-0.514 -0.021,-0.515C-0.023,-0.516 -0.024,-0.519 -0.025,-0.523C-0.026,-0.526 -0.026,-0.529 -0.027,-0.53C-0.027,-0.535 -0.026,-0.539 -0.024,-0.543C-0.023,-0.546 -0.021,-0.55 -0.019,-0.554C-0.016,-0.557 -0.012,-0.56 -0.007,-0.563C0.004,-0.568 0.016,-0.573 0.03,-0.579C0.042,-0.584 0.057,-0.59 0.075,-0.596C0.093,-0.602 0.114,-0.609 0.137,-0.616C0.139,-0.641 0.14,-0.657 0.14,-0.666C0.14,-0.669 0.14,-0.671 0.14,-0.672C0.139,-0.673 0.139,-0.675 0.139,-0.676L0.139,-0.679C0.139,-0.681 0.139,-0.683 0.14,-0.684C0.141,-0.687 0.144,-0.688 0.147,-0.689C0.152,-0.689 0.156,-0.689 0.16,-0.688C0.163,-0.687 0.167,-0.687 0.17,-0.686C0.173,-0.685 0.176,-0.684 0.177,-0.683C0.177,-0.682 0.177,-0.68 0.178,-0.677C0.178,-0.675 0.178,-0.673 0.179,-0.67C0.179,-0.667 0.179,-0.662 0.179,-0.657L0.179,-0.644C0.179,-0.639 0.179,-0.634 0.178,-0.628C0.209,-0.636 0.24,-0.643 0.273,-0.649C0.305,-0.655 0.336,-0.658 0.366,-0.658L0.386,-0.658C0.392,-0.658 0.398,-0.657 0.404,-0.656Z"
                        style="fill:current;" />
                </g>
                <g transform="matrix(242.6,-303.61,303.61,242.6,50753.3,3238.98)">
                    <path
                        d="M0.216,0.023C0.213,0.026 0.21,0.027 0.207,0.028C0.204,0.029 0.201,0.029 0.2,0.029L0.199,0.029C0.192,0.028 0.187,0.026 0.184,0.025C0.181,0.023 0.178,0.021 0.176,0.019C0.173,0.016 0.172,0.014 0.172,0.012C0.169,-0.009 0.167,-0.031 0.166,-0.053C0.165,-0.075 0.165,-0.096 0.165,-0.116L0.165,-0.156C0.165,-0.168 0.165,-0.179 0.166,-0.188C0.167,-0.199 0.167,-0.208 0.168,-0.217C0.168,-0.223 0.166,-0.226 0.163,-0.226C0.162,-0.226 0.161,-0.225 0.159,-0.223C0.158,-0.222 0.158,-0.222 0.158,-0.221C0.155,-0.217 0.151,-0.21 0.146,-0.2C0.141,-0.189 0.136,-0.177 0.131,-0.164C0.125,-0.151 0.119,-0.136 0.114,-0.12C0.108,-0.104 0.102,-0.088 0.097,-0.072C0.084,-0.035 0.071,0.007 0.056,0.052C0.053,0.059 0.049,0.063 0.042,0.063C0.037,0.063 0.034,0.063 0.033,0.062L0.029,0.06C0.022,0.057 0.017,0.053 0.016,0.048C0.014,0.042 0.013,0.038 0.013,0.037L0.013,0.029C0.013,0.012 0.013,-0.007 0.014,-0.027C0.015,-0.047 0.016,-0.068 0.017,-0.089C0.018,-0.11 0.02,-0.13 0.022,-0.151C0.023,-0.172 0.025,-0.192 0.027,-0.211C0.031,-0.256 0.036,-0.301 0.042,-0.346C0.051,-0.425 0.056,-0.485 0.058,-0.525C0.06,-0.564 0.061,-0.591 0.061,-0.604L0.061,-0.617L0.063,-0.621C0.064,-0.624 0.067,-0.625 0.071,-0.626L0.072,-0.626C0.073,-0.626 0.073,-0.626 0.073,-0.627C0.073,-0.627 0.074,-0.627 0.075,-0.627C0.078,-0.627 0.081,-0.626 0.085,-0.625C0.089,-0.623 0.093,-0.619 0.097,-0.613C0.098,-0.613 0.098,-0.612 0.099,-0.611C0.1,-0.61 0.1,-0.608 0.101,-0.607C0.102,-0.605 0.102,-0.602 0.102,-0.599L0.102,-0.592C0.101,-0.583 0.1,-0.572 0.099,-0.56C0.098,-0.55 0.096,-0.538 0.095,-0.525C0.093,-0.511 0.091,-0.496 0.088,-0.479C0.084,-0.45 0.08,-0.42 0.077,-0.39C0.074,-0.365 0.071,-0.337 0.068,-0.308C0.065,-0.279 0.063,-0.252 0.062,-0.228C0.059,-0.205 0.057,-0.183 0.055,-0.161C0.054,-0.142 0.052,-0.123 0.051,-0.103C0.05,-0.082 0.049,-0.065 0.049,-0.05L0.049,-0.044C0.049,-0.043 0.049,-0.041 0.05,-0.04C0.051,-0.038 0.052,-0.037 0.054,-0.037C0.056,-0.037 0.058,-0.041 0.061,-0.049C0.072,-0.082 0.083,-0.114 0.095,-0.145C0.104,-0.172 0.115,-0.199 0.127,-0.228C0.138,-0.256 0.149,-0.28 0.16,-0.299C0.16,-0.301 0.161,-0.303 0.163,-0.305C0.166,-0.309 0.17,-0.311 0.177,-0.311C0.181,-0.311 0.184,-0.311 0.186,-0.31C0.188,-0.309 0.19,-0.308 0.192,-0.307C0.193,-0.306 0.195,-0.305 0.197,-0.304C0.199,-0.303 0.201,-0.301 0.202,-0.3L0.203,-0.299C0.204,-0.298 0.205,-0.296 0.205,-0.293C0.205,-0.292 0.205,-0.292 0.205,-0.291C0.204,-0.29 0.204,-0.289 0.204,-0.288C0.203,-0.279 0.201,-0.268 0.2,-0.256C0.198,-0.235 0.197,-0.205 0.197,-0.168C0.197,-0.145 0.198,-0.121 0.199,-0.094C0.2,-0.067 0.203,-0.037 0.208,-0.006C0.209,-0.005 0.209,-0.004 0.21,-0.002C0.211,0.001 0.213,0.005 0.215,0.008C0.215,0.009 0.215,0.01 0.216,0.011C0.217,0.014 0.218,0.016 0.218,0.017C0.218,0.018 0.217,0.02 0.216,0.023Z"
                        style="fill:current;" />
                </g>
                <g transform="matrix(244.59,-302.01,302.01,244.59,50811.6,3166.02)">
                    <path
                        d="M0.122,-0.206C0.129,-0.216 0.134,-0.224 0.137,-0.231C0.139,-0.238 0.14,-0.243 0.14,-0.247C0.14,-0.248 0.14,-0.25 0.14,-0.251C0.139,-0.252 0.139,-0.254 0.139,-0.255L0.138,-0.257C0.136,-0.259 0.135,-0.26 0.134,-0.26L0.13,-0.26C0.119,-0.259 0.109,-0.256 0.1,-0.249C0.091,-0.242 0.084,-0.235 0.079,-0.227C0.072,-0.218 0.067,-0.207 0.062,-0.194L0.062,-0.192C0.062,-0.19 0.063,-0.188 0.066,-0.187C0.067,-0.186 0.068,-0.186 0.07,-0.185C0.072,-0.184 0.076,-0.184 0.082,-0.184C0.087,-0.184 0.094,-0.185 0.101,-0.188C0.108,-0.191 0.115,-0.197 0.122,-0.206ZM0.091,0.013C0.082,0.013 0.074,0.012 0.068,0.009C0.061,0.006 0.055,0.002 0.05,-0.002C0.044,-0.007 0.039,-0.012 0.035,-0.018C0.026,-0.031 0.02,-0.046 0.017,-0.061C0.014,-0.076 0.012,-0.091 0.012,-0.106C0.012,-0.117 0.013,-0.128 0.014,-0.139C0.015,-0.149 0.017,-0.158 0.019,-0.166C0.021,-0.175 0.023,-0.183 0.026,-0.191C0.025,-0.194 0.025,-0.197 0.025,-0.202L0.025,-0.211C0.025,-0.212 0.025,-0.213 0.026,-0.214C0.028,-0.217 0.03,-0.218 0.031,-0.218C0.032,-0.218 0.032,-0.218 0.033,-0.218C0.034,-0.217 0.034,-0.217 0.035,-0.217L0.036,-0.216C0.036,-0.215 0.036,-0.215 0.037,-0.215C0.037,-0.214 0.038,-0.214 0.039,-0.214C0.04,-0.214 0.041,-0.215 0.042,-0.218C0.05,-0.235 0.059,-0.249 0.07,-0.262C0.079,-0.273 0.09,-0.284 0.102,-0.293C0.114,-0.302 0.128,-0.306 0.143,-0.306L0.144,-0.306C0.149,-0.305 0.153,-0.302 0.157,-0.299C0.16,-0.296 0.163,-0.291 0.166,-0.286C0.169,-0.28 0.17,-0.272 0.17,-0.261L0.17,-0.25C0.17,-0.245 0.169,-0.241 0.168,-0.236C0.166,-0.228 0.164,-0.22 0.161,-0.213C0.158,-0.206 0.155,-0.198 0.15,-0.19C0.145,-0.182 0.138,-0.174 0.131,-0.167C0.126,-0.163 0.122,-0.16 0.117,-0.157C0.112,-0.154 0.107,-0.152 0.102,-0.15C0.097,-0.148 0.09,-0.147 0.083,-0.147C0.078,-0.147 0.072,-0.148 0.067,-0.149C0.062,-0.15 0.056,-0.153 0.05,-0.156L0.049,-0.156C0.048,-0.156 0.047,-0.155 0.047,-0.152C0.046,-0.148 0.045,-0.143 0.044,-0.138C0.042,-0.129 0.041,-0.117 0.041,-0.104C0.041,-0.096 0.042,-0.088 0.043,-0.08C0.044,-0.072 0.047,-0.065 0.051,-0.058C0.054,-0.05 0.059,-0.045 0.066,-0.04C0.073,-0.035 0.081,-0.031 0.091,-0.029L0.094,-0.029C0.097,-0.029 0.101,-0.029 0.106,-0.031C0.111,-0.032 0.117,-0.034 0.123,-0.039C0.129,-0.043 0.135,-0.049 0.142,-0.058C0.148,-0.066 0.153,-0.077 0.158,-0.092L0.158,-0.093C0.158,-0.094 0.158,-0.096 0.159,-0.097C0.16,-0.098 0.161,-0.099 0.164,-0.099C0.165,-0.099 0.167,-0.099 0.168,-0.098C0.169,-0.098 0.171,-0.097 0.172,-0.096C0.175,-0.093 0.176,-0.09 0.176,-0.085C0.176,-0.083 0.176,-0.081 0.176,-0.079C0.175,-0.077 0.175,-0.074 0.174,-0.071C0.169,-0.05 0.162,-0.035 0.154,-0.024C0.146,-0.012 0.138,-0.004 0.129,0.001C0.119,0.008 0.109,0.012 0.098,0.013L0.091,0.013Z"
                        style="fill:current;" />
                </g>
                <g transform="matrix(248.273,-298.989,298.989,248.273,50909.5,3046.17)">
                    <path
                        d="M0.089,-0.29C0.101,-0.294 0.114,-0.298 0.128,-0.301C0.141,-0.304 0.155,-0.307 0.17,-0.31C0.169,-0.318 0.168,-0.325 0.168,-0.332C0.167,-0.339 0.167,-0.345 0.166,-0.35C0.165,-0.356 0.165,-0.361 0.165,-0.366C0.164,-0.381 0.163,-0.397 0.162,-0.412L0.16,-0.456C0.16,-0.457 0.159,-0.458 0.158,-0.458C0.156,-0.458 0.155,-0.457 0.154,-0.454C0.149,-0.444 0.144,-0.431 0.137,-0.416C0.126,-0.39 0.11,-0.348 0.089,-0.29ZM0.268,0.082L0.272,0.09C0.273,0.091 0.273,0.093 0.273,0.094L0.273,0.095C0.273,0.096 0.272,0.098 0.271,0.099C0.27,0.1 0.268,0.101 0.266,0.103C0.264,0.103 0.261,0.105 0.256,0.106C0.255,0.107 0.254,0.107 0.253,0.107C0.252,0.108 0.25,0.108 0.247,0.108C0.244,0.108 0.24,0.107 0.237,0.106C0.234,0.104 0.231,0.1 0.229,0.095C0.222,0.078 0.215,0.054 0.209,0.024C0.203,-0.007 0.198,-0.04 0.193,-0.075C0.188,-0.11 0.184,-0.145 0.181,-0.181C0.177,-0.216 0.174,-0.248 0.172,-0.276C0.154,-0.273 0.137,-0.269 0.121,-0.266C0.105,-0.262 0.09,-0.258 0.075,-0.253C0.072,-0.244 0.068,-0.236 0.065,-0.228C0.061,-0.219 0.057,-0.21 0.052,-0.199C0.037,-0.161 0.022,-0.129 0.007,-0.102C-0.008,-0.075 -0.021,-0.054 -0.032,-0.037C-0.045,-0.018 -0.058,-0.002 -0.07,0.01C-0.086,0.027 -0.102,0.042 -0.118,0.053C-0.134,0.064 -0.149,0.073 -0.162,0.079C-0.177,0.086 -0.192,0.092 -0.205,0.095C-0.207,0.096 -0.209,0.096 -0.212,0.096L-0.216,0.096C-0.217,0.096 -0.217,0.096 -0.217,0.095C-0.219,0.094 -0.22,0.092 -0.221,0.09C-0.222,0.087 -0.222,0.085 -0.223,0.084C-0.224,0.082 -0.224,0.08 -0.224,0.078L-0.224,0.075C-0.224,0.067 -0.223,0.058 -0.22,0.048C-0.217,0.038 -0.213,0.028 -0.21,0.019C-0.206,0.008 -0.201,-0.002 -0.196,-0.013C-0.193,-0.02 -0.189,-0.027 -0.186,-0.033C-0.183,-0.039 -0.18,-0.044 -0.177,-0.048C-0.174,-0.053 -0.172,-0.057 -0.169,-0.061C-0.16,-0.076 -0.152,-0.089 -0.144,-0.099C-0.135,-0.109 -0.128,-0.117 -0.121,-0.124C-0.114,-0.131 -0.106,-0.138 -0.099,-0.143C-0.097,-0.146 -0.094,-0.147 -0.09,-0.148L-0.077,-0.148C-0.068,-0.147 -0.063,-0.144 -0.061,-0.14C-0.059,-0.136 -0.058,-0.133 -0.058,-0.13L-0.058,-0.128C-0.058,-0.125 -0.059,-0.123 -0.061,-0.122C-0.063,-0.121 -0.065,-0.121 -0.066,-0.121L-0.069,-0.121C-0.088,-0.108 -0.105,-0.094 -0.118,-0.077C-0.131,-0.06 -0.142,-0.044 -0.15,-0.029C-0.16,-0.011 -0.168,0.007 -0.173,0.026C-0.174,0.031 -0.175,0.035 -0.175,0.036C-0.175,0.041 -0.173,0.043 -0.169,0.043L-0.165,0.043C-0.164,0.043 -0.164,0.043 -0.164,0.042C-0.142,0.035 -0.121,0.02 -0.101,-0.002C-0.081,-0.023 -0.063,-0.048 -0.046,-0.075C-0.028,-0.102 -0.013,-0.131 0,-0.161C0.013,-0.19 0.025,-0.217 0.034,-0.24C0.019,-0.235 0.005,-0.23 -0.006,-0.225C-0.017,-0.22 -0.027,-0.216 -0.034,-0.213C-0.043,-0.209 -0.05,-0.205 -0.057,-0.202C-0.06,-0.2 -0.063,-0.199 -0.065,-0.199C-0.068,-0.199 -0.07,-0.2 -0.071,-0.202C-0.072,-0.203 -0.072,-0.204 -0.073,-0.205L-0.073,-0.209C-0.073,-0.218 -0.069,-0.225 -0.062,-0.231C-0.059,-0.234 -0.055,-0.236 -0.05,-0.239C-0.042,-0.243 -0.033,-0.247 -0.023,-0.251C-0.014,-0.254 -0.004,-0.258 0.008,-0.263C0.02,-0.268 0.034,-0.273 0.049,-0.278C0.05,-0.283 0.052,-0.288 0.053,-0.291C0.054,-0.294 0.056,-0.298 0.057,-0.301C0.058,-0.304 0.059,-0.307 0.059,-0.31C0.068,-0.332 0.078,-0.356 0.088,-0.381C0.097,-0.406 0.106,-0.43 0.114,-0.451C0.123,-0.476 0.133,-0.502 0.142,-0.527C0.143,-0.528 0.143,-0.531 0.144,-0.534C0.145,-0.537 0.148,-0.54 0.154,-0.541C0.155,-0.54 0.155,-0.54 0.156,-0.54C0.159,-0.54 0.161,-0.544 0.161,-0.551L0.164,-0.597C0.165,-0.606 0.165,-0.615 0.165,-0.624L0.165,-0.626C0.165,-0.627 0.165,-0.629 0.166,-0.632C0.167,-0.634 0.168,-0.636 0.17,-0.637C0.171,-0.637 0.172,-0.637 0.173,-0.638C0.176,-0.639 0.178,-0.64 0.181,-0.64C0.186,-0.64 0.191,-0.638 0.195,-0.635C0.2,-0.63 0.203,-0.626 0.203,-0.623C0.203,-0.622 0.203,-0.62 0.202,-0.619C0.201,-0.618 0.201,-0.616 0.201,-0.614C0.2,-0.605 0.199,-0.594 0.198,-0.582C0.197,-0.571 0.197,-0.559 0.197,-0.544C0.196,-0.529 0.196,-0.513 0.196,-0.494C0.196,-0.469 0.197,-0.442 0.198,-0.412C0.199,-0.382 0.202,-0.349 0.205,-0.314C0.21,-0.315 0.216,-0.316 0.221,-0.317C0.226,-0.318 0.232,-0.318 0.237,-0.319L0.241,-0.319C0.244,-0.319 0.247,-0.318 0.251,-0.316C0.255,-0.314 0.258,-0.309 0.261,-0.3L0.261,-0.297C0.261,-0.295 0.261,-0.293 0.26,-0.291C0.259,-0.288 0.256,-0.287 0.253,-0.287C0.246,-0.287 0.24,-0.286 0.233,-0.285C0.23,-0.284 0.228,-0.284 0.225,-0.284C0.222,-0.283 0.219,-0.283 0.216,-0.283C0.213,-0.282 0.211,-0.282 0.208,-0.282L0.209,-0.264C0.215,-0.205 0.221,-0.151 0.228,-0.102C0.231,-0.081 0.234,-0.061 0.237,-0.041C0.24,-0.02 0.243,-0.002 0.247,0.016C0.25,0.033 0.254,0.047 0.257,0.059C0.26,0.071 0.264,0.079 0.268,0.082Z"
                        style="fill:current;" />
                </g>
                <g transform="matrix(255.013,-293.261,293.261,255.013,50973.1,2969.7)">
                    <path
                        d="M0.335,-0.002C0.333,0.003 0.331,0.006 0.328,0.009C0.325,0.012 0.323,0.014 0.32,0.015C0.317,0.017 0.314,0.018 0.311,0.018C0.31,0.019 0.309,0.019 0.307,0.019C0.304,0.019 0.302,0.018 0.301,0.017C0.3,0.016 0.3,0.015 0.299,0.014C0.294,0.009 0.291,0.002 0.288,-0.01C0.285,-0.021 0.282,-0.033 0.281,-0.048C0.279,-0.062 0.278,-0.077 0.277,-0.093C0.276,-0.108 0.276,-0.123 0.276,-0.137L0.276,-0.163C0.276,-0.17 0.276,-0.177 0.277,-0.183C0.277,-0.19 0.277,-0.197 0.278,-0.202C0.278,-0.206 0.277,-0.209 0.276,-0.212L0.275,-0.214C0.273,-0.213 0.271,-0.211 0.27,-0.208L0.268,-0.204C0.256,-0.172 0.246,-0.142 0.238,-0.116C0.23,-0.089 0.223,-0.065 0.218,-0.046C0.212,-0.023 0.207,-0.002 0.204,0.017C0.204,0.022 0.202,0.026 0.198,0.029C0.196,0.03 0.194,0.031 0.193,0.031C0.184,0.031 0.178,0.03 0.174,0.027C0.172,0.026 0.171,0.024 0.17,0.022C0.166,0.017 0.163,0.01 0.16,0.001C0.157,-0.009 0.154,-0.02 0.152,-0.032C0.149,-0.044 0.147,-0.057 0.146,-0.071C0.144,-0.085 0.143,-0.099 0.142,-0.112C0.139,-0.144 0.138,-0.179 0.137,-0.216C0.137,-0.221 0.136,-0.224 0.135,-0.224C0.134,-0.223 0.133,-0.223 0.133,-0.223C0.132,-0.223 0.131,-0.222 0.131,-0.22C0.13,-0.219 0.13,-0.218 0.13,-0.217C0.125,-0.196 0.12,-0.175 0.115,-0.154C0.11,-0.133 0.105,-0.114 0.1,-0.097C0.095,-0.077 0.089,-0.058 0.084,-0.04C0.079,-0.021 0.074,-0.006 0.07,0.005C0.066,0.015 0.063,0.022 0.06,0.027C0.057,0.032 0.055,0.035 0.052,0.036C0.05,0.038 0.047,0.039 0.044,0.039C0.04,0.039 0.036,0.038 0.032,0.037C0.029,0.036 0.027,0.035 0.026,0.034C0.023,0.031 0.021,0.027 0.02,0.02C0.019,0.013 0.019,0.008 0.019,0.005L0.019,0.002C0.017,-0.027 0.016,-0.056 0.016,-0.087L0.016,-0.128C0.016,-0.14 0.016,-0.152 0.017,-0.161C0.018,-0.172 0.018,-0.183 0.019,-0.192C0.019,-0.206 0.019,-0.218 0.019,-0.228C0.018,-0.238 0.018,-0.247 0.018,-0.254C0.017,-0.261 0.017,-0.268 0.017,-0.274C0.015,-0.283 0.014,-0.292 0.014,-0.3C0.013,-0.307 0.013,-0.314 0.013,-0.319L0.013,-0.33C0.016,-0.344 0.021,-0.353 0.028,-0.358C0.031,-0.361 0.034,-0.362 0.038,-0.362C0.041,-0.361 0.043,-0.36 0.046,-0.357C0.051,-0.352 0.053,-0.34 0.054,-0.323C0.054,-0.311 0.054,-0.297 0.053,-0.282C0.052,-0.255 0.05,-0.218 0.047,-0.173C0.046,-0.168 0.046,-0.161 0.046,-0.154C0.045,-0.148 0.045,-0.141 0.045,-0.134L0.045,-0.11C0.045,-0.102 0.045,-0.094 0.046,-0.086C0.046,-0.077 0.046,-0.069 0.047,-0.062C0.047,-0.061 0.047,-0.059 0.048,-0.058C0.049,-0.056 0.05,-0.055 0.051,-0.055L0.052,-0.055C0.053,-0.054 0.054,-0.055 0.055,-0.056C0.056,-0.056 0.058,-0.06 0.061,-0.067C0.066,-0.083 0.072,-0.101 0.078,-0.121C0.083,-0.138 0.089,-0.159 0.095,-0.182C0.101,-0.204 0.107,-0.23 0.112,-0.258C0.116,-0.271 0.12,-0.284 0.123,-0.296C0.126,-0.306 0.13,-0.316 0.133,-0.326C0.136,-0.336 0.139,-0.343 0.142,-0.347L0.143,-0.348C0.144,-0.349 0.146,-0.35 0.147,-0.35L0.15,-0.35C0.154,-0.35 0.157,-0.349 0.16,-0.348C0.166,-0.345 0.17,-0.341 0.173,-0.334C0.173,-0.333 0.173,-0.332 0.174,-0.33C0.175,-0.326 0.176,-0.321 0.176,-0.316C0.176,-0.309 0.175,-0.3 0.173,-0.289C0.172,-0.284 0.172,-0.278 0.172,-0.271C0.171,-0.266 0.171,-0.259 0.171,-0.251L0.171,-0.224C0.171,-0.203 0.172,-0.178 0.173,-0.151C0.174,-0.123 0.177,-0.093 0.181,-0.062L0.183,-0.058C0.184,-0.055 0.185,-0.054 0.186,-0.055L0.188,-0.057C0.189,-0.058 0.19,-0.06 0.191,-0.061C0.192,-0.062 0.193,-0.065 0.194,-0.068C0.199,-0.083 0.204,-0.099 0.21,-0.117C0.215,-0.132 0.221,-0.151 0.227,-0.172C0.233,-0.193 0.24,-0.215 0.247,-0.239C0.251,-0.253 0.255,-0.266 0.259,-0.279C0.262,-0.29 0.266,-0.302 0.271,-0.314C0.276,-0.325 0.28,-0.335 0.284,-0.343C0.285,-0.345 0.287,-0.347 0.29,-0.349C0.293,-0.35 0.296,-0.352 0.301,-0.353C0.305,-0.354 0.311,-0.355 0.318,-0.355L0.319,-0.355C0.32,-0.355 0.322,-0.355 0.324,-0.354C0.325,-0.353 0.326,-0.351 0.326,-0.348C0.326,-0.346 0.326,-0.344 0.325,-0.343C0.322,-0.331 0.319,-0.316 0.316,-0.299C0.313,-0.284 0.311,-0.266 0.309,-0.244C0.307,-0.222 0.305,-0.196 0.304,-0.167L0.304,-0.162C0.304,-0.156 0.304,-0.146 0.305,-0.131C0.305,-0.116 0.306,-0.101 0.308,-0.086C0.31,-0.07 0.313,-0.055 0.317,-0.041C0.32,-0.027 0.325,-0.017 0.331,-0.012C0.332,-0.012 0.332,-0.012 0.333,-0.011C0.334,-0.01 0.335,-0.008 0.335,-0.005L0.335,-0.002Z"
                        style="fill:current;" />
                </g>
                <g transform="matrix(262.987,-286.133,286.133,262.987,51062.2,2867.62)">
                    <path
                        d="M0.133,-0.262C0.132,-0.263 0.131,-0.264 0.129,-0.264C0.128,-0.264 0.127,-0.264 0.126,-0.263C0.125,-0.262 0.123,-0.262 0.122,-0.261C0.121,-0.26 0.12,-0.26 0.119,-0.259C0.108,-0.246 0.097,-0.232 0.087,-0.215C0.078,-0.201 0.07,-0.184 0.062,-0.164C0.053,-0.143 0.047,-0.12 0.043,-0.094C0.042,-0.092 0.042,-0.09 0.042,-0.088L0.042,-0.075C0.042,-0.07 0.042,-0.065 0.043,-0.062C0.044,-0.058 0.045,-0.056 0.048,-0.055L0.048,-0.054L0.05,-0.054C0.052,-0.054 0.055,-0.056 0.061,-0.06C0.066,-0.063 0.072,-0.072 0.08,-0.085C0.085,-0.092 0.09,-0.099 0.095,-0.108C0.099,-0.115 0.103,-0.124 0.108,-0.134C0.113,-0.144 0.117,-0.156 0.12,-0.169C0.122,-0.18 0.124,-0.192 0.127,-0.203C0.128,-0.212 0.13,-0.222 0.132,-0.232C0.133,-0.241 0.134,-0.249 0.134,-0.255C0.134,-0.259 0.134,-0.261 0.133,-0.262ZM0.1,-0.289C0.101,-0.29 0.101,-0.291 0.102,-0.292C0.103,-0.292 0.103,-0.292 0.104,-0.293C0.105,-0.294 0.105,-0.294 0.106,-0.294C0.107,-0.295 0.108,-0.297 0.11,-0.298C0.113,-0.3 0.117,-0.302 0.122,-0.304L0.129,-0.304C0.131,-0.303 0.133,-0.302 0.134,-0.301C0.134,-0.3 0.134,-0.3 0.135,-0.3C0.136,-0.299 0.137,-0.299 0.138,-0.299C0.141,-0.299 0.142,-0.3 0.143,-0.302C0.144,-0.305 0.146,-0.307 0.148,-0.31C0.151,-0.314 0.154,-0.317 0.156,-0.318L0.157,-0.318C0.158,-0.318 0.161,-0.317 0.166,-0.315C0.17,-0.312 0.172,-0.306 0.172,-0.295L0.172,-0.29C0.17,-0.277 0.168,-0.264 0.166,-0.249C0.165,-0.236 0.163,-0.222 0.162,-0.206C0.16,-0.19 0.158,-0.174 0.157,-0.157C0.156,-0.15 0.156,-0.143 0.156,-0.136L0.156,-0.115C0.156,-0.098 0.157,-0.082 0.159,-0.067C0.16,-0.052 0.164,-0.04 0.169,-0.031L0.171,-0.029C0.172,-0.028 0.174,-0.027 0.177,-0.027C0.182,-0.027 0.187,-0.03 0.193,-0.037C0.193,-0.038 0.194,-0.038 0.195,-0.039C0.197,-0.041 0.199,-0.042 0.201,-0.042C0.203,-0.042 0.204,-0.04 0.205,-0.037L0.205,-0.029C0.205,-0.024 0.204,-0.018 0.203,-0.011C0.202,-0.004 0.198,0.004 0.193,0.011C0.19,0.014 0.188,0.016 0.185,0.019C0.179,0.024 0.173,0.026 0.167,0.026C0.164,0.026 0.162,0.026 0.161,0.025C0.157,0.024 0.153,0.02 0.15,0.015C0.146,0.01 0.143,0.003 0.14,-0.006C0.137,-0.014 0.134,-0.023 0.133,-0.034C0.131,-0.044 0.13,-0.054 0.13,-0.065L0.13,-0.109C0.13,-0.109 0.129,-0.109 0.128,-0.11C0.127,-0.11 0.126,-0.109 0.125,-0.106C0.12,-0.092 0.113,-0.079 0.106,-0.067C0.1,-0.056 0.093,-0.046 0.084,-0.035C0.075,-0.024 0.065,-0.014 0.054,-0.007C0.053,-0.006 0.051,-0.006 0.049,-0.005C0.045,-0.004 0.042,-0.003 0.039,-0.003C0.035,-0.003 0.032,-0.004 0.029,-0.006C0.026,-0.008 0.024,-0.011 0.021,-0.016C0.019,-0.02 0.017,-0.026 0.016,-0.033C0.014,-0.04 0.013,-0.05 0.013,-0.061L0.013,-0.073C0.013,-0.077 0.013,-0.081 0.014,-0.086C0.017,-0.113 0.022,-0.137 0.03,-0.16C0.038,-0.183 0.047,-0.203 0.056,-0.22C0.065,-0.237 0.073,-0.252 0.082,-0.264C0.09,-0.275 0.096,-0.284 0.1,-0.289Z"
                        style="fill:current;" />
                </g>
                <g transform="matrix(273.231,-276.367,276.367,273.231,51121.5,2803.08)">
                    <path
                        d="M0.174,-0.016C0.174,-0.009 0.173,-0.004 0.17,-0.001C0.169,0 0.168,0.001 0.167,0.001C0.166,0.002 0.165,0.003 0.162,0.003C0.159,0.003 0.157,0.003 0.156,0.002C0.155,0.002 0.154,0.002 0.154,0.001C0.151,0 0.149,-0 0.146,-0L0.138,-0C0.124,-0 0.11,0.002 0.095,0.005C0.08,0.008 0.067,0.012 0.056,0.016C0.043,0.021 0.03,0.026 0.017,0.031C0.014,0.033 0.011,0.034 0.009,0.034C0.003,0.034 -0.002,0.032 -0.005,0.027C-0.007,0.024 -0.009,0.022 -0.01,0.019C-0.013,0.011 -0.014,0.004 -0.014,-0.003L-0.014,-0.01C-0.014,-0.011 -0.014,-0.012 -0.013,-0.013C-0.006,-0.036 0.005,-0.064 0.019,-0.095C0.033,-0.126 0.047,-0.156 0.062,-0.184C0.079,-0.217 0.097,-0.25 0.116,-0.284C0.117,-0.288 0.118,-0.29 0.118,-0.29C0.118,-0.291 0.117,-0.292 0.116,-0.292C0.115,-0.292 0.115,-0.292 0.115,-0.292C0.114,-0.291 0.114,-0.291 0.113,-0.291L0.112,-0.29C0.101,-0.287 0.09,-0.286 0.079,-0.285C0.067,-0.284 0.057,-0.284 0.05,-0.284L0.037,-0.284C0.026,-0.285 0.018,-0.288 0.015,-0.294C0.011,-0.299 0.009,-0.305 0.009,-0.31C0.009,-0.315 0.009,-0.318 0.01,-0.319C0.01,-0.32 0.01,-0.322 0.011,-0.323C0.012,-0.324 0.013,-0.324 0.014,-0.325C0.015,-0.326 0.017,-0.326 0.018,-0.327C0.019,-0.328 0.02,-0.328 0.022,-0.328L0.025,-0.328C0.026,-0.327 0.028,-0.327 0.031,-0.327C0.034,-0.326 0.04,-0.326 0.05,-0.326C0.062,-0.326 0.079,-0.327 0.1,-0.33C0.121,-0.333 0.147,-0.339 0.179,-0.348C0.18,-0.348 0.182,-0.348 0.184,-0.349C0.188,-0.35 0.191,-0.351 0.192,-0.351C0.195,-0.351 0.196,-0.35 0.196,-0.348L0.196,-0.344C0.196,-0.339 0.195,-0.333 0.192,-0.324C0.189,-0.315 0.18,-0.307 0.167,-0.3C0.152,-0.278 0.136,-0.253 0.12,-0.226C0.107,-0.203 0.092,-0.174 0.076,-0.141C0.059,-0.108 0.044,-0.071 0.029,-0.031C0.028,-0.03 0.028,-0.03 0.028,-0.029L0.028,-0.025C0.028,-0.021 0.03,-0.019 0.033,-0.019C0.036,-0.019 0.038,-0.019 0.039,-0.02C0.05,-0.024 0.062,-0.027 0.074,-0.03C0.084,-0.033 0.095,-0.035 0.107,-0.038C0.118,-0.04 0.129,-0.041 0.14,-0.041C0.151,-0.041 0.16,-0.04 0.165,-0.037C0.166,-0.037 0.167,-0.036 0.168,-0.035C0.171,-0.032 0.172,-0.029 0.173,-0.025L0.174,-0.016Z"
                        style="fill:current;" />
                </g>
                <g transform="matrix(285.605,-263.56,263.56,285.605,51169.3,2754.9)">
                    <path
                        d="M0.07,-0.389C0.067,-0.386 0.065,-0.384 0.062,-0.384C0.059,-0.384 0.055,-0.386 0.051,-0.39C0.049,-0.392 0.047,-0.394 0.046,-0.396C0.043,-0.404 0.041,-0.411 0.04,-0.417C0.039,-0.423 0.038,-0.428 0.038,-0.433C0.038,-0.44 0.039,-0.445 0.04,-0.449C0.041,-0.451 0.042,-0.453 0.043,-0.454C0.044,-0.458 0.046,-0.461 0.049,-0.464C0.052,-0.467 0.055,-0.469 0.061,-0.471C0.066,-0.473 0.072,-0.474 0.08,-0.475C0.083,-0.475 0.086,-0.474 0.089,-0.473C0.091,-0.472 0.093,-0.47 0.095,-0.468C0.097,-0.466 0.098,-0.463 0.098,-0.46L0.098,-0.458C0.098,-0.457 0.097,-0.455 0.096,-0.454C0.095,-0.453 0.093,-0.451 0.092,-0.45C0.091,-0.449 0.089,-0.447 0.086,-0.446C0.084,-0.444 0.082,-0.442 0.08,-0.439C0.079,-0.437 0.077,-0.435 0.076,-0.432C0.074,-0.429 0.073,-0.427 0.072,-0.424C0.072,-0.422 0.072,-0.42 0.073,-0.418L0.074,-0.406C0.074,-0.403 0.074,-0.4 0.073,-0.397C0.072,-0.394 0.071,-0.391 0.07,-0.389ZM0.061,-0C0.055,0.01 0.05,0.016 0.045,0.019C0.04,0.022 0.036,0.023 0.033,0.023L0.03,0.023C0.029,0.023 0.029,0.023 0.029,0.022C0.023,0.022 0.019,0.02 0.018,0.015C0.017,0.01 0.016,0.005 0.016,0.001L0.016,-0.004C0.014,-0.035 0.013,-0.064 0.013,-0.092C0.013,-0.119 0.014,-0.143 0.015,-0.166C0.016,-0.188 0.018,-0.207 0.019,-0.224C0.021,-0.243 0.023,-0.261 0.026,-0.277C0.027,-0.281 0.028,-0.284 0.028,-0.286L0.028,-0.29C0.028,-0.291 0.028,-0.293 0.029,-0.295C0.03,-0.299 0.033,-0.301 0.038,-0.302L0.042,-0.302C0.043,-0.302 0.045,-0.302 0.047,-0.303C0.048,-0.303 0.05,-0.303 0.052,-0.303C0.055,-0.303 0.058,-0.303 0.061,-0.302C0.064,-0.301 0.066,-0.3 0.067,-0.299L0.067,-0.298C0.067,-0.297 0.067,-0.297 0.068,-0.297C0.068,-0.296 0.068,-0.295 0.068,-0.294C0.068,-0.29 0.067,-0.284 0.064,-0.276L0.062,-0.272C0.061,-0.269 0.06,-0.267 0.06,-0.265C0.057,-0.251 0.055,-0.236 0.052,-0.219C0.05,-0.205 0.048,-0.189 0.047,-0.17C0.045,-0.151 0.044,-0.132 0.044,-0.112C0.044,-0.097 0.045,-0.083 0.046,-0.068C0.047,-0.053 0.049,-0.038 0.052,-0.024C0.052,-0.023 0.052,-0.021 0.053,-0.02C0.054,-0.017 0.056,-0.016 0.058,-0.016L0.06,-0.014C0.062,-0.012 0.063,-0.01 0.063,-0.008C0.063,-0.005 0.062,-0.002 0.061,-0Z"
                        style="fill:current;" />
                </g>
                <g transform="matrix(307.939,-237.082,237.082,307.939,51194.7,2729.7)">
                    <path
                        d="M0.211,0.011C0.206,0.02 0.2,0.025 0.195,0.027C0.189,0.029 0.184,0.03 0.181,0.03L0.178,0.03C0.173,0.029 0.17,0.026 0.167,0.02C0.164,0.013 0.162,0.006 0.161,-0.003C0.159,-0.012 0.158,-0.021 0.158,-0.032C0.157,-0.042 0.157,-0.051 0.157,-0.06L0.157,-0.083C0.157,-0.086 0.157,-0.089 0.158,-0.092C0.159,-0.112 0.16,-0.129 0.16,-0.144L0.16,-0.183C0.16,-0.196 0.16,-0.206 0.16,-0.214C0.159,-0.221 0.159,-0.227 0.158,-0.231C0.157,-0.236 0.157,-0.239 0.157,-0.241C0.157,-0.244 0.156,-0.246 0.154,-0.246L0.149,-0.241C0.146,-0.237 0.141,-0.226 0.135,-0.207C0.128,-0.188 0.122,-0.168 0.115,-0.147C0.108,-0.122 0.099,-0.095 0.09,-0.065C0.087,-0.052 0.083,-0.04 0.079,-0.029C0.075,-0.018 0.071,-0.008 0.068,0.001C0.064,0.011 0.06,0.02 0.056,0.028C0.053,0.035 0.048,0.038 0.043,0.038L0.039,0.038C0.038,0.038 0.038,0.038 0.037,0.037C0.032,0.036 0.028,0.032 0.025,0.025C0.022,0.018 0.019,0.011 0.018,0.003C0.016,-0.006 0.015,-0.017 0.014,-0.028C0.013,-0.034 0.013,-0.041 0.013,-0.048C0.012,-0.055 0.012,-0.063 0.012,-0.071C0.012,-0.083 0.012,-0.095 0.013,-0.108C0.013,-0.121 0.013,-0.132 0.014,-0.143C0.015,-0.155 0.016,-0.167 0.017,-0.178C0.018,-0.201 0.02,-0.222 0.023,-0.241C0.026,-0.26 0.028,-0.276 0.03,-0.29C0.033,-0.307 0.035,-0.322 0.038,-0.335C0.038,-0.336 0.039,-0.336 0.04,-0.337C0.041,-0.338 0.043,-0.338 0.044,-0.339C0.045,-0.34 0.046,-0.34 0.048,-0.34C0.053,-0.34 0.059,-0.337 0.066,-0.332L0.067,-0.332C0.068,-0.332 0.068,-0.331 0.069,-0.33C0.069,-0.329 0.069,-0.325 0.069,-0.318C0.069,-0.309 0.068,-0.295 0.066,-0.276C0.064,-0.256 0.06,-0.226 0.053,-0.186C0.051,-0.173 0.049,-0.159 0.048,-0.146C0.047,-0.135 0.046,-0.122 0.045,-0.109C0.044,-0.095 0.043,-0.082 0.043,-0.069L0.043,-0.053C0.043,-0.051 0.043,-0.049 0.044,-0.048C0.045,-0.045 0.047,-0.043 0.049,-0.043C0.05,-0.043 0.052,-0.045 0.055,-0.049C0.059,-0.057 0.063,-0.067 0.067,-0.079C0.074,-0.099 0.083,-0.128 0.094,-0.166C0.102,-0.192 0.11,-0.216 0.117,-0.238C0.124,-0.257 0.131,-0.274 0.138,-0.29C0.145,-0.306 0.151,-0.315 0.156,-0.318L0.158,-0.318C0.159,-0.318 0.159,-0.318 0.16,-0.319C0.161,-0.319 0.162,-0.319 0.163,-0.319C0.166,-0.319 0.168,-0.319 0.171,-0.318C0.174,-0.317 0.177,-0.315 0.18,-0.312C0.182,-0.31 0.184,-0.305 0.186,-0.298C0.187,-0.292 0.189,-0.283 0.19,-0.272C0.191,-0.261 0.192,-0.245 0.192,-0.226C0.192,-0.218 0.192,-0.209 0.192,-0.2C0.191,-0.191 0.191,-0.18 0.19,-0.169C0.189,-0.166 0.189,-0.162 0.189,-0.158L0.189,-0.129C0.189,-0.12 0.189,-0.111 0.19,-0.102C0.19,-0.092 0.19,-0.083 0.191,-0.074C0.192,-0.065 0.193,-0.056 0.194,-0.049C0.195,-0.042 0.196,-0.036 0.198,-0.032C0.199,-0.031 0.199,-0.03 0.2,-0.029C0.201,-0.027 0.203,-0.026 0.206,-0.026C0.207,-0.026 0.209,-0.027 0.212,-0.028C0.213,-0.028 0.213,-0.028 0.214,-0.029C0.215,-0.03 0.217,-0.031 0.218,-0.031C0.219,-0.031 0.221,-0.03 0.222,-0.029C0.222,-0.028 0.222,-0.028 0.223,-0.027C0.223,-0.026 0.223,-0.026 0.224,-0.025C0.224,-0.024 0.224,-0.022 0.224,-0.021C0.224,-0.018 0.223,-0.014 0.222,-0.009C0.22,-0.004 0.216,0.003 0.211,0.011Z"
                        style="fill:current;" />
                </g>
                <g transform="matrix(327.423,-209.352,209.352,327.423,51270.9,2671.45)">
                    <path
                        d="M0.175,0.054C0.178,0.029 0.181,0.005 0.182,-0.018C0.183,-0.041 0.183,-0.062 0.184,-0.082C0.171,-0.071 0.16,-0.058 0.152,-0.045C0.143,-0.031 0.136,-0.018 0.131,-0.006C0.124,0.008 0.119,0.022 0.116,0.036C0.11,0.061 0.106,0.086 0.103,0.109C0.1,0.132 0.099,0.154 0.099,0.174C0.099,0.198 0.1,0.22 0.103,0.24C0.105,0.259 0.108,0.276 0.111,0.289C0.114,0.305 0.119,0.319 0.124,0.331C0.127,0.338 0.129,0.344 0.132,0.348C0.134,0.351 0.136,0.354 0.138,0.356C0.141,0.359 0.143,0.36 0.144,0.36C0.147,0.359 0.15,0.356 0.152,0.349C0.154,0.342 0.156,0.335 0.157,0.328C0.158,0.32 0.158,0.312 0.159,0.305L0.159,0.287C0.16,0.266 0.161,0.242 0.163,0.215C0.164,0.188 0.166,0.163 0.168,0.139C0.171,0.111 0.173,0.083 0.175,0.054ZM0.129,-0.208L0.134,-0.222C0.135,-0.224 0.135,-0.226 0.135,-0.228C0.135,-0.235 0.133,-0.242 0.129,-0.247C0.127,-0.25 0.125,-0.251 0.124,-0.252C0.119,-0.252 0.115,-0.249 0.11,-0.243C0.105,-0.237 0.1,-0.23 0.095,-0.223C0.09,-0.214 0.084,-0.205 0.079,-0.194C0.068,-0.173 0.059,-0.155 0.053,-0.139C0.047,-0.123 0.042,-0.109 0.039,-0.098C0.036,-0.085 0.033,-0.074 0.032,-0.064L0.032,-0.061C0.032,-0.058 0.033,-0.056 0.034,-0.056C0.035,-0.056 0.037,-0.057 0.039,-0.059C0.041,-0.06 0.043,-0.062 0.046,-0.065C0.049,-0.067 0.052,-0.07 0.055,-0.074C0.058,-0.077 0.062,-0.082 0.067,-0.089C0.072,-0.096 0.078,-0.106 0.085,-0.117C0.09,-0.126 0.097,-0.138 0.104,-0.154C0.111,-0.168 0.12,-0.187 0.129,-0.208ZM0.23,-0.146L0.245,-0.147C0.254,-0.147 0.263,-0.145 0.274,-0.142C0.284,-0.139 0.289,-0.132 0.289,-0.121L0.289,-0.12C0.288,-0.117 0.287,-0.115 0.285,-0.114C0.283,-0.113 0.281,-0.112 0.28,-0.112L0.27,-0.112C0.252,-0.112 0.235,-0.109 0.218,-0.102C0.217,-0.082 0.216,-0.061 0.215,-0.038C0.214,-0.014 0.212,0.01 0.21,0.036C0.205,0.072 0.202,0.107 0.199,0.142C0.196,0.172 0.194,0.203 0.192,0.236C0.19,0.268 0.189,0.296 0.189,0.32C0.188,0.332 0.187,0.343 0.185,0.353C0.184,0.362 0.181,0.37 0.178,0.379C0.175,0.388 0.17,0.394 0.164,0.397L0.156,0.401C0.154,0.402 0.152,0.404 0.15,0.405C0.148,0.406 0.146,0.408 0.145,0.409C0.144,0.41 0.144,0.41 0.143,0.41L0.138,0.41C0.134,0.41 0.129,0.408 0.124,0.405C0.118,0.401 0.112,0.392 0.106,0.379C0.099,0.362 0.092,0.343 0.087,0.321C0.082,0.302 0.077,0.28 0.074,0.254C0.07,0.228 0.068,0.199 0.068,0.167C0.068,0.152 0.069,0.137 0.07,0.122C0.071,0.107 0.072,0.091 0.075,0.074C0.08,0.047 0.088,0.02 0.098,-0.006C0.107,-0.028 0.118,-0.05 0.132,-0.073C0.146,-0.096 0.164,-0.114 0.186,-0.128C0.186,-0.145 0.186,-0.159 0.186,-0.172C0.185,-0.185 0.185,-0.196 0.184,-0.205C0.183,-0.216 0.183,-0.225 0.182,-0.232C0.182,-0.235 0.181,-0.236 0.18,-0.236C0.179,-0.236 0.178,-0.235 0.177,-0.234C0.176,-0.233 0.176,-0.233 0.176,-0.232C0.161,-0.196 0.146,-0.165 0.132,-0.138C0.117,-0.111 0.104,-0.089 0.093,-0.071C0.08,-0.05 0.067,-0.032 0.055,-0.018C0.044,-0.005 0.035,0.003 0.03,0.006C0.024,0.009 0.02,0.01 0.019,0.01L0.017,0.01C0.013,0.01 0.009,0.007 0.005,0.002C0.003,-0.001 0.001,-0.004 0,-0.007C-0.001,-0.01 -0.002,-0.012 -0.003,-0.014L-0.003,-0.023C-0.002,-0.024 -0.002,-0.025 -0.002,-0.026C-0.001,-0.027 -0.001,-0.027 0,-0.028C0.001,-0.029 0.001,-0.029 0.001,-0.03L0.001,-0.036C0.001,-0.054 0.005,-0.075 0.012,-0.099C0.019,-0.123 0.026,-0.146 0.035,-0.167C0.045,-0.192 0.056,-0.218 0.069,-0.245C0.076,-0.258 0.082,-0.267 0.089,-0.274C0.095,-0.281 0.1,-0.286 0.105,-0.289C0.11,-0.292 0.115,-0.295 0.12,-0.296L0.121,-0.296C0.124,-0.296 0.128,-0.295 0.135,-0.293C0.142,-0.291 0.148,-0.285 0.153,-0.276C0.153,-0.275 0.153,-0.275 0.154,-0.274C0.154,-0.273 0.155,-0.273 0.156,-0.273C0.158,-0.273 0.159,-0.274 0.16,-0.277C0.162,-0.28 0.164,-0.284 0.167,-0.288C0.169,-0.291 0.171,-0.295 0.173,-0.3C0.174,-0.304 0.176,-0.308 0.177,-0.312C0.178,-0.314 0.179,-0.316 0.181,-0.319C0.182,-0.32 0.184,-0.322 0.187,-0.324C0.19,-0.325 0.193,-0.326 0.196,-0.326C0.199,-0.325 0.202,-0.324 0.205,-0.321C0.21,-0.316 0.214,-0.305 0.216,-0.288C0.217,-0.281 0.217,-0.273 0.218,-0.264C0.219,-0.256 0.219,-0.246 0.22,-0.235C0.22,-0.224 0.22,-0.21 0.22,-0.195L0.22,-0.171C0.22,-0.162 0.22,-0.153 0.219,-0.144C0.221,-0.145 0.223,-0.145 0.225,-0.146C0.226,-0.146 0.228,-0.146 0.23,-0.146Z"
                        style="fill:current;" />
                </g>
            </g>
            <g transform="matrix(1,0,0,1,-361.21,706.988)">
                <g transform="matrix(573.808,-37.0126,37.0126,573.808,48451.5,5771.01)">
                    <path
                        d="M-0.005,-0.7C0.016,-0.7 0.034,-0.699 0.05,-0.7C0.065,-0.7 0.078,-0.7 0.088,-0.7L0.116,-0.7C0.123,-0.701 0.132,-0.701 0.143,-0.701L0.176,-0.701C0.189,-0.701 0.204,-0.701 0.221,-0.7C0.226,-0.682 0.232,-0.664 0.239,-0.647C0.246,-0.63 0.252,-0.614 0.257,-0.601C0.263,-0.584 0.27,-0.569 0.276,-0.555C0.283,-0.54 0.291,-0.523 0.3,-0.503C0.308,-0.486 0.317,-0.465 0.328,-0.441C0.339,-0.417 0.352,-0.389 0.367,-0.357C0.374,-0.378 0.381,-0.396 0.387,-0.413C0.393,-0.43 0.399,-0.445 0.403,-0.457C0.409,-0.471 0.413,-0.484 0.416,-0.496C0.419,-0.508 0.423,-0.522 0.427,-0.539C0.43,-0.553 0.434,-0.571 0.438,-0.591C0.442,-0.611 0.447,-0.634 0.451,-0.661L0.502,-0.661C0.517,-0.661 0.53,-0.661 0.541,-0.662C0.553,-0.662 0.564,-0.662 0.574,-0.663C0.585,-0.663 0.599,-0.664 0.616,-0.665C0.631,-0.666 0.651,-0.667 0.676,-0.668C0.701,-0.669 0.732,-0.671 0.77,-0.673C0.756,-0.663 0.745,-0.653 0.737,-0.644C0.729,-0.635 0.722,-0.626 0.718,-0.619C0.713,-0.611 0.709,-0.603 0.708,-0.595C0.707,-0.588 0.706,-0.573 0.705,-0.55C0.704,-0.526 0.703,-0.499 0.702,-0.466C0.701,-0.434 0.7,-0.4 0.7,-0.363C0.699,-0.327 0.7,-0.292 0.7,-0.26C0.701,-0.227 0.702,-0.199 0.704,-0.175C0.705,-0.152 0.708,-0.136 0.711,-0.13C0.715,-0.122 0.722,-0.113 0.729,-0.103C0.737,-0.093 0.746,-0.083 0.757,-0.071C0.769,-0.06 0.784,-0.047 0.803,-0.032C0.773,-0.031 0.748,-0.03 0.728,-0.029C0.708,-0.029 0.692,-0.028 0.679,-0.027C0.664,-0.027 0.652,-0.026 0.643,-0.026C0.633,-0.026 0.619,-0.026 0.603,-0.025C0.588,-0.025 0.568,-0.024 0.543,-0.023C0.518,-0.022 0.486,-0.021 0.447,-0.019C0.456,-0.029 0.465,-0.039 0.473,-0.05C0.48,-0.06 0.487,-0.07 0.492,-0.078C0.499,-0.088 0.504,-0.097 0.509,-0.106C0.513,-0.119 0.517,-0.141 0.52,-0.174C0.522,-0.202 0.524,-0.242 0.525,-0.294C0.527,-0.347 0.527,-0.417 0.525,-0.506C0.513,-0.486 0.502,-0.466 0.493,-0.446C0.483,-0.426 0.475,-0.408 0.468,-0.392C0.46,-0.373 0.453,-0.354 0.446,-0.337C0.44,-0.319 0.433,-0.299 0.426,-0.276C0.419,-0.257 0.412,-0.235 0.403,-0.209C0.394,-0.183 0.384,-0.154 0.373,-0.123L0.336,-0.121C0.331,-0.147 0.326,-0.171 0.32,-0.192C0.315,-0.213 0.31,-0.231 0.305,-0.246C0.299,-0.264 0.293,-0.279 0.287,-0.293C0.281,-0.307 0.273,-0.322 0.266,-0.339C0.258,-0.353 0.25,-0.37 0.24,-0.39C0.23,-0.409 0.218,-0.431 0.205,-0.455C0.199,-0.389 0.195,-0.335 0.193,-0.293C0.192,-0.252 0.192,-0.22 0.193,-0.197C0.195,-0.17 0.197,-0.15 0.199,-0.138C0.203,-0.127 0.209,-0.114 0.218,-0.101C0.225,-0.089 0.235,-0.075 0.248,-0.059C0.26,-0.043 0.277,-0.025 0.297,-0.006L0.252,-0.006C0.236,-0.006 0.222,-0.006 0.209,-0.005C0.193,-0.004 0.178,-0.004 0.163,-0.004C0.147,-0.003 0.129,-0.002 0.108,-0.001C0.09,0 0.068,0.002 0.043,0.003C0.018,0.004 -0.012,0.007 -0.045,0.01C-0.031,0.001 -0.019,-0.008 -0.01,-0.017C-0.001,-0.026 0.007,-0.034 0.012,-0.041C0.018,-0.049 0.023,-0.058 0.026,-0.066C0.028,-0.072 0.03,-0.083 0.032,-0.101C0.033,-0.118 0.035,-0.14 0.037,-0.165C0.038,-0.19 0.04,-0.219 0.041,-0.25C0.042,-0.281 0.042,-0.313 0.043,-0.345C0.044,-0.377 0.045,-0.409 0.046,-0.44C0.047,-0.471 0.047,-0.499 0.047,-0.524C0.048,-0.549 0.048,-0.57 0.048,-0.587L0.048,-0.619C0.046,-0.629 0.043,-0.639 0.039,-0.648C0.036,-0.657 0.031,-0.666 0.023,-0.675C0.016,-0.684 0.007,-0.692 -0.005,-0.7Z"
                        style="fill:current;" />
                </g>
                <g transform="matrix(571.54,-62.9869,62.9869,571.54,48903.3,5740.41)">
                    <path
                        d="M0.269,-0.157C0.287,-0.157 0.304,-0.159 0.319,-0.163C0.332,-0.166 0.345,-0.172 0.357,-0.179C0.369,-0.187 0.377,-0.198 0.381,-0.213C0.394,-0.21 0.405,-0.208 0.414,-0.207C0.423,-0.205 0.431,-0.203 0.438,-0.202C0.445,-0.2 0.451,-0.199 0.456,-0.198C0.461,-0.197 0.467,-0.196 0.475,-0.194C0.481,-0.193 0.489,-0.192 0.499,-0.19C0.508,-0.188 0.519,-0.186 0.532,-0.184C0.522,-0.185 0.513,-0.184 0.502,-0.181C0.492,-0.177 0.483,-0.174 0.474,-0.17C0.463,-0.165 0.453,-0.16 0.444,-0.153C0.438,-0.149 0.432,-0.144 0.424,-0.136C0.417,-0.128 0.406,-0.12 0.393,-0.113C0.379,-0.106 0.361,-0.1 0.338,-0.095C0.316,-0.09 0.287,-0.089 0.252,-0.09C0.21,-0.091 0.174,-0.099 0.146,-0.113C0.117,-0.127 0.094,-0.144 0.076,-0.165C0.059,-0.185 0.046,-0.207 0.038,-0.231C0.03,-0.256 0.026,-0.278 0.025,-0.299C0.025,-0.32 0.031,-0.341 0.044,-0.364C0.057,-0.387 0.075,-0.408 0.099,-0.427C0.123,-0.446 0.152,-0.461 0.186,-0.473C0.219,-0.485 0.257,-0.491 0.297,-0.491C0.32,-0.491 0.342,-0.488 0.362,-0.483C0.382,-0.477 0.4,-0.47 0.417,-0.461C0.433,-0.452 0.448,-0.442 0.46,-0.43C0.472,-0.419 0.483,-0.407 0.491,-0.396C0.5,-0.383 0.507,-0.37 0.513,-0.356C0.518,-0.345 0.522,-0.331 0.525,-0.316C0.529,-0.301 0.53,-0.286 0.528,-0.271C0.479,-0.269 0.439,-0.268 0.409,-0.268C0.378,-0.267 0.355,-0.267 0.338,-0.267L0.261,-0.267C0.249,-0.267 0.234,-0.266 0.215,-0.266C0.196,-0.265 0.173,-0.264 0.146,-0.263C0.149,-0.237 0.157,-0.217 0.17,-0.203C0.184,-0.189 0.198,-0.178 0.213,-0.171C0.23,-0.163 0.248,-0.159 0.269,-0.157ZM0.181,-0.333C0.201,-0.332 0.219,-0.331 0.233,-0.33C0.247,-0.329 0.258,-0.329 0.268,-0.328C0.277,-0.327 0.285,-0.327 0.291,-0.327L0.315,-0.327C0.332,-0.327 0.362,-0.328 0.406,-0.33C0.404,-0.359 0.398,-0.381 0.388,-0.396C0.378,-0.41 0.368,-0.422 0.356,-0.429C0.343,-0.437 0.329,-0.441 0.313,-0.442C0.271,-0.442 0.24,-0.433 0.219,-0.416C0.199,-0.399 0.186,-0.371 0.181,-0.333Z"
                        style="fill:current;" />
                </g>
                <g transform="matrix(568.031,-89.2523,89.2523,568.031,49219.4,5706.11)">
                    <path
                        d="M0.561,-0.347C0.553,-0.348 0.543,-0.349 0.532,-0.35C0.52,-0.35 0.509,-0.351 0.499,-0.351C0.487,-0.351 0.475,-0.35 0.462,-0.35C0.448,-0.349 0.435,-0.348 0.421,-0.348C0.409,-0.347 0.396,-0.346 0.381,-0.345C0.367,-0.344 0.353,-0.343 0.339,-0.342C0.344,-0.344 0.349,-0.348 0.353,-0.353C0.357,-0.357 0.361,-0.362 0.364,-0.366C0.368,-0.371 0.37,-0.377 0.373,-0.383C0.376,-0.393 0.376,-0.404 0.372,-0.418C0.368,-0.432 0.361,-0.445 0.351,-0.457C0.341,-0.469 0.328,-0.478 0.313,-0.485C0.298,-0.492 0.281,-0.493 0.263,-0.489C0.243,-0.485 0.226,-0.478 0.21,-0.469C0.195,-0.46 0.182,-0.447 0.172,-0.431C0.162,-0.415 0.155,-0.396 0.151,-0.373C0.147,-0.349 0.146,-0.322 0.147,-0.29C0.15,-0.25 0.157,-0.219 0.167,-0.195C0.177,-0.172 0.19,-0.154 0.205,-0.143C0.22,-0.131 0.236,-0.124 0.254,-0.122C0.272,-0.119 0.29,-0.119 0.308,-0.121C0.32,-0.124 0.331,-0.129 0.342,-0.138C0.35,-0.145 0.358,-0.155 0.365,-0.169C0.372,-0.183 0.376,-0.201 0.375,-0.226L0.494,-0.23C0.48,-0.192 0.464,-0.162 0.444,-0.139C0.425,-0.117 0.406,-0.099 0.388,-0.087C0.366,-0.073 0.345,-0.063 0.323,-0.058C0.297,-0.053 0.273,-0.051 0.252,-0.052C0.231,-0.053 0.212,-0.056 0.195,-0.062C0.178,-0.067 0.163,-0.073 0.148,-0.081C0.134,-0.089 0.12,-0.097 0.107,-0.106C0.099,-0.112 0.09,-0.122 0.079,-0.136C0.069,-0.149 0.059,-0.166 0.05,-0.185C0.041,-0.204 0.033,-0.226 0.027,-0.249C0.021,-0.272 0.019,-0.297 0.021,-0.322C0.022,-0.347 0.028,-0.372 0.038,-0.397C0.049,-0.423 0.065,-0.447 0.088,-0.471C0.122,-0.506 0.159,-0.529 0.199,-0.54C0.238,-0.55 0.275,-0.553 0.311,-0.548C0.346,-0.543 0.377,-0.533 0.404,-0.518C0.432,-0.502 0.451,-0.485 0.462,-0.467C0.473,-0.449 0.481,-0.435 0.487,-0.425C0.492,-0.416 0.497,-0.409 0.5,-0.404C0.502,-0.399 0.505,-0.395 0.507,-0.393L0.529,-0.373C0.533,-0.37 0.538,-0.366 0.543,-0.361C0.548,-0.357 0.554,-0.352 0.561,-0.347Z"
                        style="fill:current;" />
                </g>
                <g transform="matrix(562.287,-120.243,120.243,562.287,49521,5659.55)">
                    <path
                        d="M0.01,-0.74C0.025,-0.738 0.038,-0.736 0.051,-0.735C0.063,-0.734 0.074,-0.733 0.082,-0.732C0.092,-0.732 0.1,-0.731 0.107,-0.731C0.117,-0.732 0.129,-0.733 0.142,-0.734C0.153,-0.736 0.166,-0.737 0.182,-0.739C0.198,-0.741 0.216,-0.744 0.237,-0.747C0.228,-0.742 0.219,-0.737 0.213,-0.732C0.206,-0.727 0.201,-0.722 0.197,-0.717C0.193,-0.711 0.189,-0.705 0.187,-0.7C0.183,-0.692 0.18,-0.674 0.176,-0.647C0.172,-0.625 0.167,-0.591 0.162,-0.546C0.156,-0.501 0.149,-0.44 0.141,-0.363C0.164,-0.387 0.186,-0.404 0.208,-0.417C0.229,-0.429 0.247,-0.437 0.264,-0.442C0.283,-0.448 0.3,-0.451 0.316,-0.451C0.337,-0.449 0.357,-0.443 0.378,-0.432C0.4,-0.421 0.419,-0.409 0.438,-0.395C0.457,-0.38 0.473,-0.365 0.487,-0.349C0.501,-0.332 0.511,-0.318 0.517,-0.306C0.521,-0.297 0.522,-0.286 0.522,-0.273C0.522,-0.26 0.521,-0.245 0.519,-0.229C0.516,-0.214 0.512,-0.198 0.508,-0.182C0.503,-0.165 0.499,-0.15 0.495,-0.136C0.49,-0.121 0.487,-0.109 0.483,-0.098C0.48,-0.087 0.478,-0.08 0.478,-0.075C0.476,-0.065 0.477,-0.056 0.479,-0.047C0.481,-0.039 0.485,-0.031 0.491,-0.022C0.497,-0.013 0.506,-0.006 0.518,-0C0.508,-0.001 0.499,-0.002 0.489,-0.003C0.479,-0.004 0.469,-0.005 0.46,-0.006C0.45,-0.007 0.439,-0.007 0.429,-0.007L0.394,-0.007C0.382,-0.007 0.37,-0.007 0.355,-0.006C0.341,-0.006 0.326,-0.006 0.309,-0.005C0.318,-0.008 0.326,-0.013 0.332,-0.018C0.339,-0.024 0.344,-0.029 0.349,-0.034C0.354,-0.04 0.358,-0.046 0.362,-0.053C0.365,-0.058 0.368,-0.068 0.372,-0.083C0.376,-0.097 0.38,-0.114 0.383,-0.133C0.386,-0.153 0.389,-0.173 0.39,-0.194C0.392,-0.216 0.392,-0.236 0.391,-0.256C0.39,-0.276 0.387,-0.294 0.382,-0.31C0.377,-0.325 0.37,-0.337 0.36,-0.344C0.331,-0.366 0.305,-0.377 0.281,-0.376C0.257,-0.376 0.234,-0.367 0.213,-0.348C0.205,-0.34 0.198,-0.333 0.19,-0.326C0.184,-0.32 0.177,-0.312 0.169,-0.303C0.161,-0.294 0.154,-0.285 0.147,-0.276C0.147,-0.267 0.148,-0.256 0.148,-0.244C0.149,-0.232 0.15,-0.221 0.15,-0.21C0.151,-0.198 0.152,-0.185 0.153,-0.173C0.155,-0.154 0.157,-0.135 0.159,-0.117C0.161,-0.102 0.164,-0.084 0.167,-0.066C0.17,-0.047 0.174,-0.031 0.18,-0.016C0.171,-0.017 0.162,-0.017 0.153,-0.017C0.144,-0.017 0.135,-0.017 0.127,-0.017C0.117,-0.016 0.108,-0.016 0.099,-0.016C0.09,-0.015 0.081,-0.014 0.072,-0.013C0.064,-0.011 0.056,-0.01 0.047,-0.009C0.038,-0.008 0.029,-0.007 0.021,-0.005C0.028,-0.02 0.035,-0.035 0.04,-0.049C0.045,-0.064 0.049,-0.077 0.053,-0.088C0.057,-0.101 0.06,-0.114 0.063,-0.126C0.064,-0.136 0.066,-0.154 0.067,-0.182C0.068,-0.21 0.069,-0.242 0.069,-0.278C0.07,-0.314 0.07,-0.352 0.07,-0.393C0.07,-0.433 0.07,-0.471 0.069,-0.508C0.069,-0.544 0.068,-0.576 0.066,-0.604C0.064,-0.631 0.063,-0.65 0.061,-0.66C0.058,-0.671 0.054,-0.681 0.05,-0.691C0.046,-0.701 0.041,-0.709 0.034,-0.718C0.028,-0.727 0.02,-0.734 0.01,-0.74Z"
                        style="fill:current;" />
                </g>
                <g transform="matrix(567.533,-92.3647,92.3647,567.533,49832.4,5581.56)">
                    <path
                        d="M0.088,-0.396C0.091,-0.399 0.093,-0.407 0.094,-0.417C0.095,-0.428 0.098,-0.44 0.102,-0.454C0.106,-0.468 0.114,-0.482 0.124,-0.497C0.134,-0.512 0.151,-0.526 0.175,-0.539C0.198,-0.552 0.22,-0.56 0.241,-0.563C0.263,-0.565 0.283,-0.564 0.303,-0.56C0.322,-0.555 0.341,-0.548 0.358,-0.538C0.375,-0.528 0.391,-0.518 0.405,-0.506C0.415,-0.498 0.423,-0.487 0.429,-0.472C0.435,-0.458 0.439,-0.441 0.442,-0.423C0.446,-0.405 0.448,-0.386 0.45,-0.366C0.451,-0.346 0.452,-0.327 0.453,-0.308C0.454,-0.29 0.454,-0.273 0.455,-0.257C0.455,-0.242 0.456,-0.229 0.458,-0.22C0.461,-0.205 0.465,-0.193 0.472,-0.183C0.478,-0.173 0.485,-0.165 0.493,-0.158C0.501,-0.151 0.509,-0.146 0.517,-0.142C0.524,-0.138 0.531,-0.135 0.537,-0.133C0.541,-0.131 0.545,-0.13 0.548,-0.129C0.554,-0.126 0.559,-0.126 0.562,-0.129C0.558,-0.12 0.554,-0.112 0.551,-0.105C0.548,-0.099 0.545,-0.093 0.543,-0.089C0.54,-0.084 0.538,-0.079 0.536,-0.076C0.534,-0.072 0.532,-0.069 0.529,-0.065C0.527,-0.062 0.525,-0.059 0.521,-0.055C0.518,-0.051 0.515,-0.047 0.512,-0.042C0.503,-0.045 0.495,-0.049 0.488,-0.054C0.48,-0.058 0.474,-0.063 0.468,-0.066C0.461,-0.071 0.454,-0.076 0.448,-0.08C0.442,-0.085 0.437,-0.09 0.432,-0.096C0.427,-0.101 0.422,-0.106 0.417,-0.112C0.413,-0.118 0.409,-0.125 0.405,-0.132C0.401,-0.123 0.392,-0.111 0.377,-0.096C0.363,-0.08 0.344,-0.066 0.32,-0.053C0.297,-0.041 0.27,-0.032 0.239,-0.026C0.208,-0.021 0.174,-0.025 0.137,-0.037C0.12,-0.042 0.105,-0.05 0.091,-0.06C0.076,-0.07 0.064,-0.082 0.054,-0.097C0.044,-0.111 0.037,-0.127 0.033,-0.146C0.028,-0.165 0.029,-0.185 0.033,-0.208C0.038,-0.231 0.046,-0.25 0.058,-0.266C0.069,-0.281 0.083,-0.294 0.1,-0.304C0.116,-0.313 0.134,-0.321 0.154,-0.326C0.174,-0.331 0.195,-0.335 0.217,-0.337C0.234,-0.338 0.251,-0.337 0.268,-0.334C0.282,-0.331 0.297,-0.327 0.313,-0.32C0.328,-0.313 0.341,-0.303 0.353,-0.289C0.352,-0.324 0.351,-0.351 0.349,-0.372C0.347,-0.392 0.346,-0.408 0.345,-0.419C0.342,-0.432 0.34,-0.441 0.338,-0.446C0.335,-0.451 0.331,-0.456 0.328,-0.462C0.324,-0.468 0.32,-0.473 0.314,-0.478C0.309,-0.483 0.303,-0.487 0.295,-0.49C0.287,-0.493 0.278,-0.495 0.268,-0.494C0.257,-0.493 0.248,-0.491 0.241,-0.485C0.235,-0.48 0.23,-0.474 0.226,-0.467C0.222,-0.46 0.22,-0.453 0.22,-0.445C0.219,-0.438 0.219,-0.431 0.221,-0.425C0.222,-0.421 0.224,-0.417 0.227,-0.412C0.229,-0.408 0.233,-0.404 0.237,-0.399C0.242,-0.395 0.248,-0.391 0.256,-0.388C0.241,-0.386 0.228,-0.384 0.216,-0.383C0.204,-0.382 0.194,-0.381 0.186,-0.38C0.176,-0.379 0.167,-0.378 0.16,-0.377C0.153,-0.376 0.145,-0.375 0.135,-0.373C0.126,-0.372 0.116,-0.37 0.104,-0.368C0.091,-0.366 0.077,-0.364 0.061,-0.36C0.064,-0.365 0.068,-0.369 0.071,-0.374C0.075,-0.378 0.077,-0.382 0.08,-0.385C0.083,-0.389 0.085,-0.392 0.088,-0.396ZM0.234,-0.279C0.223,-0.279 0.211,-0.276 0.199,-0.271C0.188,-0.266 0.177,-0.259 0.168,-0.25C0.159,-0.242 0.151,-0.232 0.145,-0.22C0.139,-0.209 0.136,-0.196 0.136,-0.183C0.136,-0.169 0.139,-0.157 0.146,-0.147C0.153,-0.137 0.162,-0.129 0.173,-0.122C0.185,-0.116 0.197,-0.112 0.21,-0.11C0.224,-0.109 0.237,-0.11 0.25,-0.114C0.262,-0.119 0.274,-0.126 0.285,-0.136C0.296,-0.146 0.306,-0.157 0.313,-0.169C0.321,-0.181 0.327,-0.194 0.33,-0.206C0.333,-0.218 0.334,-0.228 0.331,-0.235C0.326,-0.252 0.314,-0.264 0.296,-0.271C0.278,-0.278 0.257,-0.281 0.234,-0.279Z"
                        style="fill:current;" />
                </g>
                <g transform="matrix(574.152,-31.2144,31.2144,574.152,50136.9,5532.47)">
                    <path
                        d="M0.045,-0.107C0.049,-0.129 0.053,-0.148 0.055,-0.165C0.057,-0.181 0.059,-0.195 0.061,-0.206C0.062,-0.219 0.063,-0.23 0.063,-0.239C0.062,-0.25 0.061,-0.264 0.061,-0.279C0.061,-0.294 0.06,-0.309 0.059,-0.325C0.058,-0.34 0.057,-0.354 0.056,-0.366C0.054,-0.378 0.053,-0.386 0.051,-0.392C0.048,-0.397 0.045,-0.402 0.04,-0.408C0.031,-0.419 0.018,-0.43 0,-0.44C0.015,-0.444 0.028,-0.446 0.039,-0.449C0.049,-0.451 0.058,-0.453 0.065,-0.455C0.073,-0.458 0.08,-0.46 0.086,-0.462C0.091,-0.464 0.097,-0.466 0.104,-0.468C0.11,-0.469 0.118,-0.471 0.126,-0.473C0.134,-0.475 0.144,-0.477 0.155,-0.479L0.152,-0.391C0.173,-0.415 0.194,-0.434 0.216,-0.446C0.237,-0.459 0.257,-0.467 0.276,-0.473C0.298,-0.479 0.319,-0.482 0.34,-0.482C0.366,-0.481 0.39,-0.477 0.413,-0.47C0.435,-0.463 0.455,-0.454 0.471,-0.445C0.488,-0.435 0.501,-0.425 0.512,-0.415C0.522,-0.405 0.528,-0.396 0.53,-0.388C0.538,-0.362 0.54,-0.339 0.536,-0.318C0.532,-0.297 0.527,-0.276 0.521,-0.256C0.515,-0.236 0.51,-0.217 0.505,-0.197C0.501,-0.178 0.503,-0.157 0.51,-0.134C0.512,-0.128 0.515,-0.122 0.518,-0.116C0.52,-0.111 0.523,-0.106 0.527,-0.101C0.531,-0.095 0.536,-0.091 0.541,-0.088C0.534,-0.089 0.527,-0.089 0.52,-0.089C0.512,-0.09 0.506,-0.09 0.5,-0.091C0.493,-0.091 0.486,-0.092 0.48,-0.093C0.474,-0.093 0.465,-0.094 0.454,-0.094C0.435,-0.094 0.406,-0.093 0.366,-0.091C0.372,-0.104 0.377,-0.116 0.38,-0.125C0.384,-0.135 0.387,-0.143 0.39,-0.148C0.392,-0.156 0.394,-0.161 0.396,-0.165C0.403,-0.184 0.408,-0.205 0.41,-0.229C0.411,-0.254 0.41,-0.278 0.404,-0.303C0.402,-0.311 0.399,-0.321 0.395,-0.333C0.39,-0.345 0.384,-0.356 0.376,-0.367C0.369,-0.378 0.36,-0.388 0.35,-0.396C0.34,-0.403 0.328,-0.408 0.315,-0.409C0.302,-0.41 0.288,-0.407 0.272,-0.399C0.256,-0.392 0.239,-0.377 0.221,-0.356C0.207,-0.339 0.196,-0.317 0.188,-0.292C0.181,-0.271 0.176,-0.244 0.174,-0.211C0.171,-0.179 0.175,-0.142 0.186,-0.099C0.176,-0.1 0.168,-0.101 0.16,-0.101C0.152,-0.101 0.146,-0.102 0.141,-0.103C0.134,-0.103 0.128,-0.104 0.123,-0.104C0.117,-0.104 0.111,-0.105 0.104,-0.105C0.097,-0.105 0.089,-0.106 0.079,-0.106C0.069,-0.106 0.058,-0.107 0.045,-0.107Z"
                        style="fill:current;" />
                </g>
                <g transform="matrix(574.992,3.09581,-3.09581,574.992,50474.4,5517.96)">
                    <path
                        d="M0.015,-0.437L0.194,-0.435C0.184,-0.395 0.176,-0.361 0.171,-0.333C0.167,-0.305 0.163,-0.282 0.162,-0.263C0.16,-0.241 0.159,-0.223 0.16,-0.208C0.162,-0.194 0.165,-0.18 0.17,-0.164C0.174,-0.151 0.18,-0.136 0.188,-0.119C0.195,-0.102 0.206,-0.085 0.219,-0.068C0.211,-0.071 0.202,-0.073 0.193,-0.074C0.184,-0.076 0.176,-0.076 0.168,-0.077C0.159,-0.078 0.15,-0.078 0.141,-0.077C0.132,-0.076 0.121,-0.076 0.11,-0.074C0.101,-0.073 0.09,-0.071 0.077,-0.069C0.064,-0.067 0.05,-0.065 0.036,-0.062C0.046,-0.091 0.054,-0.116 0.059,-0.138C0.065,-0.159 0.069,-0.177 0.071,-0.191C0.074,-0.208 0.076,-0.222 0.076,-0.232L0.076,-0.325C0.076,-0.341 0.076,-0.355 0.075,-0.367C0.075,-0.379 0.073,-0.386 0.071,-0.39L0.062,-0.399C0.058,-0.403 0.052,-0.407 0.044,-0.414C0.037,-0.42 0.027,-0.427 0.015,-0.437ZM0.084,-0.587C0.098,-0.594 0.111,-0.596 0.125,-0.593C0.139,-0.59 0.15,-0.583 0.158,-0.574C0.166,-0.565 0.169,-0.554 0.167,-0.542C0.164,-0.53 0.154,-0.518 0.135,-0.506C0.116,-0.495 0.099,-0.491 0.085,-0.494C0.071,-0.497 0.061,-0.504 0.055,-0.515C0.049,-0.525 0.048,-0.537 0.052,-0.551C0.056,-0.565 0.066,-0.577 0.084,-0.587Z"
                        style="fill:current;" />
                </g>
                <g transform="matrix(574.319,27.9725,-27.9725,574.319,50611.2,5516.78)">
                    <path
                        d="M0.561,-0.347C0.553,-0.348 0.543,-0.349 0.532,-0.35C0.52,-0.35 0.509,-0.351 0.499,-0.351C0.487,-0.351 0.475,-0.35 0.462,-0.35C0.448,-0.349 0.435,-0.348 0.421,-0.348C0.409,-0.347 0.396,-0.346 0.381,-0.345C0.367,-0.344 0.353,-0.343 0.339,-0.342C0.344,-0.344 0.349,-0.348 0.353,-0.353C0.357,-0.357 0.361,-0.362 0.364,-0.366C0.368,-0.371 0.37,-0.377 0.373,-0.383C0.376,-0.393 0.376,-0.404 0.372,-0.418C0.368,-0.432 0.361,-0.445 0.351,-0.457C0.341,-0.469 0.328,-0.478 0.313,-0.485C0.298,-0.492 0.281,-0.493 0.263,-0.489C0.243,-0.485 0.226,-0.478 0.21,-0.469C0.195,-0.46 0.182,-0.447 0.172,-0.431C0.162,-0.415 0.155,-0.396 0.151,-0.373C0.147,-0.349 0.146,-0.322 0.147,-0.29C0.15,-0.25 0.157,-0.219 0.167,-0.195C0.177,-0.172 0.19,-0.154 0.205,-0.143C0.22,-0.131 0.236,-0.124 0.254,-0.122C0.272,-0.119 0.29,-0.119 0.308,-0.121C0.32,-0.124 0.331,-0.129 0.342,-0.138C0.35,-0.145 0.358,-0.155 0.365,-0.169C0.372,-0.183 0.376,-0.201 0.375,-0.226L0.494,-0.23C0.48,-0.192 0.464,-0.162 0.444,-0.139C0.425,-0.117 0.406,-0.099 0.388,-0.087C0.366,-0.073 0.345,-0.063 0.323,-0.058C0.297,-0.053 0.273,-0.051 0.252,-0.052C0.231,-0.053 0.212,-0.056 0.195,-0.062C0.178,-0.067 0.163,-0.073 0.148,-0.081C0.134,-0.089 0.12,-0.097 0.107,-0.106C0.099,-0.112 0.09,-0.122 0.079,-0.136C0.069,-0.149 0.059,-0.166 0.05,-0.185C0.041,-0.204 0.033,-0.226 0.027,-0.249C0.021,-0.272 0.019,-0.297 0.021,-0.322C0.022,-0.347 0.028,-0.372 0.038,-0.397C0.049,-0.423 0.065,-0.447 0.088,-0.471C0.122,-0.506 0.159,-0.529 0.199,-0.54C0.238,-0.55 0.275,-0.553 0.311,-0.548C0.346,-0.543 0.377,-0.533 0.404,-0.518C0.432,-0.502 0.451,-0.485 0.462,-0.467C0.473,-0.449 0.481,-0.435 0.487,-0.425C0.492,-0.416 0.497,-0.409 0.5,-0.404C0.502,-0.399 0.505,-0.395 0.507,-0.393L0.529,-0.373C0.533,-0.37 0.538,-0.366 0.543,-0.361C0.548,-0.357 0.554,-0.352 0.561,-0.347Z"
                        style="fill:current;" />
                </g>
                <g transform="matrix(572.377,54.8611,-54.8611,572.377,50916.5,5531.07)">
                    <path
                        d="M0.088,-0.396C0.091,-0.399 0.093,-0.407 0.094,-0.417C0.095,-0.428 0.098,-0.44 0.102,-0.454C0.106,-0.468 0.114,-0.482 0.124,-0.497C0.134,-0.512 0.151,-0.526 0.175,-0.539C0.198,-0.552 0.22,-0.56 0.241,-0.563C0.263,-0.565 0.283,-0.564 0.303,-0.56C0.322,-0.555 0.341,-0.548 0.358,-0.538C0.375,-0.528 0.391,-0.518 0.405,-0.506C0.415,-0.498 0.423,-0.487 0.429,-0.472C0.435,-0.458 0.439,-0.441 0.442,-0.423C0.446,-0.405 0.448,-0.386 0.45,-0.366C0.451,-0.346 0.452,-0.327 0.453,-0.308C0.454,-0.29 0.454,-0.273 0.455,-0.257C0.455,-0.242 0.456,-0.229 0.458,-0.22C0.461,-0.205 0.465,-0.193 0.472,-0.183C0.478,-0.173 0.485,-0.165 0.493,-0.158C0.501,-0.151 0.509,-0.146 0.517,-0.142C0.524,-0.138 0.531,-0.135 0.537,-0.133C0.541,-0.131 0.545,-0.13 0.548,-0.129C0.554,-0.126 0.559,-0.126 0.562,-0.129C0.558,-0.12 0.554,-0.112 0.551,-0.105C0.548,-0.099 0.545,-0.093 0.543,-0.089C0.54,-0.084 0.538,-0.079 0.536,-0.076C0.534,-0.072 0.532,-0.069 0.529,-0.065C0.527,-0.062 0.525,-0.059 0.521,-0.055C0.518,-0.051 0.515,-0.047 0.512,-0.042C0.503,-0.045 0.495,-0.049 0.488,-0.054C0.48,-0.058 0.474,-0.063 0.468,-0.066C0.461,-0.071 0.454,-0.076 0.448,-0.08C0.442,-0.085 0.437,-0.09 0.432,-0.096C0.427,-0.101 0.422,-0.106 0.417,-0.112C0.413,-0.118 0.409,-0.125 0.405,-0.132C0.401,-0.123 0.392,-0.111 0.377,-0.096C0.363,-0.08 0.344,-0.066 0.32,-0.053C0.297,-0.041 0.27,-0.032 0.239,-0.026C0.208,-0.021 0.174,-0.025 0.137,-0.037C0.12,-0.042 0.105,-0.05 0.091,-0.06C0.076,-0.07 0.064,-0.082 0.054,-0.097C0.044,-0.111 0.037,-0.127 0.033,-0.146C0.028,-0.165 0.029,-0.185 0.033,-0.208C0.038,-0.231 0.046,-0.25 0.058,-0.266C0.069,-0.281 0.083,-0.294 0.1,-0.304C0.116,-0.313 0.134,-0.321 0.154,-0.326C0.174,-0.331 0.195,-0.335 0.217,-0.337C0.234,-0.338 0.251,-0.337 0.268,-0.334C0.282,-0.331 0.297,-0.327 0.313,-0.32C0.328,-0.313 0.341,-0.303 0.353,-0.289C0.352,-0.324 0.351,-0.351 0.349,-0.372C0.347,-0.392 0.346,-0.408 0.345,-0.419C0.342,-0.432 0.34,-0.441 0.338,-0.446C0.335,-0.451 0.331,-0.456 0.328,-0.462C0.324,-0.468 0.32,-0.473 0.314,-0.478C0.309,-0.483 0.303,-0.487 0.295,-0.49C0.287,-0.493 0.278,-0.495 0.268,-0.494C0.257,-0.493 0.248,-0.491 0.241,-0.485C0.235,-0.48 0.23,-0.474 0.226,-0.467C0.222,-0.46 0.22,-0.453 0.22,-0.445C0.219,-0.438 0.219,-0.431 0.221,-0.425C0.222,-0.421 0.224,-0.417 0.227,-0.412C0.229,-0.408 0.233,-0.404 0.237,-0.399C0.242,-0.395 0.248,-0.391 0.256,-0.388C0.241,-0.386 0.228,-0.384 0.216,-0.383C0.204,-0.382 0.194,-0.381 0.186,-0.38C0.176,-0.379 0.167,-0.378 0.16,-0.377C0.153,-0.376 0.145,-0.375 0.135,-0.373C0.126,-0.372 0.116,-0.37 0.104,-0.368C0.091,-0.366 0.077,-0.364 0.061,-0.36C0.064,-0.365 0.068,-0.369 0.071,-0.374C0.075,-0.378 0.077,-0.382 0.08,-0.385C0.083,-0.389 0.085,-0.392 0.088,-0.396ZM0.234,-0.279C0.223,-0.279 0.211,-0.276 0.199,-0.271C0.188,-0.266 0.177,-0.259 0.168,-0.25C0.159,-0.242 0.151,-0.232 0.145,-0.22C0.139,-0.209 0.136,-0.196 0.136,-0.183C0.136,-0.169 0.139,-0.157 0.146,-0.147C0.153,-0.137 0.162,-0.129 0.173,-0.122C0.185,-0.116 0.197,-0.112 0.21,-0.11C0.224,-0.109 0.237,-0.11 0.25,-0.114C0.262,-0.119 0.274,-0.126 0.285,-0.136C0.296,-0.146 0.306,-0.157 0.313,-0.169C0.321,-0.181 0.327,-0.194 0.33,-0.206C0.333,-0.218 0.334,-0.228 0.331,-0.235C0.326,-0.252 0.314,-0.264 0.296,-0.271C0.278,-0.278 0.257,-0.281 0.234,-0.279Z"
                        style="fill:current;" />
                </g>
                <g transform="matrix(570.428,72.3646,-72.3646,570.428,51224,5561.68)">
                    <path
                        d="M0.037,0.027C0.044,0.018 0.049,0.008 0.053,-0C0.057,-0.008 0.06,-0.016 0.063,-0.021C0.065,-0.029 0.067,-0.035 0.068,-0.041C0.069,-0.045 0.069,-0.056 0.069,-0.075C0.069,-0.094 0.069,-0.118 0.068,-0.146C0.067,-0.175 0.066,-0.207 0.065,-0.243C0.064,-0.279 0.063,-0.315 0.061,-0.353C0.059,-0.39 0.058,-0.426 0.056,-0.461C0.055,-0.496 0.053,-0.528 0.052,-0.556C0.05,-0.584 0.049,-0.608 0.048,-0.626C0.047,-0.644 0.046,-0.655 0.045,-0.657C0.044,-0.661 0.041,-0.665 0.038,-0.669C0.032,-0.677 0.021,-0.684 0.005,-0.691C0.038,-0.7 0.063,-0.707 0.081,-0.712C0.091,-0.715 0.101,-0.717 0.108,-0.72C0.116,-0.722 0.123,-0.725 0.13,-0.728C0.136,-0.73 0.142,-0.733 0.149,-0.737C0.157,-0.74 0.163,-0.744 0.169,-0.749C0.166,-0.73 0.163,-0.712 0.161,-0.694C0.159,-0.677 0.158,-0.66 0.156,-0.646C0.155,-0.629 0.154,-0.612 0.154,-0.597C0.151,-0.565 0.149,-0.53 0.149,-0.493C0.149,-0.455 0.149,-0.417 0.149,-0.379C0.15,-0.34 0.151,-0.303 0.153,-0.267C0.155,-0.23 0.157,-0.197 0.16,-0.167C0.162,-0.138 0.164,-0.113 0.167,-0.092C0.169,-0.072 0.171,-0.059 0.172,-0.053C0.174,-0.043 0.177,-0.034 0.18,-0.024C0.182,-0.017 0.185,-0.008 0.188,0C0.192,0.009 0.196,0.016 0.2,0.021L0.105,0.021C0.097,0.021 0.089,0.022 0.081,0.022C0.074,0.023 0.066,0.024 0.059,0.024C0.051,0.025 0.044,0.026 0.037,0.027Z"
                        style="fill:current;" />
                </g>
            </g>
            <g transform="matrix(0.987369,0.15844,-0.15844,0.987369,1579.52,-7893.12)">
                <g transform="matrix(578.252,-278.137,278.137,578.252,48620,7357.22)">
                    <path
                        d="M-0.035,-0.699C-0.01,-0.693 0.012,-0.689 0.032,-0.686C0.052,-0.683 0.068,-0.681 0.082,-0.68C0.098,-0.678 0.113,-0.677 0.125,-0.678C0.141,-0.678 0.16,-0.681 0.184,-0.685C0.207,-0.688 0.232,-0.692 0.258,-0.696C0.284,-0.7 0.31,-0.703 0.335,-0.706C0.36,-0.709 0.382,-0.709 0.401,-0.707C0.42,-0.705 0.44,-0.701 0.461,-0.694C0.482,-0.687 0.501,-0.678 0.52,-0.667C0.538,-0.655 0.554,-0.641 0.567,-0.625C0.58,-0.609 0.589,-0.59 0.592,-0.568C0.595,-0.548 0.593,-0.525 0.586,-0.501C0.579,-0.478 0.567,-0.455 0.552,-0.432C0.536,-0.41 0.517,-0.389 0.493,-0.37C0.47,-0.351 0.444,-0.336 0.415,-0.324C0.392,-0.316 0.368,-0.309 0.341,-0.305C0.318,-0.301 0.292,-0.298 0.261,-0.297C0.231,-0.296 0.199,-0.299 0.165,-0.307C0.16,-0.288 0.158,-0.27 0.158,-0.254C0.157,-0.238 0.158,-0.224 0.159,-0.212C0.161,-0.198 0.164,-0.185 0.167,-0.173C0.171,-0.161 0.176,-0.147 0.182,-0.132C0.187,-0.119 0.193,-0.103 0.2,-0.084C0.207,-0.066 0.215,-0.045 0.225,-0.022C0.213,-0.022 0.201,-0.022 0.19,-0.022C0.179,-0.022 0.169,-0.021 0.16,-0.021C0.15,-0.02 0.14,-0.019 0.131,-0.019C0.12,-0.018 0.109,-0.017 0.096,-0.015C0.085,-0.013 0.071,-0.011 0.054,-0.009C0.038,-0.006 0.019,-0.003 -0.002,0.001C0.012,-0.019 0.023,-0.037 0.031,-0.053C0.039,-0.07 0.045,-0.084 0.049,-0.097C0.053,-0.111 0.056,-0.124 0.058,-0.136C0.058,-0.146 0.058,-0.163 0.058,-0.188C0.058,-0.212 0.057,-0.241 0.057,-0.273C0.056,-0.306 0.055,-0.34 0.054,-0.376C0.052,-0.412 0.051,-0.445 0.049,-0.477C0.047,-0.509 0.045,-0.536 0.042,-0.559C0.04,-0.581 0.038,-0.596 0.036,-0.604C0.034,-0.612 0.029,-0.621 0.022,-0.631C0.017,-0.639 0.01,-0.649 0,-0.661C-0.009,-0.672 -0.021,-0.685 -0.035,-0.699ZM0.167,-0.507C0.166,-0.5 0.166,-0.493 0.166,-0.486C0.166,-0.473 0.167,-0.455 0.169,-0.434C0.174,-0.423 0.179,-0.413 0.186,-0.406C0.193,-0.399 0.2,-0.394 0.208,-0.39C0.217,-0.386 0.225,-0.383 0.233,-0.382C0.242,-0.381 0.25,-0.38 0.259,-0.38C0.278,-0.381 0.299,-0.385 0.32,-0.394C0.349,-0.406 0.369,-0.424 0.381,-0.446C0.393,-0.469 0.399,-0.493 0.399,-0.517C0.4,-0.541 0.396,-0.563 0.387,-0.583C0.378,-0.603 0.368,-0.617 0.355,-0.624C0.345,-0.629 0.332,-0.631 0.315,-0.63C0.301,-0.629 0.283,-0.626 0.262,-0.619C0.24,-0.613 0.214,-0.601 0.183,-0.584C0.179,-0.572 0.177,-0.562 0.175,-0.553C0.173,-0.544 0.171,-0.535 0.17,-0.528C0.169,-0.521 0.168,-0.513 0.167,-0.507Z"
                        style="fill:current;" />
                </g>
                <g transform="matrix(589.905,-252.484,252.484,589.905,48958.3,7197.44)">
                    <path
                        d="M0.037,0.027C0.044,0.018 0.049,0.008 0.053,-0C0.057,-0.008 0.06,-0.016 0.063,-0.021C0.065,-0.029 0.067,-0.035 0.068,-0.041C0.069,-0.045 0.069,-0.056 0.069,-0.075C0.069,-0.094 0.069,-0.118 0.068,-0.146C0.067,-0.175 0.066,-0.207 0.065,-0.243C0.064,-0.279 0.063,-0.315 0.061,-0.353C0.059,-0.39 0.058,-0.426 0.056,-0.461C0.055,-0.496 0.053,-0.528 0.052,-0.556C0.05,-0.584 0.049,-0.608 0.048,-0.626C0.047,-0.644 0.046,-0.655 0.045,-0.657C0.044,-0.661 0.041,-0.665 0.038,-0.669C0.032,-0.677 0.021,-0.684 0.005,-0.691C0.038,-0.7 0.063,-0.707 0.081,-0.712C0.091,-0.715 0.101,-0.717 0.108,-0.72C0.116,-0.722 0.123,-0.725 0.13,-0.728C0.136,-0.73 0.142,-0.733 0.149,-0.737C0.157,-0.74 0.163,-0.744 0.169,-0.749C0.166,-0.73 0.163,-0.712 0.161,-0.694C0.159,-0.677 0.158,-0.66 0.156,-0.646C0.155,-0.629 0.154,-0.612 0.154,-0.597C0.151,-0.565 0.149,-0.53 0.149,-0.493C0.149,-0.455 0.149,-0.417 0.149,-0.379C0.15,-0.34 0.151,-0.303 0.153,-0.267C0.155,-0.23 0.157,-0.197 0.16,-0.167C0.162,-0.138 0.164,-0.113 0.167,-0.092C0.169,-0.072 0.171,-0.059 0.172,-0.053C0.174,-0.043 0.177,-0.034 0.18,-0.024C0.182,-0.017 0.185,-0.008 0.188,0C0.192,0.009 0.196,0.016 0.2,0.021L0.105,0.021C0.097,0.021 0.089,0.022 0.081,0.022C0.074,0.023 0.066,0.024 0.059,0.024C0.051,0.025 0.044,0.026 0.037,0.027Z"
                        style="fill:current;" />
                </g>
                <g transform="matrix(602.698,-220.206,220.206,602.698,49088,7138.6)">
                    <path
                        d="M0.02,-0.449C0.036,-0.446 0.051,-0.444 0.064,-0.442C0.077,-0.44 0.088,-0.439 0.097,-0.438C0.107,-0.436 0.116,-0.435 0.124,-0.435C0.132,-0.434 0.141,-0.433 0.151,-0.433C0.169,-0.432 0.194,-0.432 0.226,-0.433C0.207,-0.434 0.192,-0.429 0.181,-0.418C0.17,-0.408 0.162,-0.396 0.157,-0.382C0.151,-0.366 0.147,-0.347 0.146,-0.325C0.145,-0.297 0.146,-0.271 0.149,-0.248C0.152,-0.224 0.157,-0.205 0.166,-0.189C0.174,-0.173 0.185,-0.161 0.198,-0.154C0.212,-0.146 0.229,-0.144 0.251,-0.147C0.272,-0.151 0.289,-0.158 0.3,-0.17C0.312,-0.182 0.32,-0.197 0.325,-0.215C0.33,-0.233 0.333,-0.254 0.334,-0.276C0.335,-0.299 0.336,-0.323 0.337,-0.348C0.337,-0.372 0.337,-0.39 0.336,-0.401C0.336,-0.412 0.336,-0.419 0.335,-0.422C0.334,-0.425 0.333,-0.427 0.332,-0.426C0.331,-0.426 0.329,-0.427 0.327,-0.431C0.326,-0.433 0.324,-0.436 0.321,-0.438C0.319,-0.441 0.317,-0.444 0.313,-0.448C0.31,-0.451 0.307,-0.455 0.303,-0.459C0.32,-0.458 0.335,-0.458 0.348,-0.458C0.361,-0.457 0.373,-0.457 0.382,-0.456C0.392,-0.455 0.401,-0.455 0.409,-0.454C0.416,-0.453 0.426,-0.452 0.438,-0.451C0.447,-0.45 0.46,-0.449 0.476,-0.447C0.491,-0.446 0.51,-0.444 0.531,-0.441C0.516,-0.438 0.504,-0.433 0.495,-0.427C0.486,-0.42 0.479,-0.414 0.474,-0.407C0.468,-0.4 0.464,-0.392 0.461,-0.384C0.459,-0.373 0.459,-0.356 0.461,-0.333C0.462,-0.313 0.465,-0.285 0.471,-0.25C0.476,-0.215 0.484,-0.169 0.495,-0.111L0.418,-0.065L0.402,-0.195C0.383,-0.163 0.363,-0.139 0.342,-0.122C0.321,-0.104 0.301,-0.092 0.283,-0.084C0.262,-0.075 0.241,-0.07 0.221,-0.068C0.194,-0.068 0.171,-0.07 0.152,-0.074C0.133,-0.077 0.116,-0.082 0.103,-0.088C0.089,-0.094 0.078,-0.1 0.07,-0.108C0.062,-0.115 0.056,-0.123 0.052,-0.131C0.043,-0.147 0.038,-0.168 0.037,-0.194C0.036,-0.22 0.037,-0.245 0.04,-0.271C0.043,-0.297 0.046,-0.32 0.049,-0.342C0.052,-0.363 0.053,-0.378 0.052,-0.386C0.05,-0.392 0.049,-0.398 0.046,-0.405C0.043,-0.411 0.04,-0.418 0.036,-0.425C0.032,-0.433 0.027,-0.441 0.02,-0.449Z"
                        style="fill:current;" />
                </g>
                <g transform="matrix(631.462,-113.983,113.983,631.462,49405.1,7006.03)">
                    <path
                        d="M0.01,-0.463C0.025,-0.464 0.038,-0.465 0.048,-0.467C0.059,-0.468 0.068,-0.469 0.075,-0.471C0.084,-0.472 0.091,-0.473 0.097,-0.475C0.103,-0.475 0.109,-0.477 0.116,-0.479C0.123,-0.48 0.13,-0.482 0.138,-0.484C0.146,-0.486 0.155,-0.489 0.165,-0.492L0.159,-0.368C0.174,-0.391 0.19,-0.408 0.209,-0.42C0.228,-0.432 0.246,-0.441 0.263,-0.447C0.283,-0.454 0.303,-0.459 0.323,-0.46C0.344,-0.459 0.363,-0.456 0.381,-0.45C0.396,-0.445 0.411,-0.437 0.426,-0.426C0.442,-0.415 0.453,-0.398 0.462,-0.377C0.484,-0.4 0.506,-0.417 0.528,-0.43C0.55,-0.443 0.569,-0.452 0.586,-0.459C0.606,-0.466 0.625,-0.47 0.643,-0.472C0.666,-0.472 0.688,-0.468 0.708,-0.46C0.727,-0.451 0.745,-0.441 0.76,-0.428C0.775,-0.416 0.787,-0.402 0.796,-0.388C0.805,-0.374 0.81,-0.362 0.812,-0.352C0.813,-0.337 0.813,-0.319 0.809,-0.296C0.805,-0.274 0.8,-0.251 0.795,-0.228C0.79,-0.205 0.785,-0.184 0.781,-0.165C0.777,-0.145 0.775,-0.132 0.775,-0.124C0.777,-0.118 0.782,-0.11 0.789,-0.101C0.796,-0.093 0.805,-0.083 0.818,-0.072C0.831,-0.06 0.849,-0.047 0.873,-0.032C0.852,-0.033 0.834,-0.034 0.818,-0.034C0.802,-0.035 0.788,-0.036 0.777,-0.037C0.764,-0.038 0.753,-0.039 0.743,-0.04C0.735,-0.04 0.726,-0.041 0.715,-0.042C0.706,-0.043 0.694,-0.044 0.679,-0.045C0.665,-0.046 0.648,-0.048 0.629,-0.049C0.636,-0.051 0.642,-0.055 0.646,-0.06C0.651,-0.066 0.655,-0.071 0.658,-0.076C0.661,-0.083 0.664,-0.09 0.666,-0.098C0.667,-0.104 0.669,-0.115 0.67,-0.129C0.671,-0.143 0.672,-0.16 0.673,-0.178C0.674,-0.196 0.675,-0.215 0.675,-0.235C0.676,-0.256 0.675,-0.275 0.675,-0.293C0.674,-0.311 0.673,-0.328 0.671,-0.343C0.669,-0.358 0.666,-0.369 0.663,-0.377C0.66,-0.383 0.656,-0.388 0.649,-0.391C0.643,-0.395 0.635,-0.397 0.627,-0.398C0.618,-0.399 0.61,-0.399 0.602,-0.397C0.593,-0.395 0.586,-0.393 0.579,-0.389C0.573,-0.384 0.565,-0.378 0.556,-0.37C0.547,-0.363 0.536,-0.353 0.522,-0.341C0.509,-0.328 0.492,-0.313 0.471,-0.294C0.469,-0.253 0.467,-0.22 0.466,-0.195C0.465,-0.17 0.465,-0.151 0.464,-0.138C0.463,-0.122 0.463,-0.111 0.463,-0.105C0.462,-0.1 0.463,-0.095 0.464,-0.091C0.465,-0.081 0.469,-0.072 0.476,-0.063C0.468,-0.065 0.459,-0.067 0.451,-0.067C0.442,-0.068 0.434,-0.069 0.427,-0.069C0.418,-0.07 0.41,-0.07 0.401,-0.07C0.394,-0.07 0.386,-0.07 0.378,-0.069C0.371,-0.069 0.362,-0.068 0.352,-0.067C0.341,-0.066 0.33,-0.065 0.317,-0.063C0.323,-0.067 0.327,-0.071 0.33,-0.075C0.333,-0.08 0.336,-0.084 0.338,-0.088C0.34,-0.092 0.342,-0.097 0.344,-0.101C0.344,-0.104 0.346,-0.114 0.348,-0.129C0.35,-0.145 0.351,-0.163 0.352,-0.184C0.352,-0.204 0.352,-0.226 0.352,-0.25C0.351,-0.273 0.349,-0.294 0.345,-0.313C0.341,-0.332 0.335,-0.348 0.327,-0.36C0.319,-0.373 0.308,-0.378 0.295,-0.377C0.279,-0.376 0.263,-0.372 0.247,-0.365C0.233,-0.36 0.219,-0.352 0.203,-0.342C0.188,-0.331 0.173,-0.317 0.159,-0.3C0.157,-0.251 0.155,-0.212 0.155,-0.184C0.154,-0.155 0.155,-0.133 0.155,-0.118C0.156,-0.101 0.157,-0.089 0.157,-0.082C0.158,-0.077 0.16,-0.073 0.162,-0.068C0.164,-0.064 0.167,-0.06 0.169,-0.055C0.172,-0.049 0.176,-0.045 0.18,-0.04L0.024,-0.048C0.03,-0.05 0.034,-0.054 0.038,-0.058C0.042,-0.062 0.045,-0.067 0.048,-0.071C0.05,-0.076 0.053,-0.082 0.056,-0.087C0.058,-0.091 0.059,-0.102 0.061,-0.119C0.063,-0.136 0.064,-0.156 0.065,-0.179C0.067,-0.202 0.068,-0.227 0.069,-0.252C0.07,-0.278 0.07,-0.302 0.071,-0.325C0.071,-0.347 0.071,-0.366 0.071,-0.382C0.071,-0.398 0.071,-0.408 0.07,-0.411C0.068,-0.418 0.065,-0.424 0.06,-0.432C0.055,-0.437 0.049,-0.443 0.041,-0.449C0.033,-0.455 0.023,-0.46 0.01,-0.463Z"
                        style="fill:current;" />
                </g>
                <g transform="matrix(633.15,-104.198,104.198,633.15,49953.1,6927.71)">
                    <path
                        d="M0.015,-0.686C0.03,-0.682 0.043,-0.679 0.056,-0.677C0.069,-0.676 0.08,-0.674 0.089,-0.674C0.1,-0.673 0.11,-0.673 0.119,-0.673C0.128,-0.673 0.14,-0.674 0.153,-0.675C0.177,-0.677 0.212,-0.682 0.256,-0.689C0.249,-0.684 0.242,-0.679 0.236,-0.674C0.23,-0.669 0.224,-0.665 0.22,-0.66L0.205,-0.646C0.197,-0.634 0.188,-0.614 0.18,-0.586C0.173,-0.562 0.165,-0.528 0.157,-0.484C0.149,-0.441 0.141,-0.383 0.135,-0.311C0.167,-0.342 0.197,-0.365 0.225,-0.381C0.253,-0.397 0.278,-0.409 0.3,-0.416C0.325,-0.424 0.348,-0.428 0.369,-0.429C0.396,-0.427 0.419,-0.421 0.439,-0.413C0.459,-0.404 0.476,-0.393 0.49,-0.381C0.504,-0.369 0.515,-0.357 0.524,-0.344C0.533,-0.332 0.539,-0.32 0.544,-0.311C0.547,-0.304 0.549,-0.292 0.55,-0.275C0.552,-0.258 0.552,-0.238 0.551,-0.216C0.549,-0.194 0.546,-0.17 0.541,-0.146C0.535,-0.122 0.526,-0.099 0.514,-0.079C0.502,-0.058 0.486,-0.041 0.467,-0.027C0.448,-0.014 0.424,-0.006 0.396,-0.005C0.362,-0.005 0.33,-0.009 0.299,-0.017C0.272,-0.023 0.244,-0.035 0.214,-0.051C0.185,-0.068 0.16,-0.092 0.139,-0.123L0.139,-0.1C0.139,-0.093 0.139,-0.086 0.14,-0.081C0.14,-0.074 0.141,-0.068 0.142,-0.063C0.142,-0.057 0.144,-0.05 0.146,-0.044C0.148,-0.039 0.152,-0.032 0.156,-0.025C0.16,-0.017 0.166,-0.01 0.173,-0.003C0.166,-0.004 0.159,-0.004 0.151,-0.004C0.144,-0.005 0.137,-0.005 0.13,-0.004C0.122,-0.003 0.114,-0.003 0.106,-0.002C0.099,-0.001 0.09,-0 0.082,0.001C0.075,0.002 0.066,0.004 0.057,0.006C0.047,0.008 0.037,0.01 0.026,0.013C0.028,0.007 0.03,-0.002 0.031,-0.013C0.033,-0.025 0.034,-0.037 0.036,-0.051C0.037,-0.065 0.039,-0.08 0.04,-0.096C0.041,-0.111 0.042,-0.127 0.043,-0.143C0.046,-0.178 0.048,-0.217 0.05,-0.26C0.052,-0.326 0.052,-0.387 0.051,-0.443C0.05,-0.467 0.049,-0.492 0.047,-0.517C0.046,-0.541 0.044,-0.565 0.041,-0.586C0.038,-0.608 0.035,-0.628 0.031,-0.645C0.027,-0.662 0.021,-0.676 0.015,-0.686ZM0.142,-0.21C0.152,-0.191 0.163,-0.175 0.175,-0.162C0.187,-0.148 0.198,-0.137 0.21,-0.128C0.222,-0.119 0.233,-0.112 0.245,-0.106C0.256,-0.101 0.267,-0.097 0.277,-0.095C0.301,-0.088 0.325,-0.088 0.349,-0.093C0.372,-0.099 0.39,-0.112 0.403,-0.132C0.416,-0.151 0.426,-0.174 0.434,-0.198C0.437,-0.21 0.439,-0.225 0.44,-0.243C0.441,-0.261 0.439,-0.279 0.434,-0.296C0.429,-0.314 0.421,-0.329 0.408,-0.342C0.396,-0.356 0.378,-0.364 0.354,-0.366C0.338,-0.366 0.319,-0.362 0.298,-0.353C0.279,-0.345 0.257,-0.332 0.23,-0.314C0.204,-0.296 0.175,-0.27 0.142,-0.234L0.142,-0.21Z"
                        style="fill:current;" />
                </g>
                <g transform="matrix(620.988,-161.585,161.585,620.988,50321.7,6866.57)">
                    <path
                        d="M0.02,-0.449C0.036,-0.446 0.051,-0.444 0.064,-0.442C0.077,-0.44 0.088,-0.439 0.097,-0.438C0.107,-0.436 0.116,-0.435 0.124,-0.435C0.132,-0.434 0.141,-0.433 0.151,-0.433C0.169,-0.432 0.194,-0.432 0.226,-0.433C0.207,-0.434 0.192,-0.429 0.181,-0.418C0.17,-0.408 0.162,-0.396 0.157,-0.382C0.151,-0.366 0.147,-0.347 0.146,-0.325C0.145,-0.297 0.146,-0.271 0.149,-0.248C0.152,-0.224 0.157,-0.205 0.166,-0.189C0.174,-0.173 0.185,-0.161 0.198,-0.154C0.212,-0.146 0.229,-0.144 0.251,-0.147C0.272,-0.151 0.289,-0.158 0.3,-0.17C0.312,-0.182 0.32,-0.197 0.325,-0.215C0.33,-0.233 0.333,-0.254 0.334,-0.276C0.335,-0.299 0.336,-0.323 0.337,-0.348C0.337,-0.372 0.337,-0.39 0.336,-0.401C0.336,-0.412 0.336,-0.419 0.335,-0.422C0.334,-0.425 0.333,-0.427 0.332,-0.426C0.331,-0.426 0.329,-0.427 0.327,-0.431C0.326,-0.433 0.324,-0.436 0.321,-0.438C0.319,-0.441 0.317,-0.444 0.313,-0.448C0.31,-0.451 0.307,-0.455 0.303,-0.459C0.32,-0.458 0.335,-0.458 0.348,-0.458C0.361,-0.457 0.373,-0.457 0.382,-0.456C0.392,-0.455 0.401,-0.455 0.409,-0.454C0.416,-0.453 0.426,-0.452 0.438,-0.451C0.447,-0.45 0.46,-0.449 0.476,-0.447C0.491,-0.446 0.51,-0.444 0.531,-0.441C0.516,-0.438 0.504,-0.433 0.495,-0.427C0.486,-0.42 0.479,-0.414 0.474,-0.407C0.468,-0.4 0.464,-0.392 0.461,-0.384C0.459,-0.373 0.459,-0.356 0.461,-0.333C0.462,-0.313 0.465,-0.285 0.471,-0.25C0.476,-0.215 0.484,-0.169 0.495,-0.111L0.418,-0.065L0.402,-0.195C0.383,-0.163 0.363,-0.139 0.342,-0.122C0.321,-0.104 0.301,-0.092 0.283,-0.084C0.262,-0.075 0.241,-0.07 0.221,-0.068C0.194,-0.068 0.171,-0.07 0.152,-0.074C0.133,-0.077 0.116,-0.082 0.103,-0.088C0.089,-0.094 0.078,-0.1 0.07,-0.108C0.062,-0.115 0.056,-0.123 0.052,-0.131C0.043,-0.147 0.038,-0.168 0.037,-0.194C0.036,-0.22 0.037,-0.245 0.04,-0.271C0.043,-0.297 0.046,-0.32 0.049,-0.342C0.052,-0.363 0.053,-0.378 0.052,-0.386C0.05,-0.392 0.049,-0.398 0.046,-0.405C0.043,-0.411 0.04,-0.418 0.036,-0.425C0.032,-0.433 0.027,-0.441 0.02,-0.449Z"
                        style="fill:current;" />
                </g>
                <g transform="matrix(604,-216.611,216.611,604,50651.6,6780.59)">
                    <path
                        d="M0.445,-0.558C0.439,-0.543 0.434,-0.53 0.43,-0.519C0.426,-0.507 0.422,-0.496 0.419,-0.487C0.416,-0.477 0.413,-0.468 0.41,-0.46C0.408,-0.451 0.405,-0.44 0.401,-0.429C0.398,-0.418 0.394,-0.405 0.389,-0.39C0.384,-0.375 0.379,-0.357 0.372,-0.336C0.367,-0.367 0.357,-0.392 0.344,-0.411C0.33,-0.429 0.316,-0.444 0.302,-0.454C0.285,-0.466 0.267,-0.474 0.247,-0.479C0.212,-0.485 0.187,-0.485 0.171,-0.478C0.155,-0.47 0.145,-0.461 0.14,-0.45C0.137,-0.446 0.134,-0.44 0.131,-0.433C0.128,-0.426 0.126,-0.419 0.125,-0.412C0.123,-0.405 0.122,-0.398 0.123,-0.391C0.124,-0.383 0.127,-0.378 0.132,-0.373C0.135,-0.37 0.144,-0.365 0.157,-0.36C0.171,-0.354 0.187,-0.348 0.207,-0.341C0.226,-0.334 0.246,-0.327 0.268,-0.319C0.29,-0.312 0.311,-0.304 0.33,-0.296C0.35,-0.288 0.367,-0.28 0.381,-0.272C0.395,-0.265 0.405,-0.257 0.409,-0.251C0.413,-0.244 0.417,-0.236 0.422,-0.225C0.427,-0.214 0.431,-0.203 0.433,-0.19C0.435,-0.177 0.436,-0.164 0.435,-0.151C0.434,-0.138 0.43,-0.124 0.424,-0.111C0.417,-0.098 0.407,-0.086 0.393,-0.075C0.379,-0.064 0.36,-0.055 0.337,-0.048C0.31,-0.039 0.283,-0.037 0.258,-0.041C0.232,-0.045 0.209,-0.051 0.188,-0.059C0.167,-0.066 0.148,-0.074 0.133,-0.082C0.117,-0.089 0.106,-0.092 0.1,-0.091C0.092,-0.09 0.084,-0.086 0.075,-0.08C0.066,-0.074 0.057,-0.068 0.049,-0.062C0.041,-0.056 0.034,-0.05 0.028,-0.045C0.022,-0.041 0.02,-0.039 0.02,-0.04C0.02,-0.041 0.021,-0.045 0.023,-0.052C0.025,-0.058 0.028,-0.066 0.031,-0.076C0.034,-0.085 0.037,-0.096 0.04,-0.107C0.042,-0.118 0.045,-0.129 0.046,-0.14C0.047,-0.148 0.049,-0.159 0.051,-0.171C0.052,-0.182 0.054,-0.195 0.056,-0.211C0.058,-0.227 0.061,-0.247 0.064,-0.27C0.068,-0.253 0.072,-0.238 0.079,-0.226C0.085,-0.213 0.091,-0.202 0.097,-0.193C0.104,-0.183 0.111,-0.174 0.117,-0.167C0.127,-0.158 0.139,-0.149 0.152,-0.142C0.165,-0.134 0.179,-0.127 0.192,-0.122C0.206,-0.116 0.219,-0.113 0.231,-0.111C0.244,-0.11 0.254,-0.111 0.263,-0.115C0.271,-0.119 0.278,-0.126 0.285,-0.137C0.291,-0.147 0.295,-0.159 0.298,-0.171C0.3,-0.183 0.301,-0.195 0.301,-0.207C0.3,-0.218 0.297,-0.227 0.292,-0.234C0.288,-0.239 0.279,-0.245 0.265,-0.252C0.251,-0.259 0.235,-0.267 0.215,-0.275C0.196,-0.284 0.176,-0.293 0.155,-0.302C0.134,-0.311 0.114,-0.32 0.095,-0.33C0.077,-0.339 0.061,-0.348 0.049,-0.357C0.037,-0.366 0.031,-0.374 0.029,-0.381C0.028,-0.391 0.027,-0.403 0.026,-0.416C0.026,-0.428 0.027,-0.441 0.029,-0.454C0.031,-0.466 0.036,-0.479 0.042,-0.49C0.049,-0.502 0.06,-0.512 0.073,-0.52C0.082,-0.525 0.094,-0.529 0.109,-0.531C0.124,-0.534 0.141,-0.535 0.159,-0.536C0.177,-0.536 0.196,-0.535 0.216,-0.534C0.235,-0.532 0.254,-0.53 0.272,-0.528C0.29,-0.526 0.306,-0.523 0.321,-0.52C0.335,-0.516 0.347,-0.513 0.354,-0.511C0.364,-0.507 0.373,-0.507 0.384,-0.51C0.393,-0.512 0.403,-0.516 0.413,-0.522C0.424,-0.529 0.434,-0.541 0.445,-0.558Z"
                        style="fill:current;" />
                </g>
            </g>
        </g>
    </g>
</svg>
