<svg width="100%" height="100%" viewBox="0 0 6002 571" version="1.1"
    style="fill-rule:evenodd;clip-rule:evenodd;stroke-linejoin:round;stroke-miterlimit:2;">
    <g transform="matrix(1,0,0,1,-45803,-10595)">
        <g transform="matrix(30.0604,0,0,8.33333,43995.4,10095)">
            <g transform="matrix(0.0860395,0,0,0.310366,56.9563,43.4028)">
                <g transform="matrix(1,0,0,1,164.929,147.82)">
                    <path
                        d="M0,-15.91C-0.921,-16.415 -1.906,-16.536 -2.841,-16.887C-5.193,-16.6 -6.588,-14.323 -7.629,-12.331C-6.42,-8.535 -5.536,-4.749 -3.888,-1.104C-3.479,-0.915 -3.061,-0.748 -2.631,-0.614C2.429,0.977 6.504,-3.306 7.483,-7.996C6.068,-9.718 4.792,-11.557 3.262,-13.181C2.296,-14.208 1.247,-15.227 0,-15.91"
                        style="fill:current;fill-rule:nonzero;" />
                </g>
                <g transform="matrix(1,0,0,1,124.04,120.832)">
                    <path
                        d="M0,-11.989C1.843,-10.781 3.798,-9.712 5.511,-8.316C7.52,-6.68 9.108,-4.555 10.754,-2.568C15.781,3.503 20.75,9.625 25.811,15.668C27.614,17.821 29.461,19.956 31.518,21.873C32.841,23.106 34.293,24.372 35.9,25.31C34.136,22.14 33.467,18.283 32.695,14.798C32.569,14.716 32.489,14.572 32.548,14.398C33.378,11.962 35.355,9.521 37.997,9.66C40.13,9.199 42.787,11.513 44.108,12.854C45.731,14.502 47.118,16.348 48.515,18.185C48.838,15.976 48.654,13.664 47.888,11.564C47.138,9.505 45.859,7.965 44.274,6.55C39.089,5.57 34.534,1.746 31.015,-1.981C25.815,-7.488 22.163,-14.178 17.719,-20.262C15.469,-23.342 13.257,-26.271 11.645,-29.752C10.479,-32.268 9.384,-34.812 8.162,-37.299C8.113,-37.252 8.058,-37.209 7.991,-37.173C7.266,-36.78 6.554,-36.827 5.769,-36.65C4.9,-36.455 4.035,-36.184 3.228,-35.804C1.353,-34.922 -0.4,-33.759 -1.915,-32.342C-3.425,-30.927 -4.857,-29.307 -5.819,-27.462C-6.742,-25.689 -6.937,-24.051 -7.049,-22.094C-7.056,-21.966 -7.107,-21.851 -7.184,-21.757C-7.168,-21.728 -7.152,-21.698 -7.137,-21.668C-7.127,-21.653 -7.115,-21.638 -7.106,-21.622C-7.085,-21.589 -7.072,-21.556 -7.062,-21.524C-6.353,-20.161 -5.805,-18.715 -5.068,-17.349C-3.838,-15.07 -2.156,-13.401 0,-11.989"
                        style="fill:current;fill-rule:nonzero;" />
                </g>
                <g transform="matrix(1,0,0,1,168.412,110.064)">
                    <path
                        d="M0,15.728C0.086,15.761 0.17,15.798 0.255,15.834C0.532,15.877 0.812,15.911 1.092,15.927C4.319,16.113 7.032,14.334 8.564,11.513C9.42,9.936 9.752,8.203 9.682,6.462C8.042,4.724 6.252,3.188 4.081,2.071C1.521,0.754 -1.227,0.065 -4.055,-0.385C-5.252,0.114 -6.364,0.83 -7.072,1.953C-7.837,3.165 -8.118,4.471 -8.578,5.804C-8.593,5.847 -8.615,5.883 -8.64,5.914C-6.689,9.305 -3.667,11.947 -1.728,15.321C-1.28,15.482 -0.825,15.616 -0.364,15.718C-0.253,15.682 -0.129,15.678 0,15.728"
                        style="fill:current;fill-rule:nonzero;" />
                </g>
                <g transform="matrix(1,0,0,1,104.478,132.178)">
                    <path
                        d="M0,-16.325C1.776,-16.593 3.455,-16.662 4.693,-18.168C5.884,-19.617 6.281,-21.478 6.199,-23.32C6.171,-23.948 7.172,-24.092 7.301,-23.47C7.761,-21.242 7.334,-18.838 5.808,-17.082C4.423,-15.491 2.11,-14.31 0.006,-15.086C-0.52,-15.28 -0.699,-16.22 0,-16.325M-2.328,-8.02C-0.137,-6.842 1.823,-5.21 3.706,-3.6C6.24,-1.433 8.688,0.832 11.151,3.079C14.567,6.196 17.996,9.304 21.621,12.178C24.78,14.683 28.19,17.211 31.98,18.676C34.026,19.467 36.338,20 38.481,19.548C36.342,19.208 34.147,15.889 33.231,14.531C31.258,11.605 29.466,8.317 28.59,4.873C28.529,4.802 28.496,4.703 28.513,4.571C28.966,1.026 32.34,-4.162 36.506,-2.893C36.738,-2.823 36.795,-2.622 36.735,-2.457C37.209,-2.393 37.658,-2.28 38.045,-2.11C35.648,-5.028 33.255,-7.948 30.854,-10.863C28.399,-13.844 26.154,-17.283 22.941,-19.503C20.337,-21.302 17.19,-22.775 15.185,-25.303C13.368,-27.593 12.591,-30.357 11.316,-32.906C9.971,-33.999 8.714,-35.158 7.012,-35.723C5.4,-36.259 3.833,-36.325 2.186,-35.901C-1.168,-35.037 -4.458,-32.978 -6.721,-30.339C-8.402,-28.377 -9.043,-26.111 -8.751,-23.553C-8.593,-22.164 -8.256,-20.798 -7.895,-19.45C-7.517,-18.041 -6.695,-16.304 -6.971,-14.84C-6.983,-14.779 -7.006,-14.722 -7.036,-14.671C-6.354,-13.769 -5.674,-12.865 -4.996,-11.959C-4.147,-10.826 -2.707,-9.433 -2.328,-8.02"
                        style="fill:current;fill-rule:nonzero;" />
                </g>
                <g transform="matrix(1,0,0,1,143.587,149.541)">
                    <path
                        d="M0,-17.712C-1.696,-19.448 -3.969,-18.678 -6.058,-18.64C-6.067,-18.639 -6.074,-18.643 -6.083,-18.643C-7.829,-17.252 -8.911,-14.666 -9.664,-12.768C-8.605,-9.681 -7.093,-6.673 -5.278,-3.965C-3.793,-1.749 -2.14,0.455 0.477,1.309C0.697,1.381 0.779,1.563 0.75,1.736C1.028,1.611 1.302,1.471 1.568,1.302C5.08,-0.921 6.483,-5.449 7.384,-9.273C4.862,-12.077 2.533,-15.079 0.163,-17.977C0.167,-17.914 0.171,-17.85 0.169,-17.783C0.167,-17.7 0.062,-17.648 0,-17.712"
                        style="fill:current;fill-rule:nonzero;" />
                </g>
                <g transform="matrix(-0.289494,-0.95718,-0.95718,0.289494,170.698,127.163)">
                    <path
                        d="M-0.464,-3.48C-0.447,-3.506 -0.432,-3.532 -0.416,-3.558C-0.649,-2.477 -0.68,-1.355 -0.464,-0.233C-1.282,-0.671 -2.181,-0.983 -3.117,-1.186C-2.061,-1.668 -1.139,-2.436 -0.464,-3.48"
                        style="fill:current;fill-rule:nonzero;" />
                </g>
                <g transform="matrix(1,0,0,1,112.496,189.119)">
                    <path
                        d="M0,-50.739C-1.091,-47.788 -3.83,-43.206 -7.632,-44.75C-8.224,-44.991 -8.027,-45.855 -7.373,-45.726C-4.101,-45.086 -1.941,-48.518 -0.675,-51.015C-0.488,-51.384 0.146,-51.134 0,-50.739M-28.933,-81.892C-30.209,-77.102 -33.853,-72.771 -38.504,-70.953C-39.008,-70.757 -39.331,-71.56 -38.874,-71.817C-34.613,-74.208 -31.362,-77.459 -29.535,-82.052C-29.391,-82.414 -28.826,-82.291 -28.933,-81.892M-43.273,-77.733C-38.999,-79.247 -36.475,-82.913 -36.102,-87.401C-36.071,-87.78 -35.499,-87.793 -35.503,-87.401C-35.558,-82.873 -38.296,-77.693 -43.18,-77.048C-43.593,-76.993 -43.621,-77.61 -43.273,-77.733M60.91,22.21C64.535,21.676 68.514,21.06 71.669,19.066C77.417,15.432 80.347,8.552 87.187,6.518C87.579,6.402 87.717,6.975 87.352,7.119C80.63,9.765 77.891,17.197 71.638,20.48C69.657,21.52 67.529,22.148 65.352,22.578C68.978,27.619 72.279,32.997 75.364,38.382C78.483,43.825 81.286,49.52 82.92,55.599C83.106,56.292 82.066,56.574 81.851,55.894C79.922,49.831 77.211,44.107 74.058,38.59C71.016,33.265 67.432,28.194 64.697,22.701C63.487,22.919 62.265,23.083 61.048,23.228C57.185,23.687 53.334,24.076 49.523,24.885C49.037,24.988 48.842,24.294 49.317,24.139C53.037,22.931 57.063,22.777 60.91,22.21M74.731,-80.561C78.298,-82.028 81.044,-85.043 84.792,-86.094C84.989,-86.149 85.059,-85.865 84.875,-85.794C81.23,-84.375 78.644,-81.161 74.887,-79.996C74.518,-79.882 74.392,-80.422 74.731,-80.561M66.104,-102.309C65.338,-100.18 63.754,-98.341 62.238,-96.699C60.536,-94.856 58.775,-92.999 56.879,-91.354C56.217,-90.779 55.296,-91.649 55.897,-92.311C57.495,-94.071 59.415,-95.53 61.084,-97.222C62.744,-98.906 64.039,-100.822 65.548,-102.625C65.757,-102.874 66.215,-102.618 66.104,-102.309M54.53,-98.144C54.022,-98.135 54.009,-98.796 54.418,-98.965C56.89,-99.983 58.587,-101.741 59.843,-104.062C60.156,-104.64 61.005,-104.25 60.873,-103.641C60.217,-100.626 57.662,-98.201 54.53,-98.144M86.459,-72.8C94.018,-69.473 96.938,-60.77 101.144,-54.325C101.382,-53.96 100.806,-53.621 100.565,-53.98C96.348,-60.281 93.57,-68.979 86.231,-72.399C85.96,-72.526 86.19,-72.918 86.459,-72.8M101.288,-36.889C101.527,-35.381 101.396,-33.752 101.4,-32.225C101.405,-30.531 101.425,-28.83 101.301,-27.138C101.077,-24.092 100.525,-20.922 98.503,-18.524C98.328,-18.317 97.988,-18.579 98.127,-18.807C99.898,-21.705 100.589,-24.872 100.74,-28.237C100.811,-29.801 100.776,-31.365 100.826,-32.93C100.866,-34.231 100.806,-35.655 101.265,-36.889C101.269,-36.899 101.286,-36.903 101.288,-36.889M93.579,-12.797C92.578,-11.533 91.412,-10.469 90.07,-9.578C89.733,-9.354 89.424,-9.886 89.751,-10.113C91.02,-10.993 92.176,-12.01 93.204,-13.162C93.433,-13.419 93.784,-13.055 93.579,-12.797M34.363,18.241C37.348,19.624 40.64,19.944 43.96,19.403C45.801,19.103 47.608,18.652 49.399,18.136C51.106,17.646 52.871,16.905 54.649,16.757C55.171,16.714 55.392,17.522 54.925,17.753C53.105,18.656 50.923,19.081 48.965,19.604C46.998,20.129 45,20.602 42.968,20.796C40.234,21.057 34.968,18.128 32.446,17.177C34.395,22.355 42.879,17.009 44.772,22.205C46.911,28.075 52.72,42.847 54.082,48.935C55.094,53.459 57.892,64.545 61.925,84.08C70.94,69.862 74.251,67.461 86.922,56.618C96.396,48.511 106.836,40.675 118.235,35.449C121.295,34.047 124.357,32.748 127.471,31.621C125.969,27.702 124.76,23.681 123.244,19.766C121.681,15.727 119.972,11.75 118.271,7.767C116.677,4.031 115.047,0.306 113.579,-3.482C112.195,-7.052 110.757,-10.686 109.874,-14.421C109.339,-13.605 108.78,-12.798 108.195,-12.005C107.927,-11.642 107.655,-11.282 107.379,-10.925C109.574,-5.094 112.701,0.922 112.364,7.231C112.34,7.687 111.674,7.69 111.653,7.231C111.384,1.038 108.541,-4.448 106.878,-10.291C105.245,-8.257 103.43,-6.382 101.191,-4.989C98.835,-3.522 96.244,-2.62 93.592,-1.849C92.782,-1.614 91.969,-1.397 91.158,-1.177C91.158,-1.173 91.159,-1.17 91.158,-1.166C90.937,3.55 92.148,8.329 93.554,12.79C94.999,17.38 96.855,21.826 98.836,26.208C99.15,26.904 98.223,27.502 97.798,26.829C95.112,22.579 93.378,17.636 91.954,12.84C90.701,8.619 89.188,3.562 90.119,-0.888C88.361,-0.389 86.633,0.181 85.007,1.072C81.692,2.886 78.446,5.372 76.422,8.612C76.191,8.981 75.644,8.668 75.837,8.28C77.281,5.364 80.069,3.085 82.765,1.345C85.162,-0.202 87.926,-1.569 90.653,-2.443C93.216,-3.265 95.889,-3.858 98.322,-5.036C101.138,-6.4 103.54,-8.374 105.493,-10.817C105.812,-11.215 106.121,-11.618 106.427,-12.023C106.411,-12.089 106.395,-12.154 106.38,-12.22C106.321,-12.474 106.601,-12.597 106.766,-12.477C113.893,-22.125 117.489,-33.648 117.729,-45.664C117.806,-49.525 117.635,-53.327 116.864,-57.121C116.063,-61.067 114.956,-64.967 114.482,-68.972C113.588,-76.548 115.893,-84.017 118.709,-90.97C121.579,-98.055 124.555,-105.087 126.668,-112.447C126.689,-112.524 126.713,-112.6 126.735,-112.677C125.354,-113.792 124.384,-115.549 123.471,-116.992C122.025,-119.274 121.876,-121.798 122.913,-124.28C123.936,-126.728 125.47,-129.08 127.308,-130.997C127.983,-131.703 129.095,-132.908 130.235,-133.184C127.058,-134.819 123.424,-134.421 120.187,-132.867C115.058,-130.406 110.834,-126.262 107.002,-122.141C102.896,-117.727 98.911,-113.219 96.28,-107.737C93.525,-101.997 92.383,-95.777 90.198,-89.84C88.449,-85.087 85.469,-78.563 79.938,-77.369C79.242,-77.218 78.727,-78.22 79.423,-78.572C81.888,-79.822 83.917,-81.307 85.468,-83.642C86.455,-85.129 87.268,-86.718 87.961,-88.358C87.168,-88.428 86.385,-89.087 85.839,-89.616C84.448,-90.968 83.279,-92.539 82.041,-94.027C79.524,-97.052 75.8,-101.822 71.309,-101.147C70.934,-101.091 70.557,-101.234 70.448,-101.635C70.061,-103.074 68.438,-103.739 67.843,-105.092C60.199,-109.238 53.416,-114.803 45.192,-117.911C41.333,-119.37 37.183,-120.423 33.025,-120.111C28.574,-119.776 24.698,-117.795 21.277,-115.009C21.248,-114.985 21.217,-114.965 21.187,-114.947C20.531,-113.889 20.23,-112.609 20.137,-111.361C20.03,-109.922 20.419,-108.291 20.033,-106.909C20.021,-106.864 20,-106.823 19.974,-106.785C21.522,-104.742 22.549,-102.447 23.643,-100.126C25.002,-97.239 26.508,-94.406 28.474,-91.879C33.239,-85.75 36.978,-78.807 42.113,-72.969C44.16,-70.643 46.439,-68.444 48.973,-66.649C50.154,-65.813 51.448,-64.964 52.819,-64.308C50.59,-67.089 48.089,-69.822 46.681,-73.071C46.634,-73.179 46.657,-73.283 46.712,-73.361C46.599,-76.658 49.237,-79.69 52.459,-80.12C52.624,-80.142 52.689,-79.992 52.66,-79.862C57.589,-79.193 62.472,-76.997 65.57,-73.066C65.501,-73.903 65.344,-74.739 65.107,-75.558C63.566,-80.896 59.721,-85.635 55.31,-88.932C55.136,-89.062 55.058,-89.239 55.05,-89.412C54.916,-89.455 54.794,-89.551 54.729,-89.713C52.656,-94.897 50.952,-100.218 48.157,-105.084C46.756,-107.524 45.163,-109.895 43.146,-111.874C41.251,-113.734 39.069,-115.09 36.73,-116.32C36.325,-116.533 36.595,-117.168 37.029,-117.052C42.373,-115.628 46.351,-110.6 48.962,-105.993C51.8,-100.986 53.861,-95.493 55.646,-90.033C55.723,-90.024 55.804,-89.998 55.889,-89.951C57.041,-89.312 58.114,-88.533 59.109,-87.657C59.115,-87.661 59.119,-87.666 59.125,-87.67C61.029,-88.866 63.738,-89.338 65.282,-91.068C66.693,-92.649 67.095,-95.303 67.679,-97.266C67.782,-97.61 68.27,-97.47 68.209,-97.125C67.82,-94.888 67.674,-92.072 66.116,-90.255C65.65,-89.712 65.077,-89.269 64.466,-88.892C65.097,-89.074 65.728,-89.258 66.359,-89.438C68.21,-89.965 70.067,-90.312 71.935,-90.614C72.285,-90.672 72.409,-90.218 72.08,-90.086C70.191,-89.323 68.299,-88.497 66.337,-87.847C65.939,-87.716 65.53,-87.569 65.113,-87.416C66.21,-87.293 67.313,-87.079 68.459,-86.921C69.826,-86.732 71.257,-86.695 72.56,-87.224C74.32,-87.939 75.482,-89.327 76.858,-90.568C77.137,-90.819 77.616,-90.506 77.402,-90.159C75.792,-87.551 72.805,-85.729 69.696,-85.945C67.59,-86.091 65.562,-86.625 63.484,-86.828C62.571,-86.511 61.643,-86.231 60.729,-86.077C61.889,-84.829 62.918,-83.457 63.813,-82.041C65.787,-78.917 67.451,-75.113 67.154,-71.33C66.991,-69.26 66.21,-67.208 64.983,-65.519C65.787,-66.171 66.577,-66.836 67.273,-67.607C67.519,-67.878 67.994,-67.529 67.788,-67.221C66.414,-65.173 64.364,-63.758 62.854,-61.838C61.905,-60.63 61.232,-58.973 61.658,-57.424C61.939,-56.399 62.487,-55.477 62.777,-54.459C63.784,-50.914 62.166,-47.509 59.995,-44.664C59.346,-43.595 58.534,-42.635 57.551,-41.848C55.862,-40.093 54.058,-38.362 52.8,-36.256C51.358,-33.844 50.556,-31.101 50.324,-28.305C49.96,-23.914 50.709,-19.733 51.59,-15.519C52.897,-12.93 53.46,-10.037 54.072,-7.193C54.169,-6.744 53.536,-6.571 53.388,-7.004C52.922,-8.363 52.528,-9.743 52.113,-11.115C51.795,-10.903 51.299,-10.967 51.137,-11.453C49.387,-16.697 48.332,-22.776 48.865,-28.304C48.889,-28.547 48.918,-28.789 48.947,-29.031C48.63,-28.533 48.323,-28.029 48.04,-27.51C47.174,-25.917 46.415,-24.271 45.634,-22.636C44.088,-19.4 42.437,-16.235 39.792,-13.752C39.408,-13.392 38.873,-13.922 39.211,-14.317C41.666,-17.177 43.188,-20.648 44.699,-24.063C45.429,-25.714 46.176,-27.37 47.082,-28.935C47.743,-30.078 48.519,-31.592 49.602,-32.475C49.937,-33.711 50.385,-34.914 50.991,-36.049C51.773,-37.511 52.763,-38.818 53.842,-40.056C49.985,-39.268 46.204,-41.543 43.219,-44.133C42.041,-45.155 40.922,-46.242 39.843,-47.372C38.173,-41.28 34.623,-34.763 27.335,-35.716C23.776,-36.181 20.451,-38.02 17.508,-39.986C13.797,-42.465 10.384,-45.356 7.079,-48.347C3.734,-51.374 0.498,-54.519 -2.824,-57.572C-5.387,-59.927 -7.994,-62.321 -10.934,-64.204C-11.012,-64.254 -11.065,-64.315 -11.102,-64.38C-12.333,-65.269 -13.156,-67.095 -13.99,-68.318C-14.465,-69.014 -14.937,-69.711 -15.402,-70.412C-15.608,-69.332 -15.971,-68.267 -16.335,-67.395C-17.165,-65.41 -18.328,-63.628 -20.134,-62.444C-20.386,-62.278 -20.745,-62.606 -20.565,-62.865C-19.461,-64.453 -18.239,-66.055 -17.611,-67.916C-17.273,-68.915 -16.991,-69.955 -16.881,-71.007C-16.828,-71.518 -16.82,-72.039 -16.77,-72.553C-16.844,-72.674 -16.92,-72.793 -16.993,-72.914C-17.066,-73.035 -17.068,-73.148 -17.028,-73.241C-17.069,-73.358 -17.108,-73.476 -17.145,-73.596C-17.83,-72.382 -18.758,-71.267 -19.677,-70.312C-21.188,-68.742 -22.885,-67.273 -24.841,-66.295C-25.062,-66.185 -25.335,-66.475 -25.125,-66.654C-23.492,-68.048 -21.763,-69.335 -20.338,-70.957C-19.141,-72.319 -18.305,-73.74 -17.578,-75.33C-17.687,-75.845 -17.789,-76.342 -17.897,-76.781C-18.114,-77.654 -18.32,-78.543 -18.465,-79.439C-18.546,-79.424 -18.635,-79.437 -18.722,-79.492C-23.303,-82.408 -27.252,-86.384 -31.497,-89.759C-35.41,-92.87 -39.61,-95.53 -43.662,-98.445C-48.924,-102.23 -54.166,-106.351 -60.094,-109.059C-63.696,-110.705 -72.418,-113.282 -73.737,-107.421C-74.952,-102.027 -70.64,-96.063 -67.357,-92.289C-64.916,-89.483 -62.189,-86.955 -59.405,-84.497C-59.021,-84.157 -58.631,-83.821 -58.241,-83.484C-58.157,-83.543 -58.06,-83.593 -57.938,-83.624C-53.94,-84.628 -51.204,-88.237 -48.89,-91.419C-48.498,-91.958 -47.609,-91.497 -47.968,-90.897C-50.087,-87.355 -53.078,-84.105 -56.834,-82.278C-54.896,-80.614 -52.964,-78.921 -51.299,-77.012C-51.213,-76.914 -51.158,-76.811 -51.126,-76.708C-46.365,-73.028 -41.9,-68.947 -37.333,-65.039C-35.756,-63.691 -34.17,-62.355 -32.576,-61.033C-31.091,-59.922 -29.67,-58.712 -28.249,-57.507C-25.97,-55.683 -23.663,-53.894 -21.321,-52.146C-20.213,-51.384 -19.086,-50.648 -17.934,-49.949C-12.437,-46.613 -6.654,-43.701 -3.448,-37.805C-3.149,-37.256 -3.9,-36.59 -4.341,-37.1C-4.75,-37.574 -5.152,-38.049 -5.553,-38.521C-5.306,-37.755 -5.009,-37.006 -4.65,-36.286C-3.972,-34.926 -3.188,-33.625 -2.338,-32.366C2.46,-31.633 6.242,-27.225 9.365,-23.883C9.469,-23.771 9.313,-23.612 9.2,-23.713C7.435,-25.283 5.777,-26.988 3.909,-28.438C2.089,-29.852 0.232,-30.843 -1.867,-31.679C-1.727,-31.481 -1.586,-31.282 -1.444,-31.086C1.089,-27.578 3.925,-24.294 6.417,-20.758C9.531,-16.337 10.815,-11.165 13.344,-6.452C14.546,-4.212 16.042,-2.189 17.782,-0.337C18.884,0.837 20.077,1.936 21.192,3.101C20.689,1.587 20.319,0.033 20.148,-1.544C20.136,-1.656 20.181,-1.739 20.249,-1.796C18.335,-5.489 15.895,-8.943 14.983,-13.059C14.94,-13.254 15.236,-13.338 15.283,-13.142C16.647,-7.539 20.912,-3.262 22.537,2.239C22.633,2.563 22.134,2.698 22.033,2.378C21.935,2.069 21.829,1.763 21.717,1.461C23.686,7.537 27.13,13.691 32.446,17.177C32.796,17.407 33.153,17.615 33.514,17.811"
                        style="fill:current;fill-rule:nonzero;" />
                </g>
                <g transform="matrix(1,0,0,1,239.691,72.8381)">
                    <path
                        d="M0,-13.179C-1.415,-11.46 -2.755,-9.501 -3.54,-7.402C-3.94,-6.334 -4.175,-5.256 -4.061,-4.103C-3.91,-2.57 -3.125,-1.505 -2.355,-0.23C-1.702,0.85 -1.054,1.992 -0.278,3.008C1.623,-3.11 5.13,-9.701 3.811,-16.187C2.394,-16.185 0.731,-14.068 0,-13.179"
                        style="fill:current;fill-rule:nonzero;" />
                </g>
                <g transform="matrix(1,0,0,1,218.923,198.101)">
                    <path
                        d="M0,-21.004C-0.306,-20.599 -0.615,-20.196 -0.934,-19.798C-2.887,-17.355 -5.289,-15.381 -8.104,-14.018C-10.538,-12.839 -13.211,-12.246 -15.773,-11.424C-18.501,-10.55 -21.264,-9.184 -23.662,-7.636C-26.357,-5.897 -29.146,-3.618 -30.59,-0.701C-30.782,-0.313 -30.235,0 -30.005,-0.369C-27.98,-3.609 -24.733,-6.095 -21.42,-7.91C-19.794,-8.8 -18.065,-9.37 -16.308,-9.869C-16.279,-10.004 -16.257,-10.139 -16.225,-10.272C-16.095,-10.799 -15.254,-10.704 -15.269,-10.158C-14.458,-10.379 -13.645,-10.595 -12.835,-10.83C-10.183,-11.601 -7.592,-12.504 -5.235,-13.97C-2.997,-15.363 -1.182,-17.238 0.451,-19.272C0.288,-19.846 0.137,-20.423 0,-21.004"
                        style="fill:#393f49;fill-rule:nonzero;" />
                </g>
                <g transform="matrix(1,0,0,1,243.762,177.954)">
                    <path
                        d="M0,-121.28C-0.086,-121.297 -0.173,-121.303 -0.261,-121.303C1.059,-114.817 -2.448,-108.225 -4.35,-102.108C-4.213,-101.928 -4.072,-101.751 -3.926,-101.58C-3.755,-101.418 -3.977,-101.108 -4.177,-101.245C-4.298,-101.329 -4.415,-101.419 -4.53,-101.511C-4.553,-101.435 -4.576,-101.358 -4.599,-101.282C-6.711,-93.921 -9.687,-86.89 -12.557,-79.804C-15.372,-72.851 -17.678,-65.382 -16.783,-57.807C-16.31,-53.801 -15.202,-49.901 -14.401,-45.956C-13.631,-42.162 -13.459,-38.359 -13.536,-34.499C-13.776,-22.482 -17.373,-10.96 -24.499,-1.312C-24.46,-1.283 -24.426,-1.245 -24.405,-1.187C-24.24,-0.713 -24.066,-0.237 -23.887,0.24C-23.61,-0.116 -23.339,-0.477 -23.07,-0.839C-22.484,-1.633 -21.927,-2.439 -21.392,-3.256C-21.415,-3.357 -21.443,-3.457 -21.467,-3.558C-21.537,-3.868 -21.202,-4.003 -21.005,-3.848C-14.643,-13.838 -11.946,-25.476 -12.066,-37.349C-12.104,-41.068 -12.616,-44.656 -13.412,-48.285C-14.275,-52.224 -15.32,-56.14 -15.551,-60.184C-15.985,-67.816 -12.854,-75.375 -10.002,-82.285C-7.184,-89.117 -4.768,-95.974 -2.745,-103.082C-1.078,-108.941 2.546,-115.341 0.383,-121.52C0.339,-121.369 0.191,-121.242 0,-121.28"
                        style="fill:#393f49;fill-rule:nonzero;" />
                </g>
                <g transform="matrix(1,0,0,1,201.471,60.4487)">
                    <path
                        d="M0,40.019C-0.327,40.266 -0.671,40.343 -1.014,40.312C-1.707,41.953 -2.52,43.541 -3.507,45.029C-5.058,47.364 -7.087,48.849 -9.552,50.098C-10.247,50.451 -9.733,51.452 -9.037,51.302C-3.506,50.107 -0.525,43.583 1.224,38.831C3.408,32.894 4.552,26.674 7.306,20.934C9.937,15.452 13.922,10.944 18.027,6.53C21.86,2.409 26.083,-1.735 31.212,-4.196C34.449,-5.75 38.083,-6.148 41.26,-4.513C41.662,-4.611 42.068,-4.591 42.46,-4.393C33.395,-11.433 22.476,-0.218 16.618,6.045C12.551,10.394 8.709,14.845 6.039,20.215C3.262,25.802 2.003,31.894 -0.03,37.751C-0.17,38.154 -0.316,38.554 -0.468,38.952C-0.464,38.951 -0.46,38.952 -0.456,38.951C0.214,38.825 0.529,39.62 0,40.019"
                        style="fill:#393f49;fill-rule:nonzero;" />
                </g>
                <g transform="matrix(1,0,0,1,134.918,77.4975)">
                    <path
                        d="M0,-4.689C-0.51,-4.308 -0.914,-3.843 -1.235,-3.326C-1.205,-3.343 -1.174,-3.363 -1.144,-3.387C2.276,-6.173 6.152,-8.154 10.604,-8.489C14.761,-8.801 18.912,-7.749 22.771,-6.29C30.994,-3.181 37.777,2.384 45.421,6.53C45.396,6.472 45.369,6.415 45.348,6.354C45.077,5.591 46.24,5.312 46.537,6.026C46.591,6.156 46.663,6.278 46.746,6.394C46.803,6.214 46.767,6.015 46.575,5.865C42.993,3.058 39.185,0.574 35.304,-1.804C31.24,-4.294 27.019,-6.557 22.539,-8.208C14.366,-11.219 4.977,-11.157 -1.368,-4.605C-1.068,-4.865 -0.732,-5.093 -0.352,-5.277C0.05,-5.472 0.353,-4.952 0,-4.689"
                        style="fill:#393f49;fill-rule:nonzero;" />
                </g>
                <g transform="matrix(1,0,0,1,180.803,100.371)">
                    <path
                        d="M0,-16.09C-0.155,-16.173 -0.308,-16.259 -0.463,-16.343C0.132,-14.991 1.754,-14.326 2.142,-12.887C2.25,-12.486 2.627,-12.342 3.002,-12.399C7.493,-13.073 11.218,-8.304 13.735,-5.279C14.973,-3.791 16.142,-2.219 17.533,-0.868C18.079,-0.339 18.862,0.32 19.655,0.39C19.845,-0.06 20.027,-0.513 20.201,-0.971C19.289,-0.814 18.019,-2.521 17.535,-3.063C16.112,-4.655 14.816,-6.358 13.403,-7.959C10.828,-10.878 7.424,-14.142 3.274,-13.822C3.36,-13.646 3.433,-13.461 3.491,-13.259C3.204,-13.422 2.917,-13.585 2.63,-13.747C2.847,-13.783 3.061,-13.806 3.274,-13.822C3.068,-14.246 2.787,-14.611 2.447,-14.978C1.986,-15.476 1.274,-15.903 0.862,-16.48C0.76,-16.158 0.359,-15.899 0,-16.09"
                        style="fill:#393f49;fill-rule:nonzero;" />
                </g>
                <g transform="matrix(1,0,0,1,184.293,86.5487)">
                    <path
                        d="M0,0.563C-0.058,0.362 -0.131,0.176 -0.217,0C-0.43,0.017 -0.644,0.04 -0.86,0.075C-0.573,0.238 -0.287,0.4 0,0.563"
                        style="fill:#393f49;fill-rule:nonzero;" />
                </g>
                <g transform="matrix(0.915783,-0.401674,-0.401674,-0.915783,201.625,100.334)">
                    <path
                        d="M-0.195,-0.061C0.45,0.092 0.48,0.947 -0.184,1.1C-0.188,1.101 -0.191,1.104 -0.195,1.104C-0.538,0.756 -0.886,0.413 -1.241,0.078C-0.94,-0.088 -0.594,-0.156 -0.195,-0.061"
                        style="fill:#393f49;fill-rule:nonzero;" />
                </g>
                <g transform="matrix(1,0,0,1,180.266,83.4299)">
                    <path
                        d="M0,0.422C0.021,0.483 0.048,0.54 0.074,0.598C0.229,0.682 0.381,0.769 0.537,0.851C0.896,1.042 1.297,0.783 1.398,0.462C1.315,0.345 1.244,0.224 1.189,0.094C0.892,-0.62 -0.271,-0.341 0,0.422"
                        style="fill:#393f49;fill-rule:nonzero;" />
                </g>
                <g transform="matrix(1,0,0,1,132.12,73.3401)">
                    <path
                        d="M0,8.546C0.12,8.694 0.236,8.843 0.35,8.994C0.376,8.956 0.397,8.915 0.41,8.87C0.795,7.488 0.407,5.858 0.514,4.419C0.606,3.171 0.907,1.89 1.563,0.832C1.088,1.095 0.528,0.533 0.94,0.074C1.101,-0.105 1.266,-0.277 1.431,-0.448C0.346,0.491 -0.239,1.867 -0.534,3.317C-0.852,4.876 -1.139,7.1 -0.546,8.667C-0.543,8.668 -0.541,8.668 -0.539,8.669C-0.448,8.458 -0.179,8.325 0,8.546"
                        style="fill:#393f49;fill-rule:nonzero;" />
                </g>
                <g transform="matrix(1,0,0,1,133.683,72.2898)">
                    <path
                        d="M0,1.882C0.321,1.364 0.726,0.9 1.235,0.519C1.588,0.256 1.285,-0.264 0.884,-0.07C0.503,0.115 0.167,0.343 -0.132,0.603C-0.297,0.773 -0.462,0.945 -0.623,1.125C-1.035,1.584 -0.475,2.146 0,1.882"
                        style="fill:#393f49;fill-rule:nonzero;" />
                </g>
                <g transform="matrix(1,0,0,1,115.679,83.2047)">
                    <path
                        d="M0,14.052C0.456,14.627 0.836,15.239 1.176,15.87C1.253,15.776 1.304,15.661 1.312,15.533C1.423,13.577 1.618,11.938 2.542,10.166C3.503,8.32 4.936,6.7 6.446,5.286C7.96,3.868 9.713,2.705 11.588,1.823C12.396,1.443 13.26,1.173 14.129,0.977C14.914,0.801 15.626,0.847 16.351,0.455C16.418,0.419 16.473,0.375 16.522,0.329C16.32,-0.081 16.116,-0.49 15.907,-0.897C15.857,-0.993 15.862,-1.096 15.898,-1.186C15.897,-1.19 15.896,-1.195 15.895,-1.198C14.351,-1.818 12.068,-0.794 10.711,-0.203C8.458,0.779 6.428,2.303 4.653,3.986C2.313,6.205 -0.659,10.286 -0.31,13.911C-0.199,13.903 -0.087,13.942 0,14.052"
                        style="fill:#393f49;fill-rule:nonzero;" />
                </g>
                <g transform="matrix(1,0,0,1,131.581,82.0162)">
                    <path
                        d="M0,-0.007C-0.002,-0.008 -0.005,-0.008 -0.007,-0.009C-0.006,-0.006 -0.005,-0.002 -0.003,0.002C-0.002,-0.001 -0.001,-0.004 0,-0.007"
                        style="fill:#393f49;fill-rule:nonzero;" />
                </g>
                <g transform="matrix(1,0,0,1,94.031,102.054)">
                    <path
                        d="M0,7.626C0.146,8.522 0.351,9.411 0.568,10.284C0.677,10.723 0.777,11.22 0.888,11.735C1.027,11.43 1.165,11.121 1.298,10.803C1.53,10.248 2.361,10.644 2.236,11.186C2.055,11.975 1.731,12.74 1.32,13.469C1.357,13.589 1.396,13.708 1.437,13.824C1.501,13.674 1.676,13.58 1.851,13.601C1.851,13.599 1.852,13.597 1.852,13.595C2.014,12.993 2.903,12.981 3.067,13.589C3.204,14.094 3.249,14.646 3.23,15.215C3.29,15.294 3.351,15.374 3.411,15.453C3.441,15.402 3.464,15.346 3.476,15.284C3.752,13.821 2.93,12.083 2.552,10.674C2.19,9.327 1.854,7.96 1.695,6.571C1.403,4.014 2.044,1.747 3.726,-0.215C5.989,-2.854 9.279,-4.913 12.633,-5.777C14.28,-6.201 15.847,-6.134 17.459,-5.599C19.161,-5.034 20.417,-3.875 21.763,-2.782C21.515,-3.279 21.249,-3.77 20.95,-4.246C20.793,-4.496 20.954,-4.781 21.177,-4.892C19.066,-6.779 16.097,-7.827 13.342,-7.614C9.458,-7.315 5.748,-4.773 3.032,-2.131C0.892,-0.048 -0.273,2.603 -0.202,5.593C-0.194,5.932 -0.169,6.272 -0.135,6.61C-0.018,6.721 0.103,6.829 0.219,6.94C0.469,7.18 0.278,7.574 0,7.626"
                        style="fill:#393f49;fill-rule:nonzero;" />
                </g>
                <g transform="matrix(1,0,0,1,116.903,99.3079)">
                    <path
                        d="M0,-0.144C0.025,-0.096 0.05,-0.048 0.075,0C0.065,-0.032 0.051,-0.064 0.031,-0.098C0.021,-0.114 0.01,-0.128 0,-0.144"
                        style="fill:#393f49;fill-rule:nonzero;" />
                </g>
                <g transform="matrix(1,0,0,1,132.201,126.183)">
                    <path
                        d="M0,-42.649C1.222,-40.162 2.317,-37.618 3.483,-35.103C5.096,-31.621 7.308,-28.692 9.558,-25.612C14.001,-19.528 17.653,-12.838 22.853,-7.332C26.372,-3.605 30.928,0.219 36.112,1.2C35.937,1.042 35.758,0.887 35.575,0.732C35.181,0.4 35.42,-0.259 35.847,-0.4C35.386,-0.502 34.931,-0.636 34.483,-0.797C34.589,-0.611 34.695,-0.424 34.795,-0.233C34.988,0.136 34.491,0.417 34.25,0.093C33.884,-0.399 33.502,-0.885 33.114,-1.371C31.743,-2.027 30.449,-2.876 29.269,-3.712C26.734,-5.507 24.455,-7.706 22.408,-10.033C17.272,-15.87 13.534,-22.814 8.768,-28.942C6.803,-31.47 5.297,-34.302 3.938,-37.189C2.844,-39.511 1.817,-41.805 0.269,-43.849C0.217,-43.774 0.142,-43.718 0.059,-43.683C0.271,-43.359 0.292,-42.926 0,-42.649"
                        style="fill:#393f49;fill-rule:nonzero;" />
                </g>
                <g transform="matrix(1,0,0,1,179.238,108.832)">
                    <path
                        d="M0,8.961C-0.375,8.529 -0.755,8.107 -1.144,7.694C-1.074,9.435 -1.406,11.168 -2.262,12.745C-3.793,15.566 -6.506,17.345 -9.733,17.159C-10.014,17.143 -10.293,17.109 -10.571,17.066C-9.666,17.455 -8.871,18.018 -8.183,18.707C-7.046,18.588 -5.981,18.234 -5.014,17.698C-4.051,16.581 -2.892,15.688 -1.758,14.768C-0.531,13.079 0.249,11.026 0.412,8.957C0.709,5.174 -0.955,1.37 -2.929,-1.754C-3.824,-3.17 -4.853,-4.542 -6.012,-5.79C-6.4,-5.726 -6.785,-5.683 -7.165,-5.671C-7.649,-5.658 -7.918,-6.153 -7.81,-6.552C-7.949,-6.812 -7.922,-7.175 -7.633,-7.37C-8.628,-8.246 -9.701,-9.025 -10.853,-9.664C-10.938,-9.711 -11.019,-9.737 -11.095,-9.746C-11.088,-9.726 -11.082,-9.706 -11.075,-9.685C-10.934,-9.251 -11.356,-9.017 -11.692,-9.125C-11.684,-8.952 -11.605,-8.775 -11.431,-8.645C-7.021,-5.349 -3.176,-0.609 -1.634,4.729C-1.398,5.547 -1.24,6.384 -1.172,7.221C-0.743,7.766 -0.346,8.342 0.01,8.953C0.013,8.96 0.005,8.966 0,8.961"
                        style="fill:#393f49;fill-rule:nonzero;" />
                </g>
                <g transform="matrix(1,0,0,1,131.581,82.1562)">
                    <path
                        d="M0,-0.147C0.151,-0.085 0.298,-0.014 0.433,0.082C0.533,0.152 0.613,0.244 0.679,0.344C0.762,0.308 0.837,0.252 0.889,0.178C0.775,0.027 0.659,-0.122 0.539,-0.27C0.36,-0.491 0.091,-0.358 0,-0.147"
                        style="fill:#393f49;fill-rule:nonzero;" />
                </g>
                <g transform="matrix(1,0,0,1,132.26,83.0529)">
                    <path
                        d="M0,-0.553C-0.196,-0.47 -0.441,-0.507 -0.549,-0.728C-0.598,-0.827 -0.642,-0.929 -0.682,-1.034C-0.718,-0.945 -0.723,-0.842 -0.673,-0.745C-0.464,-0.339 -0.26,0.071 -0.059,0.481C0.233,0.203 0.212,-0.23 0,-0.553"
                        style="fill:#393f49;fill-rule:nonzero;" />
                </g>
                <g transform="matrix(1,0,0,1,132.26,82.0919)">
                    <path
                        d="M0,0.408C-0.065,0.308 -0.146,0.216 -0.246,0.146C-0.381,0.051 -0.527,-0.021 -0.679,-0.083C-0.68,-0.08 -0.681,-0.076 -0.682,-0.073C-0.642,0.032 -0.598,0.134 -0.549,0.233C-0.441,0.454 -0.196,0.491 0,0.408"
                        style="fill:#393f49;fill-rule:nonzero;" />
                </g>
                <g transform="matrix(1,0,0,1,168.143,72.5723)">
                    <path
                        d="M0,26.514C-1.785,21.054 -3.847,15.561 -6.684,10.554C-9.295,5.947 -13.273,0.919 -18.617,-0.506C-19.052,-0.621 -19.322,0.014 -18.917,0.227C-16.577,1.457 -14.395,2.813 -12.5,4.673C-10.484,6.652 -8.89,9.023 -7.489,11.463C-4.695,16.329 -2.991,21.651 -0.917,26.834C-0.852,26.996 -0.731,27.092 -0.597,27.135C-0.613,26.797 -0.358,26.471 0,26.514"
                        style="fill:#393f49;fill-rule:nonzero;" />
                </g>
                <g transform="matrix(1,0,0,1,168.163,99.7113)">
                    <path
                        d="M0,-0.564C-0.006,-0.585 -0.013,-0.605 -0.02,-0.625C-0.378,-0.668 -0.633,-0.342 -0.617,-0.004C-0.281,0.104 0.142,-0.13 0,-0.564"
                        style="fill:#393f49;fill-rule:nonzero;" />
                </g>
                <g transform="matrix(0.744063,0.66811,0.66811,-0.744063,165.621,88.1552)">
                    <path
                        d="M2.929,-1.159C5.222,0.975 5.503,4.486 3.976,7.168C3.668,7.71 2.775,7.432 2.929,6.793C3.545,4.227 3.457,1.785 2.299,-0.624C2.107,-1.022 2.558,-1.505 2.929,-1.159"
                        style="fill:#393f49;fill-rule:nonzero;" />
                </g>
                <g transform="matrix(1,0,0,1,178.045,98.09)">
                    <path
                        d="M0,-11.595C-1.51,-9.792 -2.804,-7.876 -4.464,-6.193C-6.133,-4.501 -8.053,-3.041 -9.651,-1.282C-10.252,-0.619 -9.332,0.25 -8.669,-0.324C-6.773,-1.97 -5.012,-3.826 -3.31,-5.67C-1.794,-7.312 -0.21,-9.151 0.556,-11.28C0.667,-11.589 0.209,-11.845 0,-11.595"
                        style="fill:#393f49;fill-rule:nonzero;" />
                </g>
                <g transform="matrix(1,0,0,1,175.352,92.5953)">
                    <path
                        d="M0,8.097C0.537,7.941 1.074,7.787 1.61,7.633C2.221,7.256 2.795,6.812 3.261,6.269C4.818,4.451 4.964,1.636 5.354,-0.601C5.414,-0.946 4.926,-1.086 4.824,-0.742C4.239,1.221 3.837,3.875 2.426,5.456C0.882,7.186 -1.827,7.658 -3.73,8.854C-3.736,8.858 -3.741,8.863 -3.747,8.867C-3.628,8.972 -3.51,9.076 -3.394,9.183C-2.34,8.651 -1.127,8.425 0,8.097"
                        style="fill:#393f49;fill-rule:nonzero;" />
                </g>
                <g transform="matrix(0.686946,0.726709,0.726709,-0.686946,171.192,102.01)">
                    <path
                        d="M0.358,-0.014C0.277,0.121 0.239,0.286 0.284,0.464C0.306,0.549 0.333,0.632 0.358,0.716C0.2,0.704 0.043,0.691 -0.115,0.677C-0.171,0.333 0.073,0.063 0.358,-0.014"
                        style="fill:#393f49;fill-rule:nonzero;" />
                </g>
                <g transform="matrix(1,0,0,1,173.859,98.4477)">
                    <path
                        d="M0,3.392C1.281,3.092 2.512,3.116 3.75,3.255C4.167,3.103 4.576,2.956 4.975,2.824C6.936,2.175 8.829,1.348 10.717,0.585C11.046,0.453 10.922,0 10.572,0.057C8.705,0.359 6.847,0.706 4.997,1.234C4.365,1.413 3.734,1.598 3.103,1.78C2.867,1.926 2.625,2.063 2.381,2.19C1.603,2.597 0.81,3.017 0,3.392"
                        style="fill:#393f49;fill-rule:nonzero;" />
                </g>
                <g transform="matrix(1,0,0,1,173.298,103.042)">
                    <path
                        d="M0,-0.952C-0.237,-0.85 -0.475,-0.754 -0.715,-0.664C-0.497,-0.447 -0.282,-0.226 -0.072,0C0.841,-0.153 1.77,-0.434 2.683,-0.75C1.847,-0.832 1.003,-0.862 0.142,-0.788C0.04,-0.779 -0.009,-0.869 0,-0.952"
                        style="fill:#393f49;fill-rule:nonzero;" />
                </g>
                <g transform="matrix(1,0,0,1,172.093,102.904)">
                    <path
                        d="M0,-0.352C-0.304,-0.252 -0.544,-0.4 -0.664,-0.623C-0.772,-0.224 -0.504,0.271 -0.019,0.257C0.36,0.246 0.746,0.203 1.133,0.138C0.923,-0.088 0.709,-0.309 0.491,-0.526C0.328,-0.465 0.165,-0.406 0,-0.352"
                        style="fill:#393f49;fill-rule:nonzero;" />
                </g>
                <g transform="matrix(1,0,0,1,171.958,100.827)">
                    <path
                        d="M0,0.952C0.212,1.147 0.42,1.348 0.625,1.551C0.865,1.461 1.103,1.365 1.34,1.263C1.346,1.206 1.378,1.152 1.442,1.133C1.596,1.088 1.749,1.049 1.901,1.013C2.71,0.639 3.503,0.218 4.282,-0.189C4.526,-0.316 4.768,-0.453 5.004,-0.599C4.467,-0.444 3.93,-0.291 3.394,-0.134C2.267,0.194 1.054,0.42 0,0.952"
                        style="fill:#393f49;fill-rule:nonzero;" />
                </g>
                <g transform="matrix(1,0,0,1,172.093,101.879)">
                    <path
                        d="M0,0.673C0.165,0.619 0.328,0.56 0.491,0.499C0.286,0.296 0.078,0.095 -0.134,-0.1C-0.212,-0.06 -0.292,-0.023 -0.368,0.02C-0.528,0.11 -0.623,0.249 -0.664,0.402C-0.544,0.625 -0.304,0.773 0,0.673"
                        style="fill:#393f49;fill-rule:nonzero;" />
                </g>
                <g transform="matrix(1,0,0,1,172.817,107.848)">
                    <path
                        d="M0,33.428C0.102,33.225 0.201,33.016 0.298,32.804C0.059,32.532 -0.175,32.256 -0.405,31.976C-1.384,36.666 -5.459,40.949 -10.52,39.359C-10.949,39.224 -11.367,39.057 -11.776,38.868C-11.717,39 -11.659,39.131 -11.598,39.261C-11.441,39.595 -11.875,39.861 -12.09,39.555C-12.375,39.15 -12.636,38.728 -12.877,38.295C-14.484,37.357 -15.937,36.091 -17.26,34.858C-19.316,32.941 -21.164,30.805 -22.966,28.653C-28.027,22.609 -32.996,16.488 -38.023,10.416C-39.669,8.429 -41.257,6.304 -43.266,4.668C-44.979,3.273 -46.935,2.203 -48.777,0.995C-50.933,-0.417 -52.616,-2.086 -53.845,-4.365C-54.583,-5.731 -55.13,-7.177 -55.839,-8.54C-55.722,-8.18 -56.188,-7.919 -56.494,-8.155C-56.673,-8.293 -56.849,-8.434 -57.023,-8.575C-55.748,-6.027 -54.971,-3.262 -53.154,-0.972C-51.149,1.556 -48.002,3.029 -45.398,4.827C-42.185,7.047 -39.94,10.487 -37.485,13.468C-35.084,16.383 -32.691,19.303 -30.294,22.22C-29.609,22.522 -29.125,23.004 -29.068,23.716C-26.697,26.614 -24.368,29.615 -21.846,32.42C-21.838,32.387 -21.831,32.355 -21.823,32.324C-21.574,31.26 -19.929,31.695 -20.185,32.759C-20.275,33.136 -20.373,33.516 -20.478,33.899C-19.399,35.03 -18.28,36.117 -17.102,37.139C-14.117,39.729 -10.336,42.003 -6.479,41.215C-5.919,40.574 -5.338,39.95 -4.746,39.336C-3.001,37.525 -1.144,35.7 0,33.428"
                        style="fill:#393f49;fill-rule:nonzero;" />
                </g>
                <g transform="matrix(1,0,0,1,172.554,128.439)">
                    <path
                        d="M0,10.578C0.269,10.932 0.539,11.284 0.81,11.635C1.207,10.664 1.506,9.628 1.548,8.609C1.605,7.203 1.137,6.097 0.631,4.823C0.184,3.697 0.028,2.508 0.182,1.364C-0.283,0.527 -0.842,-0.243 -1.499,-0.9C-2.103,-0.838 -2.726,-0.838 -3.366,-0.918C-3.66,-0.954 -3.951,-1.002 -4.241,-1.057C-2.655,0.358 -1.377,1.898 -0.626,3.957C0.139,6.057 0.323,8.369 0,10.578"
                        style="fill:#393f49;fill-rule:nonzero;" />
                </g>
                <g transform="matrix(1,0,0,1,170.047,144.455)">
                    <path
                        d="M0,2.816C0.983,2.028 1.795,1.068 2.445,0C1.679,1.003 0.845,1.937 0.033,2.782C0.022,2.793 0.011,2.805 0,2.816"
                        style="fill:#393f49;fill-rule:nonzero;" />
                </g>
                <g transform="matrix(1,0,0,1,116.849,99.1564)">
                    <path
                        d="M0,-0.073C0.018,-0.046 0.037,-0.02 0.054,0.008C0.038,-0.022 0.022,-0.052 0.006,-0.081C0.004,-0.079 0.002,-0.076 0,-0.073"
                        style="fill:#393f49;fill-rule:nonzero;" />
                </g>
                <g transform="matrix(1,0,0,1,168.412,125.848)">
                    <path
                        d="M0,-0.056C-0.129,-0.106 -0.253,-0.102 -0.364,-0.066C-0.159,-0.02 0.047,0.018 0.255,0.05C0.17,0.014 0.086,-0.023 0,-0.056"
                        style="fill:#393f49;fill-rule:nonzero;" />
                </g>
                <g transform="matrix(1,0,0,1,115.37,97.3411)">
                    <path
                        d="M0,-0.225C-0.055,-0.221 -0.11,-0.205 -0.162,-0.179C-0.097,-0.121 -0.035,-0.06 0.028,0C0.019,-0.075 0.007,-0.15 0,-0.225"
                        style="fill:#393f49;fill-rule:nonzero;" />
                </g>
                <g transform="matrix(1,0,0,1,116.849,97.1074)">
                    <path
                        d="M0,1.976C0.002,1.973 0.004,1.97 0.006,1.968C-0.334,1.336 -0.714,0.724 -1.17,0.149C-1.257,0.039 -1.369,0 -1.479,0.009C-1.472,0.084 -1.461,0.159 -1.451,0.233C-0.896,0.757 -0.404,1.339 0,1.976"
                        style="fill:#393f49;fill-rule:nonzero;" />
                </g>
                <g transform="matrix(1,0,0,1,114.981,99.2835)">
                    <path
                        d="M0,-1.475C0.298,-0.999 0.564,-0.509 0.813,-0.011C0.987,0.13 1.163,0.271 1.342,0.409C1.647,0.646 2.114,0.384 1.997,0.025C1.972,-0.023 1.947,-0.072 1.922,-0.12C1.905,-0.147 1.886,-0.173 1.868,-0.2C1.626,0.088 1.138,0.165 0.932,-0.248C0.66,-0.793 0.496,-1.362 0.417,-1.943C0.354,-2.002 0.292,-2.063 0.227,-2.121C0.004,-2.011 -0.157,-1.725 0,-1.475"
                        style="fill:#393f49;fill-rule:nonzero;" />
                </g>
                <g transform="matrix(1,0,0,1,115.913,97.7535)">
                    <path
                        d="M0,1.282C0.206,1.695 0.694,1.618 0.936,1.33C0.532,0.693 0.041,0.111 -0.515,-0.413C-0.436,0.168 -0.272,0.737 0,1.282"
                        style="fill:#393f49;fill-rule:nonzero;" />
                </g>
                <g transform="matrix(1,0,0,1,171.055,125.845)">
                    <path
                        d="M0,1.694C-0.688,1.006 -1.483,0.442 -2.388,0.053C-2.596,0.022 -2.802,-0.017 -3.007,-0.062C-3.434,0.078 -3.673,0.737 -3.279,1.069C-3.096,1.224 -2.917,1.38 -2.742,1.537C-2.452,1.592 -2.161,1.64 -1.867,1.676C-1.227,1.756 -0.604,1.756 0,1.694"
                        style="fill:#393f49;fill-rule:nonzero;" />
                </g>
                <g transform="matrix(1,0,0,1,102.03,118.157)">
                    <path
                        d="M0,5.934C0.041,5.955 0.08,5.98 0.121,6.002C-0.258,4.589 -1.699,3.195 -2.547,2.062C-3.226,1.157 -3.906,0.253 -4.588,-0.649C-4.638,-0.565 -4.711,-0.496 -4.796,-0.444C-4.825,-0.114 -4.872,0.219 -4.935,0.551C-4.47,1.252 -3.998,1.948 -3.523,2.645C-2.69,3.868 -1.866,5.693 -0.635,6.583C-0.843,6.217 -0.461,5.691 0,5.934"
                        style="fill:#393f49;fill-rule:nonzero;" />
                </g>
                <g transform="matrix(-0.935881,0.352316,0.352316,0.935881,95.8045,116.505)">
                    <path
                        d="M0.095,-0.705C0.164,-0.632 0.203,-0.526 0.176,-0.387C0.151,-0.248 0.121,-0.109 0.095,0.03C0.091,0.022 0.086,0.014 0.082,0.006C0.097,-0.227 0.101,-0.464 0.095,-0.705"
                        style="fill:#393f49;fill-rule:nonzero;" />
                </g>
                <g transform="matrix(1,0,0,1,95.8816,116.518)">
                    <path
                        d="M0,-0.863C-0.174,-0.884 -0.35,-0.79 -0.414,-0.64C-0.335,-0.412 -0.248,-0.191 -0.152,0.021C-0.122,-0.278 -0.077,-0.573 0,-0.863"
                        style="fill:#393f49;fill-rule:nonzero;" />
                </g>
                <g transform="matrix(1,0,0,1,97.4416,117.475)">
                    <path
                        d="M0,0.032C-0.06,-0.048 -0.121,-0.127 -0.181,-0.206C-0.186,-0.059 -0.195,0.089 -0.208,0.238C-0.123,0.185 -0.05,0.117 0,0.032"
                        style="fill:#393f49;fill-rule:nonzero;" />
                </g>
                <g transform="matrix(1,0,0,1,145.155,127.672)">
                    <path
                        d="M0,23.17C-0.267,23.339 -0.541,23.479 -0.818,23.604C-0.841,23.74 -0.932,23.871 -1.088,23.935C-1.451,24.084 -1.823,24.113 -2.196,24.054C-4.339,24.506 -6.651,23.973 -8.697,23.182C-12.487,21.717 -15.897,19.189 -19.056,16.685C-22.681,13.811 -26.11,10.702 -29.526,7.586C-31.989,5.338 -34.438,3.073 -36.972,0.906C-38.854,-0.704 -40.814,-2.335 -43.005,-3.514C-42.984,-3.436 -42.965,-3.359 -42.951,-3.282C-42.889,-2.943 -43.228,-2.59 -43.568,-2.801C-43.634,-2.841 -43.697,-2.887 -43.761,-2.933C-43.724,-2.868 -43.67,-2.807 -43.593,-2.757C-40.652,-0.873 -38.045,1.52 -35.482,3.876C-32.161,6.928 -28.924,10.073 -25.58,13.1C-22.275,16.091 -18.861,18.983 -15.15,21.461C-12.208,23.427 -8.883,25.266 -5.323,25.731C1.964,26.684 5.514,20.168 7.184,14.075C6.721,13.589 6.266,13.095 5.816,12.595C4.915,16.419 3.511,20.947 0,23.17"
                        style="fill:#393f49;fill-rule:nonzero;" />
                </g>
                <g transform="matrix(-0.760652,0.64916,0.64916,0.760652,152.807,140.015)">
                    <path
                        d="M1.481,-1.058C1.507,-1.038 1.534,-1.019 1.561,-1C1.543,-0.327 1.518,0.344 1.481,1.014C1.152,0.791 0.831,0.565 0.517,0.337C-0.368,-0.307 0.6,-1.705 1.481,-1.058"
                        style="fill:#393f49;fill-rule:nonzero;" />
                </g>
                <g transform="matrix(1,0,0,1,102.204,124.54)">
                    <path
                        d="M0,-0.15C-0.014,-0.227 -0.034,-0.304 -0.054,-0.381C-0.095,-0.403 -0.134,-0.428 -0.175,-0.449C-0.636,-0.692 -1.018,-0.166 -0.81,0.2C-0.747,0.246 -0.683,0.291 -0.618,0.331C-0.277,0.542 0.062,0.189 0,-0.15"
                        style="fill:#393f49;fill-rule:nonzero;" />
                </g>
                <g transform="matrix(1,0,0,1,104.484,108.863)">
                    <path
                        d="M0,8.23C2.104,9.006 4.417,7.825 5.802,6.233C7.329,4.478 7.755,2.074 7.295,-0.154C7.167,-0.776 6.166,-0.632 6.193,-0.004C6.275,1.838 5.878,3.698 4.687,5.147C3.449,6.653 1.77,6.723 -0.006,6.991C-0.705,7.096 -0.525,8.036 0,8.23"
                        style="fill:#393f49;fill-rule:nonzero;" />
                </g>
                <g transform="matrix(1,0,0,1,58.2995,79.1122)">
                    <path
                        d="M0,31.018C1.04,31.756 2.062,32.519 3.07,33.299C3.038,33.196 2.984,33.093 2.898,32.995C1.232,31.086 -0.698,29.393 -2.637,27.729C-2.783,27.8 -2.927,27.873 -3.076,27.939C-4.123,28.41 -4.761,27.028 -4.044,26.523C-4.435,26.186 -4.824,25.85 -5.208,25.51C-7.993,23.052 -10.719,20.524 -13.16,17.718C-16.443,13.944 -20.755,7.98 -19.541,2.586C-18.221,-3.275 -9.5,-0.698 -5.898,0.948C0.031,3.656 5.273,7.777 10.535,11.562C14.586,14.477 18.787,17.137 22.7,20.248C26.944,23.623 30.894,27.599 35.475,30.515C35.562,30.57 35.65,30.583 35.731,30.568C35.677,30.23 35.631,29.892 35.597,29.552C32.825,26.941 29.782,24.571 26.873,22.117C23.887,19.599 20.848,17.143 17.646,14.901C12.374,11.21 7.172,7.363 1.799,3.82C-3.039,0.63 -8.562,-2.639 -14.565,-2.339C-16.607,-2.237 -18.773,-1.503 -19.979,0.242C-21.123,1.896 -21.264,3.962 -21.002,5.903C-20.282,11.232 -16.859,15.947 -13.375,19.847C-11.098,22.395 -8.556,24.698 -6.007,26.968C-3.373,29.315 -0.81,31.755 1.854,34.066C2.06,34.245 2.282,34.293 2.482,34.257C1.496,33.389 0.511,32.518 -0.468,31.641C-0.796,31.347 -0.366,30.758 0,31.018"
                        style="fill:#393f49;fill-rule:nonzero;" />
                </g>
                <g transform="matrix(1,0,0,1,94.2497,109.351)">
                    <path
                        d="M0,-0.356C-0.116,-0.467 -0.236,-0.576 -0.354,-0.686C-0.319,-0.347 -0.273,-0.008 -0.219,0.33C0.06,0.278 0.25,-0.116 0,-0.356"
                        style="fill:#393f49;fill-rule:nonzero;" />
                </g>
                <g transform="matrix(1,0,0,1,79.9206,131.612)">
                    <path d="M0,-3.526C1.433,-2.338 2.874,-1.162 4.327,0C2.905,-1.205 1.485,-2.415 0,-3.526"
                        style="fill:#393f49;fill-rule:nonzero;" />
                </g>
                <g transform="matrix(1,0,0,1,106.091,139.816)">
                    <path
                        d="M0,8.122C0.002,8.119 0.007,8.12 0.01,8.123C0.487,8.757 0.462,9.464 0.68,10.223C0.733,10.411 0.793,10.597 0.853,10.783C1.254,11.255 1.656,11.729 2.065,12.203C2.506,12.714 3.256,12.047 2.958,11.498C-0.249,5.602 -6.031,2.691 -11.528,-0.646C-12.68,-1.345 -13.807,-2.081 -14.916,-2.843C-14.524,-2.551 -14.135,-2.257 -13.742,-1.968C-13.135,-1.521 -13.679,-0.492 -14.332,-0.927C-16.086,-2.096 -17.798,-3.325 -19.482,-4.592C-17.474,-2.993 -15.397,-1.487 -13.242,-0.091C-10.551,1.653 -7.698,3.141 -5.066,4.975C-3.257,6.236 -1.777,7.76 -0.363,9.371C-0.363,8.903 -0.266,8.468 0,8.122"
                        style="fill:#393f49;fill-rule:nonzero;" />
                </g>
                <g transform="matrix(1,0,0,1,130.279,155.222)">
                    <path
                        d="M0,33.561C-1.74,31.708 -3.237,29.686 -4.438,27.445C-6.967,22.733 -8.251,17.561 -11.365,13.14C-13.856,9.603 -16.693,6.32 -19.227,2.812C-19.369,2.615 -19.509,2.417 -19.649,2.218C-19.858,2.135 -20.067,2.051 -20.281,1.97C-20.562,1.865 -20.457,1.481 -20.163,1.524C-20.149,1.527 -20.135,1.53 -20.121,1.532C-20.97,0.273 -21.754,-1.029 -22.432,-2.388C-22.791,-3.108 -23.088,-3.857 -23.335,-4.623C-23.739,-5.098 -24.142,-5.57 -24.551,-6.035C-24.549,-5.067 -24.122,-3.958 -23.849,-3.193C-23.174,-1.294 -22.145,0.467 -21.064,2.158C-18.641,5.948 -15.658,9.345 -12.998,12.964C-9.786,17.332 -8.264,22.383 -5.973,27.229C-4.878,29.543 -3.415,31.627 -1.749,33.561C0.05,35.649 2.048,37.752 4.185,39.491C4.254,39.547 4.333,39.58 4.414,39.596C4.041,38.746 3.703,37.879 3.41,36.999C2.295,35.833 1.102,34.734 0,33.561"
                        style="fill:#393f49;fill-rule:nonzero;" />
                </g>
                <g transform="matrix(1,0,0,1,106.77,148.495)">
                    <path
                        d="M0,1.544C-0.218,0.786 -0.193,0.078 -0.67,-0.556C-0.672,-0.559 -0.677,-0.56 -0.68,-0.557C-0.945,-0.211 -1.043,0.224 -1.042,0.692C-0.634,1.157 -0.23,1.629 0.173,2.104C0.113,1.918 0.054,1.732 0,1.544"
                        style="fill:#393f49;fill-rule:nonzero;" />
                </g>
                <g transform="matrix(1,0,0,1,146.011,188.857)">
                    <path
                        d="M0,18.074C-0.361,17.878 -0.719,17.67 -1.069,17.44C-6.385,13.954 -9.829,7.8 -11.798,1.723C-12.211,0.604 -12.717,-0.474 -13.266,-1.533C-13.334,-1.476 -13.379,-1.393 -13.367,-1.281C-13.195,0.296 -12.826,1.849 -12.322,3.364C-11.759,3.952 -11.214,4.556 -10.713,5.197C-10.378,5.627 -10.888,6.048 -11.318,5.961C-10.77,7.211 -10.149,8.427 -9.489,9.598C-7.604,12.942 -5.058,16.03 -1.941,18.287C-1.229,18.803 -0.48,19.239 0.292,19.607C0.187,19.136 0.087,18.663 0,18.189C-0.007,18.147 -0.004,18.111 0,18.074"
                        style="fill:#393f49;fill-rule:nonzero;" />
                </g>
                <g transform="matrix(1,0,0,1,155.465,206.093)">
                    <path
                        d="M0,3.822C2.031,3.628 4.029,3.155 5.997,2.63C7.954,2.107 10.136,1.681 11.956,0.779C12.424,0.548 12.203,-0.261 11.681,-0.217C9.903,-0.069 8.138,0.671 6.431,1.162C4.64,1.677 2.833,2.129 0.992,2.428C-2.328,2.97 -5.62,2.65 -8.605,1.267C-8.404,1.8 -8.204,2.334 -8.003,2.867C-5.48,3.818 -2.733,4.083 0,3.822"
                        style="fill:#393f49;fill-rule:nonzero;" />
                </g>
                <g transform="matrix(1,0,0,1,135.298,193.072)">
                    <path
                        d="M0,0.982C-0.5,0.341 -1.045,-0.263 -1.609,-0.851C-1.316,0.029 -0.978,0.896 -0.605,1.746C-0.175,1.833 0.335,1.412 0,0.982"
                        style="fill:#393f49;fill-rule:nonzero;" />
                </g>
                <g transform="matrix(1,0,0,1,91.175,131.612)">
                    <path
                        d="M0,5.361C-2.342,3.613 -4.649,1.824 -6.928,0C-5.905,0.868 -4.88,1.733 -3.83,2.553C-2.582,3.529 -1.304,4.464 0,5.361"
                        style="fill:#393f49;fill-rule:nonzero;" />
                </g>
                <g transform="matrix(1,0,0,1,78.072,119.677)">
                    <path
                        d="M0,8.281C-0.38,7.895 0.112,7.175 0.586,7.5C1.014,7.793 1.433,8.098 1.849,8.409C0.253,7.086 -1.332,5.751 -2.908,4.403C-7.476,0.495 -11.94,-3.586 -16.702,-7.266C-16.563,-6.823 -16.876,-6.382 -17.291,-6.308C-12.714,-2.279 -8.066,1.676 -3.467,5.677C0.437,9.073 4.396,12.433 8.537,15.547C8.401,15.439 8.264,15.335 8.13,15.227C5.381,13.009 2.477,10.8 0,8.281"
                        style="fill:#393f49;fill-rule:nonzero;" />
                </g>
                <g transform="matrix(0.424342,-0.905502,-0.905502,-0.424342,61.0136,110.268)">
                    <path
                        d="M-1.79,-1.232C-1.512,0.012 -1.254,1.261 -1.027,2.516C-0.947,2.958 -1.662,3.098 -1.79,2.675C-2.169,1.417 -2.539,0.156 -2.907,-1.106C-2.664,-1.45 -2.132,-1.546 -1.79,-1.232"
                        style="fill:#393f49;fill-rule:nonzero;" />
                </g>
                <g transform="matrix(1,0,0,1,92.3489,128.328)">
                    <path
                        d="M0,9.52C-0.393,9.23 -0.783,8.937 -1.174,8.645C-2.478,7.748 -3.755,6.813 -5.004,5.837C-6.054,5.017 -7.079,4.152 -8.102,3.284C-9.554,2.122 -10.996,0.946 -12.428,-0.242C-12.844,-0.553 -13.263,-0.857 -13.69,-1.15C-14.165,-1.476 -14.657,-0.756 -14.277,-0.37C-11.8,2.149 -8.896,4.358 -6.147,6.576C-6.013,6.685 -5.875,6.789 -5.74,6.896C-4.056,8.163 -2.345,9.392 -0.59,10.561C0.062,10.996 0.606,9.967 0,9.52"
                        style="fill:#393f49;fill-rule:nonzero;" />
                </g>
                <g transform="matrix(1,0,0,1,64.5281,105.779)">
                    <path
                        d="M0,-7.556C0.359,-8.157 -0.53,-8.618 -0.921,-8.079C-3.235,-4.897 -5.972,-1.288 -9.969,-0.284C-10.091,-0.253 -10.189,-0.203 -10.272,-0.144C-9.806,0.258 -9.335,0.659 -8.866,1.062C-5.109,-0.764 -2.119,-4.014 0,-7.556"
                        style="fill:#393f49;fill-rule:nonzero;" />
                </g>
                <g transform="matrix(1,0,0,1,55.2239,106.105)">
                    <path
                        d="M0,0.947C0.148,0.881 0.292,0.807 0.438,0.737C-0.031,0.334 -0.501,-0.068 -0.968,-0.47C-1.686,0.036 -1.047,1.417 0,0.947"
                        style="fill:#393f49;fill-rule:nonzero;" />
                </g>
                <g transform="matrix(-0.779467,-0.626444,-0.626444,0.779467,66.6373,108.089)">
                    <path
                        d="M-4.081,-11.453C-3.839,-11.761 -3.402,-11.392 -3.614,-11.077C-6.135,-7.346 -6.465,-2.908 -4.081,0.951C-3.888,1.264 -4.296,1.727 -4.583,1.427C-7.986,-2.137 -6.875,-7.889 -4.081,-11.453"
                        style="fill:#393f49;fill-rule:nonzero;" />
                </g>
                <g transform="matrix(-0.777755,-0.628567,-0.628567,0.777755,71.4484,113.93)">
                    <path
                        d="M-4.641,-12.574C-6.106,-7.853 -5.621,-3.281 -3.811,1.257C-3.617,1.744 -4.372,2.166 -4.641,1.697C-7.117,-2.641 -7.228,-8.3 -5.211,-12.829C-5.042,-13.206 -4.526,-12.946 -4.641,-12.574"
                        style="fill:#393f49;fill-rule:nonzero;" />
                </g>
                <g transform="matrix(1,0,0,1,94.9192,122.934)">
                    <path
                        d="M0,-9.145C-0.728,-7.556 -1.563,-6.134 -2.761,-4.772C-4.186,-3.15 -5.915,-1.863 -7.548,-0.469C-7.758,-0.29 -7.484,0 -7.264,-0.11C-5.308,-1.088 -3.611,-2.557 -2.1,-4.127C-1.181,-5.082 -0.252,-6.197 0.432,-7.412C0.258,-7.979 0.123,-8.573 0,-9.145"
                        style="fill:#393f49;fill-rule:nonzero;" />
                </g>
                <g transform="matrix(-0.377188,-0.926137,-0.926137,0.377188,94.8023,113.6)">
                    <path
                        d="M-0.219,-1.492C0.235,-1.813 0.916,-1.192 0.489,-0.768C0.245,-0.524 0.011,-0.281 -0.219,-0.037C-0.795,0.066 -1.397,0.164 -1.988,0.217C-1.468,-0.439 -0.882,-1.027 -0.219,-1.492"
                        style="fill:#393f49;fill-rule:nonzero;" />
                </g>
                <g transform="matrix(1,0,0,1,95.7995,126.723)">
                    <path
                        d="M0,-10.039C-0.024,-10.079 -0.049,-10.118 -0.073,-10.157C-0.123,-9.643 -0.131,-9.122 -0.184,-8.61C-0.294,-7.559 -0.577,-6.518 -0.914,-5.52C-1.542,-3.659 -2.764,-2.057 -3.868,-0.469C-4.048,-0.21 -3.689,0.118 -3.438,-0.047C-1.631,-1.232 -0.468,-3.014 0.362,-4.999C0.726,-5.871 1.089,-6.935 1.295,-8.016C1.034,-8.41 0.775,-8.806 0.521,-9.204C0.322,-9.45 0.149,-9.732 0,-10.039"
                        style="fill:#393f49;fill-rule:nonzero;" />
                </g>
                <g transform="matrix(1,0,0,1,96.3205,116.684)">
                    <path d="M0,0.835C-0.176,0.559 -0.349,0.279 -0.521,0C-0.372,0.307 -0.199,0.589 0,0.835"
                        style="fill:#393f49;fill-rule:nonzero;" />
                </g>
                <g transform="matrix(1,0,0,1,96.156,116.49)">
                    <path
                        d="M0,-0.675C0.371,-0.192 0.737,0.294 1.105,0.779C1.124,0.21 1.079,-0.342 0.942,-0.847C0.778,-1.454 -0.111,-1.443 -0.273,-0.841C-0.273,-0.839 -0.274,-0.837 -0.274,-0.835C-0.175,-0.822 -0.076,-0.774 0,-0.675"
                        style="fill:#393f49;fill-rule:nonzero;" />
                </g>
                <g transform="matrix(1,0,0,1,95.7297,116.684)">
                    <path
                        d="M0,-0.145C-0.001,-0.136 -0.002,-0.127 -0.003,-0.118C0.021,-0.079 0.045,-0.04 0.07,0C0.046,-0.048 0.022,-0.096 0,-0.145"
                        style="fill:#393f49;fill-rule:nonzero;" />
                </g>
                <g transform="matrix(-0.844605,0.535391,0.535391,0.844605,97.3341,118.321)">
                    <path
                        d="M0.409,-1.067C0.418,-1.117 0.421,-1.169 0.427,-1.22C0.425,-0.747 0.419,-0.275 0.409,0.198C0.178,-0.048 -0.04,-0.304 -0.24,-0.567C0.056,-0.571 0.359,-0.762 0.409,-1.067"
                        style="fill:#393f49;fill-rule:nonzero;" />
                </g>
                <g transform="matrix(1,0,0,1,95.7995,116.841)">
                    <path
                        d="M0,-0.157C0.172,0.122 0.345,0.402 0.521,0.678C0.553,0.718 0.584,0.76 0.618,0.798C0.823,1.029 1.182,1.028 1.434,0.872C1.447,0.723 1.457,0.575 1.461,0.428C1.094,-0.057 0.727,-0.543 0.356,-1.026C0.28,-1.125 0.182,-1.174 0.082,-1.186C0.005,-0.896 -0.04,-0.6 -0.07,-0.302C-0.047,-0.253 -0.023,-0.205 0,-0.157"
                        style="fill:#393f49;fill-rule:nonzero;" />
                </g>
                <g transform="matrix(-0.669183,-0.743098,-0.743098,0.669183,103.442,141.814)">
                    <path
                        d="M-2.85,-8.709C-3.858,-6.097 -4.963,-2.195 -2.299,-0.193C-1.765,0.207 -2.275,0.931 -2.85,0.653C-6.542,-1.139 -4.97,-6.24 -3.507,-9.026C-3.312,-9.398 -2.701,-9.095 -2.85,-8.709"
                        style="fill:#393f49;fill-rule:nonzero;" />
                </g>
                <g transform="matrix(1,0,0,1,166.339,176.424)">
                    <path
                        d="M0,-27.361C-1.08,-26.123 -2.07,-24.816 -2.851,-23.353C-3.458,-22.218 -3.905,-21.015 -4.241,-19.779C-4.089,-19.903 -3.931,-20.015 -3.766,-20.111C-3.177,-20.456 -2.624,-19.806 -2.879,-19.243C-3.239,-18.447 -3.917,-17.813 -4.406,-17.091C-4.574,-16.843 -4.734,-16.589 -4.895,-16.336C-4.924,-16.094 -4.954,-15.851 -4.977,-15.609C-5.51,-10.08 -4.455,-4.001 -2.705,1.243C-2.542,1.729 -2.047,1.792 -1.729,1.58C-2.319,-0.366 -2.953,-2.295 -3.899,-4.117C-4.126,-4.554 -3.524,-4.91 -3.246,-4.507C-2.872,-3.964 -2.544,-3.401 -2.252,-2.823C-3.133,-7.037 -3.882,-11.218 -3.518,-15.61C-3.287,-18.405 -2.484,-21.149 -1.043,-23.561C0.216,-25.666 2.02,-27.397 3.708,-29.153C3.259,-28.792 2.773,-28.467 2.251,-28.185C1.501,-27.781 0.749,-27.514 0,-27.361"
                        style="fill:#393f49;fill-rule:nonzero;" />
                </g>
                <g transform="matrix(1,0,0,1,174.164,139.098)">
                    <path
                        d="M0,-12.499C-0.804,-11.55 -1.272,-10.445 -1.428,-9.295C-0.251,-7.178 0.323,-4.635 0.344,-2.406C0.37,0.258 -0.275,3.059 -1.672,5.357C0.498,2.513 2.116,-0.893 1.109,-4.437C0.82,-5.456 0.271,-6.378 -0.01,-7.402C-0.435,-8.952 0.238,-10.609 1.187,-11.816C2.697,-13.736 4.747,-15.152 6.12,-17.2C6.327,-17.507 5.851,-17.856 5.606,-17.586C4.909,-16.815 4.119,-16.149 3.316,-15.498C2.439,-14.291 1.335,-13.273 0.061,-12.567C0.041,-12.544 0.02,-12.522 0,-12.499"
                        style="fill:#393f49;fill-rule:nonzero;" />
                </g>
                <g transform="matrix(1,0,0,1,177.48,126.531)">
                    <path d="M0,-2.93C-1.134,-2.01 -2.293,-1.117 -3.255,0C-1.981,-0.705 -0.876,-1.724 0,-2.93"
                        style="fill:#393f49;fill-rule:nonzero;" />
                </g>
                <g transform="matrix(1,0,0,1,174.508,142.174)">
                    <path
                        d="M0,-5.482C-0.021,-7.711 -0.596,-10.254 -1.772,-12.371C-1.926,-11.227 -1.77,-10.038 -1.323,-8.913C-0.817,-7.638 -0.348,-6.532 -0.406,-5.127C-0.448,-4.107 -0.747,-3.071 -1.144,-2.1C-1.057,-1.987 -0.97,-1.874 -0.882,-1.761C-0.691,-1.516 -1.104,-1.194 -1.309,-1.424C-1.338,-1.457 -1.365,-1.49 -1.393,-1.522C-1.49,-1.31 -1.589,-1.101 -1.691,-0.899C-2.834,1.374 -4.692,3.198 -6.437,5.009C-7.029,5.624 -7.61,6.247 -8.169,6.889C-7.42,6.735 -6.668,6.469 -5.918,6.064C-5.396,5.782 -4.911,5.457 -4.461,5.097C-4.45,5.086 -4.438,5.074 -4.428,5.063C-3.616,4.218 -2.782,3.284 -2.016,2.281C-0.62,-0.018 0.026,-2.818 0,-5.482"
                        style="fill:#393f49;fill-rule:nonzero;" />
                </g>
                <g transform="matrix(1,0,0,1,164.609,178.144)">
                    <path
                        d="M0,-0.14C0.416,1.232 0.809,2.612 1.274,3.971C1.423,4.404 2.056,4.231 1.959,3.782C1.348,0.938 0.785,-1.954 -0.523,-4.544C-0.264,-3.307 0.005,-2.068 0.262,-0.819C0.326,-0.509 0.197,-0.272 0,-0.14"
                        style="fill:#393f49;fill-rule:nonzero;" />
                </g>
                <g transform="matrix(1,0,0,1,162.439,177.212)">
                    <path
                        d="M0,-4.905C0.947,-3.082 1.58,-1.154 2.17,0.793C2.367,0.661 2.496,0.424 2.432,0.114C2.175,-1.135 1.906,-2.375 1.647,-3.611C1.355,-4.189 1.028,-4.752 0.653,-5.295C0.375,-5.698 -0.227,-5.342 0,-4.905"
                        style="fill:#393f49;fill-rule:nonzero;" />
                </g>
                <g transform="matrix(1,0,0,1,159.578,172.187)">
                    <path
                        d="M0,-12.003C-0.905,-10.439 -1.652,-8.782 -2.383,-7.131C-3.894,-3.716 -5.416,-0.245 -7.87,2.615C-8.209,3.01 -7.673,3.54 -7.29,3.18C-4.645,0.697 -2.993,-2.468 -1.448,-5.704C-0.667,-7.339 0.092,-8.985 0.958,-10.578C1.241,-11.097 1.549,-11.602 1.866,-12.1C2.005,-13.259 2.214,-14.415 2.52,-15.543C1.437,-14.66 0.661,-13.146 0,-12.003"
                        style="fill:#393f49;fill-rule:nonzero;" />
                </g>
                <g transform="matrix(1,0,0,1,163.46,158.875)">
                    <path
                        d="M0,-1.694C0.255,-2.257 -0.298,-2.907 -0.887,-2.562C-1.052,-2.465 -1.21,-2.354 -1.362,-2.23C-1.667,-1.102 -1.876,0.054 -2.016,1.213C-1.855,0.96 -1.695,0.706 -1.527,0.458C-1.039,-0.264 -0.36,-0.898 0,-1.694"
                        style="fill:#393f49;fill-rule:nonzero;" />
                </g>
                <g transform="matrix(0.800184,-0.599755,-0.599755,-0.800184,217.256,129.148)">
                    <path
                        d="M-6.949,-2.279C-6.972,-2.709 -6.308,-2.784 -6.28,-2.349C-5.779,5.33 -2.896,14.047 -6.949,21.241C-7.094,21.497 -7.513,21.321 -7.372,21.057C-3.551,13.919 -6.546,5.292 -6.949,-2.279"
                        style="fill:#393f49;fill-rule:nonzero;" />
                </g>
                <g transform="matrix(1,0,0,1,244.065,56.2706)">
                    <path
                        d="M0,-0.052C0.005,-0.042 0.012,-0.036 0.016,-0.026C0.039,0.037 0.058,0.1 0.08,0.163C0.115,0.04 0.082,-0.098 -0.064,-0.18C-0.087,-0.193 -0.11,-0.204 -0.134,-0.215C-0.112,-0.199 -0.092,-0.184 -0.07,-0.168C-0.028,-0.135 -0.01,-0.094 0,-0.052"
                        style="fill:#393f49;fill-rule:nonzero;" />
                </g>
                <g transform="matrix(1,0,0,1,238.942,56.6059)">
                    <path
                        d="M0,19.166C-0.049,19.093 0.055,19.02 0.116,19.074C0.222,19.167 0.328,19.26 0.435,19.353C0.446,19.315 0.459,19.278 0.471,19.24C-0.305,18.225 -0.953,17.083 -1.606,16.002C-2.376,14.728 -3.161,13.663 -3.312,12.129C-3.426,10.977 -3.191,9.898 -2.791,8.83C-2.006,6.731 -0.666,4.772 0.749,3.053C1.48,2.165 3.143,0.047 4.56,0.045C4.544,-0.033 4.531,-0.111 4.514,-0.189C4.508,-0.214 4.512,-0.235 4.511,-0.259C4.273,-0.408 4.033,-0.545 3.789,-0.67C2.649,-0.395 1.538,0.811 0.862,1.516C-0.976,3.434 -2.51,5.785 -3.532,8.234C-4.569,10.716 -4.42,13.24 -2.975,15.521C-2.062,16.964 -1.092,18.722 0.29,19.836C0.306,19.782 0.322,19.728 0.338,19.674C0.226,19.504 0.112,19.335 0,19.166"
                        style="fill:#393f49;fill-rule:nonzero;" />
                </g>
                <g transform="matrix(-0.937862,0.347009,0.347009,0.937862,239.301,76.1826)">
                    <path
                        d="M0.054,-0.556C0.093,-0.628 0.215,-0.595 0.194,-0.51C0.148,-0.312 0.1,-0.114 0.054,0.084C-0.014,-0.005 -0.081,-0.094 -0.148,-0.184C-0.081,-0.308 -0.013,-0.432 0.054,-0.556"
                        style="fill:#393f49;fill-rule:nonzero;" />
                </g>
                <g transform="matrix(1,0,0,1,239.836,76.7519)">
                    <path
                        d="M0,-0.378C-0.109,-0.292 -0.219,-0.205 -0.328,-0.119C-0.401,-0.238 -0.479,-0.356 -0.557,-0.472C-0.572,-0.418 -0.589,-0.364 -0.604,-0.31C-0.489,-0.217 -0.372,-0.127 -0.251,-0.044C-0.051,0.094 0.171,-0.216 0,-0.378"
                        style="fill:#393f49;fill-rule:nonzero;" />
                </g>
                <g transform="matrix(1,0,0,1,239.836,75.8459)">
                    <path
                        d="M0,0.528C-0.146,0.357 -0.287,0.18 -0.424,0C-0.436,0.038 -0.448,0.075 -0.46,0.113C-0.304,0.249 -0.149,0.386 0,0.528"
                        style="fill:#393f49;fill-rule:nonzero;" />
                </g>
                <g transform="matrix(1,0,0,1,244.065,56.7116)">
                    <path
                        d="M0,-0.493C0.042,-0.31 -0.178,-0.086 -0.367,-0.214C-0.448,-0.267 -0.53,-0.313 -0.612,-0.365C-0.611,-0.341 -0.615,-0.32 -0.609,-0.295C-0.592,-0.217 -0.579,-0.139 -0.563,-0.061C-0.476,-0.061 -0.389,-0.055 -0.303,-0.038C-0.111,0 0.036,-0.127 0.08,-0.278C0.058,-0.341 0.039,-0.404 0.016,-0.467C0.012,-0.477 0.005,-0.483 0,-0.493"
                        style="fill:#393f49;fill-rule:nonzero;" />
                </g>
                <g transform="matrix(-0.166408,0.986057,0.986057,0.166408,239.621,76.0243)">
                    <path
                        d="M0.309,-0.294C0.411,-0.197 0.514,-0.102 0.619,-0.009C0.516,0.084 0.413,0.177 0.309,0.271C0.194,0.099 0.084,-0.075 -0.023,-0.251C0.088,-0.266 0.198,-0.28 0.309,-0.294"
                        style="fill:#393f49;fill-rule:nonzero;" />
                </g>
                <g transform="matrix(1,0,0,1,243.452,55.838)">
                    <path
                        d="M0,0.509C-0.013,0.164 0.461,0.051 0.612,0.381C0.603,0.339 0.584,0.298 0.542,0.265C0.521,0.248 0.5,0.234 0.479,0.217C0.087,0.02 -0.319,0 -0.722,0.097C-0.478,0.222 -0.237,0.36 0,0.509"
                        style="fill:#393f49;fill-rule:nonzero;" />
                </g>
                <g transform="matrix(1,0,0,1,244.065,56.2966)">
                    <path
                        d="M0,-0.078C-0.151,-0.407 -0.625,-0.295 -0.612,0.05C-0.53,0.102 -0.448,0.148 -0.367,0.201C-0.178,0.329 0.042,0.105 0,-0.078"
                        style="fill:#393f49;fill-rule:nonzero;" />
                </g>
                <g transform="matrix(1,0,0,1,182.193,98.5162)">
                    <path
                        d="M0,4.658C3.108,4.874 6.096,3.052 7.706,0.444C7.92,0.097 7.44,-0.216 7.162,0.035C5.787,1.276 4.624,2.664 2.863,3.379C1.561,3.908 0.13,3.871 -1.237,3.682C-2.383,3.524 -3.486,3.31 -4.583,3.187C-5.116,3.382 -5.661,3.584 -6.212,3.775C-4.134,3.978 -2.106,4.512 0,4.658"
                        style="fill:#393f49;fill-rule:nonzero;" />
                </g>
                <g transform="matrix(1,0,0,1,173.298,101.742)">
                    <path
                        d="M0,0.348C-0.009,0.431 0.04,0.521 0.142,0.512C1.003,0.438 1.847,0.468 2.683,0.55C3.233,0.359 3.779,0.156 4.311,-0.039C3.073,-0.178 1.842,-0.202 0.561,0.098C0.375,0.184 0.188,0.267 0,0.348"
                        style="fill:#393f49;fill-rule:nonzero;" />
                </g>
                <g transform="matrix(1,0,0,1,173.401,101.97)">
                    <path
                        d="M0,-0.01C-0.064,0.009 -0.096,0.063 -0.103,0.12C0.085,0.039 0.272,-0.044 0.458,-0.13C0.306,-0.094 0.153,-0.055 0,-0.01"
                        style="fill:#393f49;fill-rule:nonzero;" />
                </g>
                <g transform="matrix(0.524261,0.851558,0.851558,-0.524261,187.114,103.566)">
                    <path
                        d="M4.873,-2.684C5.85,1.126 4.471,5.013 5.173,8.86C5.208,9.055 4.93,9.145 4.873,8.948C3.804,5.204 4.931,1.285 4.311,-2.52C4.251,-2.883 4.777,-3.059 4.873,-2.684"
                        style="fill:#393f49;fill-rule:nonzero;" />
                </g>
                <g transform="matrix(1,0,0,1,133.33,180.116)">
                    <path
                        d="M0,7.366C0.252,8.387 0.547,9.424 0.883,10.464C0.996,10.766 1.102,11.072 1.199,11.381C1.3,11.701 1.8,11.566 1.704,11.241C0.078,5.741 -4.186,1.464 -5.55,-4.139C-5.598,-4.335 -5.894,-4.251 -5.851,-4.056C-4.939,0.06 -2.499,3.514 -0.584,7.207C-0.41,7.061 -0.067,7.096 0,7.366"
                        style="fill:#393f49;fill-rule:nonzero;" />
                </g>
                <g transform="matrix(1,0,0,1,133.33,190.275)">
                    <path
                        d="M0,-2.793C-0.067,-3.063 -0.41,-3.098 -0.584,-2.952C-0.036,-1.893 0.47,-0.815 0.883,0.305C0.547,-0.735 0.252,-1.772 0,-2.793"
                        style="fill:#393f49;fill-rule:nonzero;" />
                </g>
                <g transform="matrix(1,0,0,1,116.406,161.58)">
                    <path
                        d="M0,-0.899C1.868,0.551 3.526,2.256 5.291,3.826C5.405,3.928 5.561,3.768 5.456,3.656C2.333,0.314 -1.449,-4.094 -6.248,-4.827C-6.093,-4.597 -5.935,-4.368 -5.776,-4.14C-3.677,-3.303 -1.82,-2.313 0,-0.899"
                        style="fill:#393f49;fill-rule:nonzero;" />
                </g>
                <g transform="matrix(0.939292,0.34312,0.34312,-0.939292,109.967,157.124)">
                    <path
                        d="M0.052,-0.053C0.281,-0.056 0.506,-0.063 0.731,-0.069C0.504,0.089 0.277,0.25 0.052,0.413C0.038,0.41 0.024,0.408 0.011,0.407C-0.281,0.346 -0.247,-0.051 0.052,-0.053"
                        style="fill:#393f49;fill-rule:nonzero;" />
                </g>
                <g transform="matrix(1,0,0,1,165.014,116.358)">
                    <path
                        d="M0,-6.931C-0.22,-6.854 -0.439,-6.77 -0.656,-6.679C2.171,-6.228 4.919,-5.54 7.479,-4.223C9.65,-3.105 11.44,-1.57 13.081,0.169C13.074,0.011 13.065,-0.147 13.052,-0.305C9.954,-4.236 5.071,-6.431 0.142,-7.1C0.125,-7.027 0.079,-6.958 0,-6.931"
                        style="fill:#393f49;fill-rule:nonzero;" />
                </g>
                <g transform="matrix(0.829401,-0.558654,-0.558654,-0.829401,179.624,117.322)">
                    <path
                        d="M-0.583,-0.176C-0.582,-0.183 -0.572,-0.182 -0.571,-0.175C-0.525,0.531 -0.532,1.23 -0.583,1.922C-0.661,1.784 -0.742,1.648 -0.825,1.514C-0.733,0.954 -0.653,0.392 -0.583,-0.176"
                        style="fill:#393f49;fill-rule:nonzero;" />
                </g>
                <g transform="matrix(1,0,0,1,159.649,109.188)">
                    <path
                        d="M0,6.579C0.04,6.651 0.083,6.72 0.124,6.79C0.149,6.76 0.17,6.723 0.186,6.68C0.646,5.347 0.927,4.042 1.691,2.829C2.4,1.706 3.512,0.99 4.709,0.491C4.667,0.484 4.625,0.476 4.582,0.47C4.297,0.425 4.36,-0.062 4.647,-0.033C4.934,-0.004 5.221,0.031 5.507,0.07C5.538,-0.061 5.472,-0.211 5.307,-0.189C2.085,0.242 -0.553,3.273 -0.44,6.57C-0.337,6.423 -0.115,6.372 0,6.579"
                        style="fill:#393f49;fill-rule:nonzero;" />
                </g>
                <g transform="matrix(1,0,0,1,164.231,109.148)">
                    <path
                        d="M0,0.51C0.042,0.516 0.084,0.525 0.127,0.531C0.344,0.441 0.563,0.357 0.783,0.28C0.862,0.252 0.909,0.184 0.925,0.11C0.639,0.071 0.352,0.036 0.065,0.008C-0.222,-0.021 -0.285,0.465 0,0.51"
                        style="fill:#393f49;fill-rule:nonzero;" />
                </g>
                <g transform="matrix(1,0,0,1,159.772,125.165)">
                    <path
                        d="M0,-9.187C-0.173,-8.978 -0.551,-9.056 -0.563,-9.379L-0.563,-9.407C-0.618,-9.329 -0.642,-9.226 -0.595,-9.117C0.813,-5.868 3.314,-3.135 5.543,-0.354C5.991,-0.139 6.448,0.054 6.912,0.22C4.974,-3.154 1.951,-5.796 0,-9.187"
                        style="fill:#393f49;fill-rule:nonzero;" />
                </g>
                <g transform="matrix(0.560369,-0.828243,-0.828243,-0.560369,166.871,125.225)">
                    <path
                        d="M-0.529,-0.51C-0.428,-0.32 -0.332,-0.128 -0.238,0.064C-0.359,0.542 -0.455,1.029 -0.529,1.521C-0.714,0.927 -0.903,0.337 -1.105,-0.24C-1.239,-0.622 -0.726,-0.876 -0.529,-0.51"
                        style="fill:#393f49;fill-rule:nonzero;" />
                </g>
                <g transform="matrix(0.363963,-0.931414,-0.931414,-0.363963,159.69,115.65)">
                    <path
                        d="M-0.276,-0.196C-0.225,-0.132 -0.177,-0.067 -0.125,-0.003C0.026,0.179 -0.102,0.366 -0.276,0.409L-0.302,0.399C-0.599,0.27 -0.534,-0.111 -0.276,-0.196"
                        style="fill:#393f49;fill-rule:nonzero;" />
                </g>
                <g transform="matrix(1,0,0,1,172.554,130.838)">
                    <path
                        d="M0,8.179C-1.397,6.342 -2.783,4.496 -4.407,2.848C-5.728,1.508 -8.384,-0.807 -10.518,-0.346C-10.213,-0.33 -9.899,-0.281 -9.577,-0.193C-9.432,-0.153 -9.454,0.09 -9.612,0.077C-9.911,0.054 -10.195,0.062 -10.466,0.095C-9.532,0.446 -8.547,0.567 -7.625,1.072C-6.379,1.755 -5.33,2.774 -4.363,3.801C-2.833,5.425 -1.558,7.264 -0.142,8.986C-0.13,8.928 -0.116,8.869 -0.105,8.811C-0.064,8.601 -0.031,8.39 0,8.179"
                        style="fill:#393f49;fill-rule:nonzero;" />
                </g>
                <g transform="matrix(1,0,0,1,172.449,140.02)">
                    <path
                        d="M0,-0.371C-0.011,-0.312 -0.025,-0.254 -0.037,-0.196C0.193,0.084 0.426,0.36 0.666,0.632C0.752,0.443 0.835,0.25 0.915,0.054C0.644,-0.297 0.374,-0.649 0.105,-1.003C0.074,-0.791 0.041,-0.58 0,-0.371"
                        style="fill:#393f49;fill-rule:nonzero;" />
                </g>
                <g transform="matrix(0.971148,0.238477,0.238477,-0.971148,173.154,140.68)">
                    <path
                        d="M0.061,-0.057C0.315,-0.232 0.639,0.179 0.395,0.372C0.283,0.461 0.171,0.55 0.061,0.639C0.029,0.429 -0.006,0.222 -0.044,0.018C-0.009,-0.007 0.025,-0.033 0.061,-0.057"
                        style="fill:#393f49;fill-rule:nonzero;" />
                </g>
                <g transform="matrix(1,0,0,1,157.226,130.729)">
                    <path
                        d="M0,4.524C0.025,4.603 0.049,4.681 0.074,4.759C1.115,2.768 2.51,0.49 4.862,0.204C4.756,0.164 4.65,0.123 4.545,0.076C4.428,0.024 4.472,-0.142 4.576,-0.176C4.653,-0.2 4.732,-0.22 4.811,-0.237C2.169,-0.376 0.192,2.065 -0.638,4.501C-0.697,4.674 -0.617,4.819 -0.491,4.9C-0.508,4.825 -0.524,4.749 -0.541,4.673C-0.62,4.321 -0.111,4.179 0,4.524"
                        style="fill:#393f49;fill-rule:nonzero;" />
                </g>
                <g transform="matrix(1,0,0,1,161.771,130.62)">
                    <path
                        d="M0,0.185C0.105,0.232 0.211,0.273 0.317,0.313C0.589,0.28 0.873,0.271 1.171,0.295C1.33,0.308 1.352,0.065 1.207,0.025C0.884,-0.064 0.571,-0.112 0.266,-0.128C0.187,-0.111 0.108,-0.091 0.031,-0.066C-0.073,-0.033 -0.117,0.133 0,0.185"
                        style="fill:#393f49;fill-rule:nonzero;" />
                </g>
                <g transform="matrix(1,0,0,1,157.286,146.69)">
                    <path
                        d="M0,-11.174C-0.115,-10.954 -0.377,-10.947 -0.551,-11.06C0.221,-7.574 0.89,-3.717 2.654,-0.547C3.013,-0.338 3.38,-0.146 3.755,0.027C2.107,-3.618 1.223,-7.404 0.014,-11.201C0.009,-11.192 0.005,-11.183 0,-11.174"
                        style="fill:#393f49;fill-rule:nonzero;" />
                </g>
                <g transform="matrix(-0.603089,0.797674,0.797674,0.603089,161.716,146.825)">
                    <path
                        d="M0.526,-1.828C0.727,-1.374 0.906,-0.913 1.058,-0.44C1.172,-0.085 0.697,0.102 0.526,-0.225C0.459,-0.352 0.389,-0.477 0.32,-0.604C0.408,-1.007 0.477,-1.416 0.526,-1.828"
                        style="fill:#393f49;fill-rule:nonzero;" />
                </g>
                <g transform="matrix(1,0,0,1,157.286,135.136)">
                    <path
                        d="M0,0.38C0.005,0.371 0.009,0.362 0.014,0.353C-0.011,0.275 -0.035,0.196 -0.06,0.118C-0.171,-0.227 -0.68,-0.085 -0.601,0.267C-0.584,0.342 -0.568,0.419 -0.551,0.494C-0.377,0.607 -0.115,0.6 0,0.38"
                        style="fill:#393f49;fill-rule:nonzero;" />
                </g>
                <g transform="matrix(1,0,0,1,133.872,128.435)">
                    <path
                        d="M0,8.197C0.016,8.244 0.034,8.291 0.05,8.338C0.803,6.44 1.885,3.854 3.632,2.463C3.296,2.446 3.205,1.996 3.478,1.817C4.191,1.35 5.877,1.088 7.341,1.286C7.401,1.121 7.343,0.921 7.111,0.851C2.946,-0.419 -0.429,4.77 -0.882,8.315C-0.898,8.447 -0.866,8.546 -0.805,8.616C-0.82,8.555 -0.838,8.494 -0.853,8.432C-0.989,7.875 -0.182,7.658 0,8.197"
                        style="fill:#393f49;fill-rule:nonzero;" />
                </g>
                <g transform="matrix(1,0,0,1,140.804,131.654)">
                    <path
                        d="M0,-1.694C-1.311,-1.879 -2.394,-1.478 -3.3,-0.757C-3.292,-0.757 -3.285,-0.753 -3.275,-0.753C-1.187,-0.791 1.086,-1.561 2.782,0.175C2.844,0.239 2.949,0.187 2.952,0.103C2.953,0.036 2.95,-0.027 2.945,-0.09C2.853,-0.202 2.762,-0.314 2.67,-0.426C2.353,-0.812 2.036,-1.199 1.718,-1.586C1.332,-1.756 0.882,-1.868 0.409,-1.933C0.355,-1.784 0.207,-1.665 0,-1.694"
                        style="fill:#393f49;fill-rule:nonzero;" />
                </g>
                <g transform="matrix(1,0,0,1,143.749,130.068)">
                    <path
                        d="M0,1.496C-0.057,0.784 -0.541,0.302 -1.227,0C-0.909,0.387 -0.592,0.774 -0.274,1.16C-0.183,1.272 -0.092,1.384 0,1.496"
                        style="fill:#393f49;fill-rule:nonzero;" />
                </g>
                <g transform="matrix(0.084215,0.996448,0.996448,-0.084215,138.952,128.425)">
                    <path
                        d="M1.685,-1.751C1.841,-2.038 2.296,-1.985 2.342,-1.652C1.699,-0.687 1.39,0.426 1.685,1.717C1.731,1.92 1.625,2.078 1.481,2.143C1.161,0.702 1.28,-1.001 1.685,-1.751"
                        style="fill:#393f49;fill-rule:nonzero;" />
                </g>
                <g transform="matrix(1,0,0,1,144.063,137.649)">
                    <path
                        d="M0,13.2C-2.616,12.346 -4.27,10.142 -5.754,7.927C-7.569,5.218 -9.082,2.211 -10.141,-0.877C-10.153,-0.845 -10.166,-0.814 -10.178,-0.783C-10.309,-0.452 -10.801,-0.371 -10.996,-0.598C-10.119,2.846 -8.327,6.134 -6.354,9.06C-5.438,10.419 -3.243,13.738 -1.104,14.077C-0.635,13.978 -0.175,13.829 0.273,13.627C0.302,13.454 0.22,13.272 0,13.2"
                        style="fill:#393f49;fill-rule:nonzero;" />
                </g>
                <g transform="matrix(1,0,0,1,142.959,151.336)">
                    <path
                        d="M0,0.39C0.373,0.45 0.745,0.42 1.107,0.271C1.264,0.207 1.354,0.077 1.377,-0.06C0.929,0.142 0.469,0.291 0,0.39"
                        style="fill:#393f49;fill-rule:nonzero;" />
                </g>
                <g transform="matrix(1,0,0,1,133.886,136.505)">
                    <path
                        d="M0,0.361C0.012,0.33 0.025,0.299 0.037,0.267C0.021,0.22 0.002,0.174 -0.013,0.127C-0.195,-0.412 -1.002,-0.195 -0.866,0.362C-0.851,0.423 -0.833,0.485 -0.818,0.546C-0.623,0.773 -0.131,0.692 0,0.361"
                        style="fill:#393f49;fill-rule:nonzero;" />
                </g>
                <g transform="matrix(1,0,0,1,210.999,152.424)">
                    <path
                        d="M0,18.171C2.022,15.773 2.574,12.604 2.798,9.557C2.922,7.866 2.902,6.165 2.897,4.47C2.894,2.943 3.024,1.314 2.785,-0.194C2.783,-0.207 2.766,-0.204 2.762,-0.194C2.303,1.04 2.363,2.464 2.322,3.765C2.273,5.33 2.308,6.894 2.237,8.459C2.086,11.823 1.396,14.991 -0.376,17.889C-0.515,18.116 -0.175,18.378 0,18.171"
                        style="fill:#393f49;fill-rule:nonzero;" />
                </g>
                <g transform="matrix(0.752785,0.658267,0.658267,-0.752785,201.755,178.085)">
                    <path
                        d="M1.57,-0.563C1.993,0.991 2.17,2.561 2.092,4.17C2.076,4.5 1.572,4.542 1.57,4.198C1.554,2.654 1.353,1.127 0.977,-0.37C0.88,-0.755 1.463,-0.953 1.57,-0.563"
                        style="fill:#393f49;fill-rule:nonzero;" />
                </g>
                <g transform="matrix(1,0,0,1,199.682,213.99)">
                    <path
                        d="M0,-18.352C-6.839,-16.319 -9.769,-9.438 -15.517,-5.804C-18.671,-3.81 -22.65,-3.194 -26.276,-2.66C-30.124,-2.093 -34.149,-1.939 -37.868,-0.731C-38.344,-0.576 -38.148,0.117 -37.662,0.014C-33.851,-0.794 -30.001,-1.183 -26.138,-1.643C-24.92,-1.787 -23.698,-1.952 -22.488,-2.169C-22.497,-2.186 -22.506,-2.204 -22.515,-2.222C-22.687,-2.569 -22.227,-2.84 -22.001,-2.528C-21.945,-2.45 -21.89,-2.371 -21.834,-2.292C-19.657,-2.723 -17.528,-3.35 -15.548,-4.39C-9.295,-7.673 -6.556,-15.105 0.166,-17.751C0.531,-17.895 0.394,-18.469 0,-18.352"
                        style="fill:#393f49;fill-rule:nonzero;" />
                </g>
                <g transform="matrix(1,0,0,1,218.876,176.719)">
                    <path
                        d="M0,0.18C0.015,0.246 0.031,0.311 0.047,0.377C0.161,0.226 0.274,0.075 0.387,-0.077C0.221,-0.197 -0.059,-0.074 0,0.18"
                        style="fill:#393f49;fill-rule:nonzero;" />
                </g>
                <g transform="matrix(0.973393,-0.229141,-0.229141,-0.973393,226.128,195.688)">
                    <path
                        d="M-2.077,-0.192C-2.162,-0.643 -1.513,-0.793 -1.385,-0.354C0.389,5.709 -1.277,12.281 -2.077,18.461C-2.287,18.291 -2.498,18.123 -2.71,17.957C-2.43,11.889 -0.921,5.899 -2.077,-0.192"
                        style="fill:#393f49;fill-rule:nonzero;" />
                </g>
                <g transform="matrix(1,0,0,1,219.263,178.829)">
                    <path
                        d="M0,-2.187C-0.112,-2.035 -0.226,-1.883 -0.34,-1.732C-0.203,-1.151 -0.052,-0.574 0.111,0C0.28,-0.21 0.447,-0.422 0.612,-0.635C0.433,-1.112 0.259,-1.588 0.094,-2.062C0.073,-2.12 0.039,-2.158 0,-2.187"
                        style="fill:#393f49;fill-rule:nonzero;" />
                </g>
                <g transform="matrix(1,0,0,1,146.734,207.096)">
                    <path
                        d="M0,0.846C-0.141,0.471 -0.723,-0.166 -0.723,-0.166C-0.443,-0.013 -0.161,0.132 0.125,0.264C0.063,0.098 0.062,1.012 0,0.846"
                        style="fill:#393f49;fill-rule:nonzero;" />
                </g>
                <g transform="matrix(1,0,0,1,163.767,240.398)">
                    <path
                        d="M0,-7.699C1.21,-3.271 5.648,13.715 10.654,32.801C11.035,33.135 11.419,33.467 11.811,33.79C11.995,33.461 12.177,33.13 12.361,32.801C7.266,13.515 2.694,-3.72 1.437,-8.181C-0.256,-14.186 -2.012,-20.085 -4.469,-25.829C-6.643,-30.914 -8.861,-35.992 -11.09,-41.056C-11.49,-41.182 -11.885,-41.328 -12.275,-41.489C-10.765,-36.106 -8.125,-30.985 -5.953,-25.866C-3.445,-19.955 -1.69,-13.883 0,-7.699"
                        style="fill:#393f49;fill-rule:nonzero;" />
                </g>
                <g transform="matrix(1,0,0,1,146.86,208.531)">
                    <path
                        d="M0,-1.171C-0.286,-1.303 -0.569,-1.448 -0.849,-1.601C-0.853,-1.564 -0.856,-1.527 -0.848,-1.485C-0.761,-1.011 -0.662,-0.539 -0.557,-0.067C-0.176,0.114 0.209,0.282 0.602,0.43C0.401,-0.104 0.201,-0.638 0,-1.171"
                        style="fill:#393f49;fill-rule:nonzero;" />
                </g>
                <g transform="matrix(1,0,0,1,230.768,197.96)">
                    <path
                        d="M0,-1.074C1.7,2.909 3.409,6.886 4.973,10.926C6.488,14.841 7.697,18.862 9.199,22.78C9.668,22.61 10.137,22.44 10.607,22.279C10.584,22.219 10.558,22.161 10.534,22.101C9.039,18.287 7.848,14.362 6.359,10.542C4.866,6.705 3.239,2.917 1.57,-0.847C-0.054,-4.511 -1.663,-8.178 -3.256,-11.856C-4.946,-15.761 -6.334,-19.772 -7.907,-23.72C-7.932,-23.781 -7.97,-23.822 -8.011,-23.854C-8.138,-23.656 -8.268,-23.459 -8.397,-23.262C-7.515,-19.527 -6.076,-15.892 -4.692,-12.323C-3.225,-8.535 -1.595,-4.809 0,-1.074"
                        style="fill:#393f49;fill-rule:nonzero;" />
                </g>
                <g transform="matrix(1,0,0,1,222.295,174.253)">
                    <path
                        d="M0,0.143C0.023,0.244 0.052,0.344 0.075,0.445C0.205,0.248 0.335,0.051 0.462,-0.147C0.265,-0.302 -0.07,-0.167 0,0.143"
                        style="fill:#393f49;fill-rule:nonzero;" />
                </g>
                <g transform="matrix(1,0,0,1,186.554,229.681)">
                    <path
                        d="M0,-1.972C3.152,3.545 5.864,9.27 7.793,15.333C8.009,16.012 9.049,15.731 8.862,15.038C7.229,8.958 4.427,3.263 1.307,-2.18C-1.778,-7.564 -5.08,-12.942 -8.706,-17.984C-8.924,-17.941 -9.142,-17.899 -9.36,-17.86C-6.626,-12.368 -3.042,-7.296 0,-1.972"
                        style="fill:#393f49;fill-rule:nonzero;" />
                </g>
                <g transform="matrix(0.103696,0.994609,0.994609,-0.103696,177.113,211.261)">
                    <path
                        d="M0.51,0.001C0.528,0.008 0.546,0.015 0.565,0.022C0.549,0.244 0.53,0.464 0.51,0.685C0.426,0.638 0.341,0.591 0.258,0.544C-0.076,0.352 0.146,-0.134 0.51,0.001"
                        style="fill:#393f49;fill-rule:nonzero;" />
                </g>
                <g transform="matrix(1,0,0,1,202.616,216.332)">
                    <path
                        d="M0,-28.101C-0.932,-23.65 0.582,-18.594 1.835,-14.373C3.259,-9.577 4.992,-4.634 7.679,-0.384C8.104,0.289 9.031,-0.309 8.717,-1.004C6.736,-5.387 4.88,-9.833 3.435,-14.423C2.029,-18.884 0.817,-23.664 1.039,-28.379C1.04,-28.383 1.039,-28.386 1.039,-28.39C0.691,-28.295 0.346,-28.2 0,-28.101"
                        style="fill:#393f49;fill-rule:nonzero;" />
                </g>
                <g transform="matrix(1,0,0,1,202.699,187.705)">
                    <path
                        d="M0,0.124C-0.032,0.257 -0.055,0.393 -0.083,0.527C0.263,0.428 0.608,0.333 0.956,0.238C0.971,-0.308 0.13,-0.403 0,0.124"
                        style="fill:#393f49;fill-rule:nonzero;" />
                </g>
            </g>
            <g transform="matrix(0.0454661,0,0,0.164008,-2032.97,-1686.59)">
                <text x="46576.2px" y="10811px"
                    style="font-family:'OperatorMono-Bold', 'Operator Mono', monospace;font-size:219.167px;fill:current;">The
                    American Spreadsheet Company</text>
            </g>
            <g transform="matrix(0.0319085,0,0,0.115102,-1401.55,-1126.45)">
                <text x="46576.2px" y="10811px"
                    style="font-family:'OperatorMono-BookItalic', 'Operator Mono', monospace;font-weight:325;font-style:italic;font-size:219.167px;fill:current;">Professionally
                    Creative Knowledge Workers</text>
            </g>
        </g>
    </g>
</svg>
